<?xml version="1.0" encoding="UTF-8"?>
<svg width="369px" height="76px" viewBox="0 0 369 76" version="1.1" xmlns="http://www.w3.org/2000/svg" xmlns:xlink="http://www.w3.org/1999/xlink">
    <!-- Generator: Sketch 53.2 (72643) - https://sketchapp.com -->
    <title>Group 4</title>
    <desc>Created with Sketch.</desc>
    <g id="Consumer" stroke="none" stroke-width="1" fill="none" fill-rule="evenodd">
        <g id="3.0.1.-Equipment-check" transform="translate(-634.000000, -463.000000)">
            <g id="Group-4" transform="translate(631.000000, 435.000000)">
                <rect id="Rectangle" x="0" y="0" width="377" height="104"></rect>
                <rect id="Rectangle" fill="#EAEAEA" x="10" y="34" width="5" height="70"></rect>
                <rect id="Rectangle-Copy-3" fill="#EAEAEA" x="262" y="34" width="5" height="70"></rect>
                <rect id="Rectangle-Copy-18" fill="#EAEAEA" x="101" y="34" width="5" height="70"></rect>
                <rect id="Rectangle-Copy-42" fill="#EAEAEA" x="353" y="34" width="5" height="70"></rect>
                <rect id="Rectangle-Copy-31" fill="#EAEAEA" x="234" y="34" width="5" height="70"></rect>
                <rect id="Rectangle-Copy-6" fill="#EAEAEA" x="17" y="42" width="5" height="62"></rect>
                <rect id="Rectangle-Copy-43" fill="#EAEAEA" x="269" y="42" width="5" height="62"></rect>
                <rect id="Rectangle-Copy-19" fill="#EAEAEA" x="108" y="42" width="5" height="62"></rect>
                <rect id="Rectangle-Copy-44" fill="#EAEAEA" x="360" y="42" width="5" height="62"></rect>
                <rect id="Rectangle-Copy-8" fill="#EAEAEA" x="24" y="54" width="5" height="50"></rect>
                <rect id="Rectangle-Copy-45" fill="#EAEAEA" x="276" y="54" width="5" height="50"></rect>
                <rect id="Rectangle-Copy-20" fill="#EAEAEA" x="115" y="54" width="5" height="50"></rect>
                <rect id="Rectangle-Copy-46" fill="#EAEAEA" x="367" y="54" width="5" height="50"></rect>
                <rect id="Rectangle-Copy-9" fill="#EAEAEA" x="31" y="49" width="5" height="55"></rect>
                <rect id="Rectangle-Copy-47" fill="#EAEAEA" x="283" y="49" width="5" height="55"></rect>
                <rect id="Rectangle-Copy-21" fill="#EAEAEA" x="122" y="49" width="5" height="55"></rect>
                <rect id="Rectangle-Copy-10" fill="#EAEAEA" x="38" y="45" width="5" height="59"></rect>
                <rect id="Rectangle-Copy-49" fill="#EAEAEA" x="290" y="45" width="5" height="59"></rect>
                <rect id="Rectangle-Copy-22" fill="#EAEAEA" x="129" y="45" width="5" height="59"></rect>
                <rect id="Rectangle-Copy-11" fill="#EAEAEA" x="45" y="67" width="5" height="37"></rect>
                <rect id="Rectangle-Copy-51" fill="#EAEAEA" x="297" y="67" width="5" height="37"></rect>
                <rect id="Rectangle-Copy-23" fill="#EAEAEA" x="136" y="67" width="5" height="37"></rect>
                <rect id="Rectangle-Copy-12" fill="#EAEAEA" x="52" y="52" width="5" height="52"></rect>
                <rect id="Rectangle-Copy-53" fill="#EAEAEA" x="304" y="52" width="5" height="52"></rect>
                <rect id="Rectangle-Copy-32" fill="#EAEAEA" x="185" y="52" width="5" height="52"></rect>
                <rect id="Rectangle-Copy-24" fill="#EAEAEA" x="143" y="52" width="5" height="52"></rect>
                <rect id="Rectangle-Copy-13" fill="#EAEAEA" x="59" y="37" width="5" height="67"></rect>
                <rect id="Rectangle-Copy-56" fill="#EAEAEA" x="311" y="37" width="5" height="67"></rect>
                <rect id="Rectangle-Copy-33" fill="#EAEAEA" x="192" y="37" width="5" height="67"></rect>
                <rect id="Rectangle-Copy-25" fill="#EAEAEA" x="150" y="37" width="5" height="67"></rect>
                <rect id="Rectangle-Copy-14" fill="#EAEAEA" x="66" y="42" width="5" height="62"></rect>
                <rect id="Rectangle-Copy-58" fill="#EAEAEA" x="318" y="42" width="5" height="62"></rect>
                <rect id="Rectangle-Copy-34" fill="#EAEAEA" x="199" y="42" width="5" height="62"></rect>
                <rect id="Rectangle-Copy-26" fill="#EAEAEA" x="157" y="42" width="5" height="62"></rect>
                <rect id="Rectangle-Copy-39" fill="#EAEAEA" x="241" y="42" width="5" height="62"></rect>
                <rect id="Rectangle-Copy-15" fill="#EAEAEA" x="73" y="56" width="5" height="48"></rect>
                <rect id="Rectangle-Copy-60" fill="#EAEAEA" x="325" y="56" width="5" height="48"></rect>
                <rect id="Rectangle-Copy-35" fill="#EAEAEA" x="206" y="56" width="5" height="48"></rect>
                <rect id="Rectangle-Copy-27" fill="#EAEAEA" x="164" y="56" width="5" height="48"></rect>
                <rect id="Rectangle-Copy-40" fill="#EAEAEA" x="248" y="56" width="5" height="48"></rect>
                <rect id="Rectangle-Copy-16" fill="#EAEAEA" x="80" y="28" width="5" height="76"></rect>
                <rect id="Rectangle-Copy-62" fill="#EAEAEA" x="332" y="28" width="5" height="76"></rect>
                <rect id="Rectangle-Copy-36" fill="#EAEAEA" x="213" y="28" width="5" height="76"></rect>
                <rect id="Rectangle-Copy-28" fill="#EAEAEA" x="171" y="28" width="5" height="76"></rect>
                <rect id="Rectangle-Copy-17" fill="#EAEAEA" x="87" y="47" width="5" height="57"></rect>
                <rect id="Rectangle-Copy-64" fill="#EAEAEA" x="339" y="47" width="5" height="57"></rect>
                <rect id="Rectangle-Copy-37" fill="#EAEAEA" x="220" y="47" width="5" height="57"></rect>
                <rect id="Rectangle-Copy-29" fill="#EAEAEA" x="178" y="69" width="5" height="35"></rect>
                <rect id="Rectangle-Copy-7" fill="#EAEAEA" x="3" y="69" width="5" height="35"></rect>
                <rect id="Rectangle-Copy-66" fill="#EAEAEA" x="255" y="69" width="5" height="35"></rect>
                <rect id="Rectangle-Copy-30" fill="#EAEAEA" x="94" y="69" width="5" height="35"></rect>
                <rect id="Rectangle-Copy-67" fill="#EAEAEA" x="346" y="69" width="5" height="35"></rect>
                <rect id="Rectangle-Copy-38" fill="#EAEAEA" x="227" y="69" width="5" height="35"></rect>
            </g>
        </g>
    </g>
</svg>