<?xml version="1.0" encoding="UTF-8"?>
<svg width="30px" height="30px" viewBox="0 0 85 85" version="1.1" xmlns="http://www.w3.org/2000/svg" xmlns:xlink="http://www.w3.org/1999/xlink">
    <!-- Generator: Sketch 53.2 (72643) - https://sketchapp.com -->
    <title>icon/small/audio</title>
    <desc>Created with Sketch.</desc>
    <g id="icon/big/audio" stroke="none" stroke-width="1" fill="none" fill-rule="evenodd">
        <g id="Group-7" transform="translate(0.000000, 7.000000)" fill-rule="nonzero">
            <polygon id="Path" fill="#80E7FF" points="25.7 23.2 25.7 18.7 62.5 1.4 62.5 68.5 25.7 51.1 25.7 36.8 24 30.2"></polygon>
            <path d="M25.7,51.1 L17.6,51.1 C8.6,51.1 1.4,43.8 1.4,34.9 C1.4,26 8.6,18.7 17.6,18.7 L25.8,18.7" id="Path" fill="#57AAB2"></path>
            <path d="M75.9,20.4 C75.8,20.4 75.8,20.4 75.9,20.4 C75.8,20.4 75.8,20.4 75.9,20.4 Z" id="Path" fill="#000000"></path>
            <path d="M75.8,20.3 C75.8,20.3 75.7,20.2 75.6,20.2 C75.7,20.3 75.7,20.3 75.8,20.3 Z" id="Path" fill="#000000"></path>
            <path d="M75.6,20.3 C75.6,20.2 75.6,20.2 75.6,20.3 C75.6,20.2 75.6,20.2 75.6,20.3 Z" id="Path" fill="#000000"></path>
            <path d="" id="Path" fill="#000000"></path>
            <path d="M70.2,26.3 C70.1,26.3 70.1,26.2 70,26.2 C70,26.2 70.1,26.2 70.2,26.3 Z" id="Path" fill="#000000"></path>
            <path d="" id="Path" fill="#000000"></path>
            <path d="M25.7,31.6 C24.8,31.6 24.1,30.9 24.1,30 C24.1,29.1 24.8,28.4 25.7,28.4 C26.1,28.4 26.5,28.6 26.8,28.9 C27.1,29.2 27.3,29.6 27.2,30.1 C27.3,30.9 26.6,31.6 25.7,31.6 Z" id="Path" fill="#000000"></path>
            <path d="M75.2,50.3 C74.5,50.3 74,49.7 73.9,49.2 C73.7,48.6 74,48.1 74.5,47.7 C78.8,45.1 81.5,40.4 81.5,35.4 C81.5,30.3 78.8,25.6 74.4,23 C73.9,22.7 73.6,22.1 73.8,21.5 C74,20.9 74.5,20.4 75.1,20.4 C75.3,20.4 75.6,20.5 75.8,20.6 C81.1,23.6 84.3,29.3 84.3,35.4 C84.3,41.4 81.1,47 75.9,50.1 C75.7,50.2 75.4,50.3 75.2,50.3 L75.2,50.3 Z" id="Path" fill="#000000"></path>
            <path d="M69.5,44.3 C68.8,44.3 68.3,43.7 68.2,43.2 C68,42.6 68.3,42.1 68.8,41.7 C71,40.4 72.4,37.9 72.4,35.3 C72.4,32.7 71,30.2 68.7,28.9 C68.2,28.6 67.9,28 68.1,27.4 C68.3,26.8 68.8,26.3 69.4,26.3 C69.6,26.3 69.9,26.4 70.1,26.5 C73.2,28.3 75.2,31.7 75.2,35.3 C75.2,38.9 73.3,42.2 70.2,44 C70,44.3 69.8,44.3 69.5,44.3 Z" id="Path" fill="#000000"></path>
            <path d="M62.5,69.8 C62.3,69.8 62.1,69.8 61.9,69.7 L25.5,52.5 L17.6,52.5 C7.9,52.5 9.23705556e-14,44.6 9.23705556e-14,34.9 C9.23705556e-14,25.2 7.9,17.3 17.6,17.3 L25.4,17.3 L61.9,0.1 C62.1,0.1 62.3,-3.62376795e-13 62.5,-3.62376795e-13 C62.8,-3.62376795e-13 63,0.1 63.2,0.2 C63.6,0.5 63.8,0.9 63.8,1.4 L63.8,68.5 C63.8,68.9 63.6,69.2 63.4,69.5 C63.2,69.7 62.9,69.8 62.5,69.8 Z M25.7,35.5 C26.4,35.5 27.1,35.9 27.1,36.8 L27.1,50.2 L61.1,66.2 L61.1,3.6 L27.1,19.6 L27.1,23.2 C27.1,24.1 26.4,24.5 25.7,24.5 C25,24.5 24.3,24.1 24.3,23.2 L24.3,20.1 L17.6,20.1 C9.4,20.1 2.8,26.8 2.8,34.9 C2.8,43.1 9.5,49.7 17.6,49.7 L24.4,49.7 L24.4,36.8 C24.3,35.9 25.1,35.5 25.7,35.5 Z" id="Shape" fill="#000000"></path>
        </g>
    </g>
</svg>