<?xml version="1.0" encoding="UTF-8"?>
<svg width="24px" height="24px" viewBox="0 0 24 24" version="1.1" xmlns="http://www.w3.org/2000/svg" xmlns:xlink="http://www.w3.org/1999/xlink">
    <!-- Generator: Sketch 53.2 (72643) - https://sketchapp.com -->
    <title>icon/small/comment</title>
    <desc>Created with Sketch.</desc>
    <g id="icon/small/comment" stroke="none" stroke-width="1" fill="none" fill-rule="evenodd" opacity="0.9">
        <g id="comment" transform="translate(1.000000, 2.000000)" fill="#FFFFFF" fill-rule="nonzero">
            <path d="M18.1128845,1.88699214e-15 L2.88711547,1.88699214e-15 C1.29519653,1.88699214e-15 0,1.29491267 0,2.88705418 L0,12.2047091 C0,13.7932619 1.28955688,15.0861238 2.87686156,15.0917634 L2.87686156,19.32 L8.95345461,15.0917634 L18.1128845,15.0917634 C19.7048035,15.0917634 21,13.7965943 21,12.2047091 L21,2.88705418 C21,1.29491267 19.7048035,0 18.1128845,1.88699214e-15 Z M19.7695313,12.2047091 C19.7695313,13.1180565 19.0263794,13.8613207 18.1128845,13.8613207 L8.567395,13.8613207 L4.10733031,16.9648559 L4.10733031,13.8613207 L2.88711547,13.8613207 C1.97362062,13.8613207 1.23046875,13.1180565 1.23046875,12.2047091 L1.23046875,2.88705418 C1.23046875,1.97345053 1.97362062,1.23044263 2.88711547,1.23044263 L18.1128845,1.23044263 C19.0263794,1.23044263 19.7695313,1.97345053 19.7695313,2.88705418 L19.7695313,12.2047091 Z" id="Shape"></path>
            <polygon id="Path" points="5.88 4.2 15.54 4.2 15.54 5.46 5.88 5.46"></polygon>
            <polygon id="Path" points="5.88 7.14 15.54 7.14 15.54 8.4 5.88 8.4"></polygon>
            <polygon id="Path" points="5.88 9.66 15.54 9.66 15.54 10.92 5.88 10.92"></polygon>
        </g>
    </g>
</svg>