<?xml version="1.0" encoding="UTF-8"?>
<svg width="24px" height="24px" viewBox="0 0 24 24" version="1.1" xmlns="http://www.w3.org/2000/svg" xmlns:xlink="http://www.w3.org/1999/xlink">
    <!-- Generator: Sketch 53.2 (72643) - https://sketchapp.com -->
    <title>icon/small/emailOn</title>
    <desc>Created with Sketch.</desc>
    <g id="icon/small/emailOn" stroke="none" stroke-width="1" fill="none" fill-rule="evenodd">
        <g id="message-closed-envelope" transform="translate(0.000000, 3.000000)" fill="#5C5C5C" fill-rule="nonzero">
            <path d="M19.9176336,0 L2.68242554,0 C1.20334767,0 0,1.17570726 0,2.62080606 L0,14.8428303 C0,16.2879291 1.20334767,17.4636364 2.68242554,17.4636364 L19.9176336,17.4636364 C21.3967115,17.4636364 22.6,16.2879291 22.6,14.8428303 L22.6,2.62080606 C22.6,1.17570726 21.3967115,0 19.9176336,0 Z M19.9176336,15.1498897 L2.68242554,15.1498897 C2.4650115,15.1498897 2.27433064,15.0064389 2.27433064,14.8428303 L2.27433064,4.23697482 L10.0693573,10.9323506 C10.2291649,11.0696638 10.4323843,11.1452403 10.6416365,11.1452403 L11.958127,11.1453005 C12.1672608,11.1453005 12.3705985,11.0696638 12.5304653,10.9323506 L20.3258468,4.23673413 L20.3258468,14.8429506 C20.3257285,15.0064389 20.1349885,15.1498897 19.9176336,15.1498897 Z M11.3000296,8.84786053 L3.71839515,2.31374664 L18.881664,2.31374664 L11.3000296,8.84786053 Z" id="Shape"></path>
        </g>
        <circle id="Oval" stroke="#FFFFFF" fill="#FFBE3D" cx="20" cy="19" r="4.5"></circle>
    </g>
</svg>