<?xml version="1.0" encoding="UTF-8"?>
<svg width="24px" height="24px" viewBox="0 0 24 24" version="1.1" xmlns="http://www.w3.org/2000/svg" xmlns:xlink="http://www.w3.org/1999/xlink">
    <!-- Generator: Sketch 53.2 (72643) - https://sketchapp.com -->
    <title>icon/small/email</title>
    <desc>Created with Sketch.</desc>
    <g id="icon/small/email" stroke="none" stroke-width="1" fill="none" fill-rule="evenodd">
        <path d="M19.9176336,3 L2.68242554,3 C1.20334767,3 0,4.17570726 0,5.62080606 L0,17.8428303 C0,19.2879291 1.20334767,20.4636364 2.68242554,20.4636364 L19.9176336,20.4636364 C21.3967115,20.4636364 22.6,19.2879291 22.6,17.8428303 L22.6,5.62080606 C22.6,4.17570726 21.3967115,3 19.9176336,3 Z M19.9176336,18.1498897 L2.68242554,18.1498897 C2.4650115,18.1498897 2.27433064,18.0064389 2.27433064,17.8428303 L2.27433064,7.23697482 L10.0693573,13.9323506 C10.2291649,14.0696638 10.4323843,14.1452403 10.6416365,14.1452403 L11.958127,14.1453005 C12.1672608,14.1453005 12.3705985,14.0696638 12.5304653,13.9323506 L20.3258468,7.23673413 L20.3258468,17.8429506 C20.3257285,18.0064389 20.1349885,18.1498897 19.9176336,18.1498897 Z M11.3000296,11.8478605 L3.71839515,5.31374664 L18.881664,5.31374664 L11.3000296,11.8478605 Z" id="Shape" fill="#5C5C5C" fill-rule="nonzero"></path>
    </g>
</svg>