<?xml version="1.0" encoding="UTF-8"?>
<svg width="30px" height="30px" viewBox="0 0 85 85" version="1.1" xmlns="http://www.w3.org/2000/svg" xmlns:xlink="http://www.w3.org/1999/xlink">
    <!-- Generator: Sketch 53.2 (72643) - https://sketchapp.com -->
    <title>icon/small/internet</title>
    <desc>Created with Sketch.</desc>
    <g id="icon/big/internet" stroke="none" stroke-width="1" fill="none" fill-rule="evenodd">
        <g id="Group-8" transform="translate(1.000000, 9.000000)" fill-rule="nonzero">
            <path d="M45.3,63.1 C43.4,65 40.3,65 38.4,63.1 C36.5,61.2 36.5,58.1 38.4,56.2 C39.3,55.3 40.6,54.8 41.9,54.8 C43.2,54.8 44.4,55.3 45.4,56.2 C45.4,56.2 45.4,56.2 45.4,56.2 C46.3,57.1 46.8,58.4 46.8,59.7 C46.7,60.9 46.2,62.1 45.3,63.1 Z" id="Path" fill="#61BACA"></path>
            <path d="M55.2,46.7 C54.5,46.7 53.8,46.4 53.3,46 C50.1,43.3 46.1,41.9 41.9,41.9 C37.7,41.9 33.7,43.4 30.5,46 C30,46.5 29.3,46.7 28.6,46.7 C27.8,46.7 27.1,46.4 26.5,45.8 L19.7,39 C19.1,38.4 18.8,37.6 18.8,36.8 C18.8,36 19.2,35.2 19.8,34.7 C25.9,29.3 33.7,26.3 41.9,26.3 C50.1,26.3 57.9,29.3 64,34.7 C64.6,35.2 65,36 65,36.8 C65,37.6 64.7,38.4 64.1,39 L57.3,45.8 C56.7,46.4 55.9,46.7 55.2,46.7 Z M41.8,39.5 C46.5,39.5 51.1,41.2 54.7,44.2 L55.1,44.6 L62.7,37 L62.2,36.6 C56.6,31.6 49.3,28.8 41.7,28.8 C34.1,28.8 26.8,31.6 21.2,36.6 L20.7,37 L28.4,44.6 L28.8,44.2 C32.5,41.2 37.1,39.5 41.8,39.5 Z" id="Shape" fill="#000000"></path>
            <path d="M41.8,66.5 C39.9,66.5 38.2,65.8 36.9,64.5 C35.6,63.2 34.9,61.5 34.9,59.6 C34.9,57.7 35.6,56 36.9,54.7 C38.2,53.4 39.9,52.7 41.8,52.7 C43.6,52.7 45.4,53.4 46.7,54.7 C48,56 48.7,57.7 48.7,59.6 C48.7,61.5 48,63.2 46.7,64.5 C45.4,65.8 43.7,66.5 41.8,66.5 Z M41.8,55.1 C40.6,55.1 39.4,55.6 38.6,56.4 C37.7,57.3 37.3,58.4 37.3,59.6 C37.3,60.8 37.8,62 38.6,62.8 C39.5,63.7 40.6,64.1 41.8,64.1 C43,64.1 44.2,63.6 45,62.8 C45.9,61.9 46.3,60.8 46.3,59.6 C46.3,58.4 45.8,57.2 45,56.4 C44.2,55.5 43.1,55.1 41.8,55.1 Z" id="Shape" fill="#000000"></path>
            <path d="M73.8,28.1 C73.1,28.1 72.3,27.8 71.8,27.3 C63.6,19.7 53,15.6 41.8,15.6 C30.6,15.6 20,19.8 11.8,27.3 C11.2,27.8 10.5,28.1 9.8,28.1 C9,28.1 8.3,27.8 7.7,27.2 L0.9,20.4 C0.3,19.8 -7.10542736e-15,19.1 -7.10542736e-15,18.3 C-7.10542736e-15,17.5 0.3,16.7 0.9,16.2 C12.1,5.8 26.6,1.81188398e-13 41.8,1.81188398e-13 C57,1.81188398e-13 71.5,5.7 82.6,16.1 C83.2,16.7 83.5,17.4 83.5,18.2 C83.5,19 83.2,19.8 82.6,20.3 L75.8,27.1 C75.4,27.8 74.6,28.1 73.8,28.1 Z M41.8,13.2 C53.6,13.2 64.8,17.6 73.4,25.6 L73.8,26 L81.4,18.4 L81,18 C70.3,8 56.4,2.5 41.8,2.5 C27.2,2.5 13.3,8 2.6,18 L2.1,18.4 L9.7,26 L10.1,25.6 C18.9,17.6 30.1,13.2 41.8,13.2 Z" id="Shape" stroke="#000000" stroke-width="0.5" fill="#000000"></path>
            <path d="M41.8,13.2 C53.6,13.2 64.8,17.6 73.4,25.6 L73.8,26 L81.4,18.4 L81,18 C70.3,8 56.4,2.5 41.8,2.5 C27.2,2.5 13.3,8 2.6,18 L2.1,18.4 L9.7,26 L10.1,25.6 C18.9,17.6 30.1,13.2 41.8,13.2 Z" id="Path" fill="#80E7FF"></path>
            <path d="M41.8,39.5 C46.5,39.5 51.1,41.2 54.7,44.2 L55.1,44.6 L62.7,37 L62.2,36.6 C56.6,31.6 49.3,28.8 41.7,28.8 C34.1,28.8 26.8,31.6 21.2,36.6 L20.7,37 L28.4,44.6 L28.8,44.2 C32.5,41.2 37.1,39.5 41.8,39.5 Z" id="Path" stroke="#000000" stroke-width="0.5" fill="#80E7FF"></path>
        </g>
    </g>
</svg>