<?xml version="1.0" encoding="UTF-8"?>
<svg width="24px" height="24px" viewBox="0 0 24 24" version="1.1" xmlns="http://www.w3.org/2000/svg" xmlns:xlink="http://www.w3.org/1999/xlink">
    <!-- Generator: Sketch 53.2 (72643) - https://sketchapp.com -->
    <title>icon/small/participants</title>
    <desc>Created with Sketch.</desc>
    <defs>
        <polygon id="path-1" points="0 0.00271168831 24 0.00271168831 24 17.9532468 0 17.9532468"></polygon>
    </defs>
    <g id="icon/small/participants" stroke="none" stroke-width="1" fill="none" fill-rule="evenodd">
        <g id="Group-6" transform="translate(0.000000, 3.000000)">
            <g id="Group-3" transform="translate(0.000000, 0.044042)">
                <mask id="mask-2" fill="white">
                    <use xlink:href="#path-1"></use>
                </mask>
                <g id="Clip-2"></g>
                <path d="M12.0009375,7.98034442 C13.9687031,7.97894182 15.5937656,6.36258857 15.6024844,4.3980639 C15.6112969,2.42802234 13.9779844,0.796895065 11.9984531,0.798718442 C10.0149375,0.800588571 8.38771875,2.42937818 8.39910938,4.40157039 C8.41045313,6.37030286 10.0322813,7.98179377 12.0009375,7.98034442 L12.0009375,7.98034442 Z M18.7559531,17.147534 C18.7559531,15.9701003 18.8518594,14.8086094 18.7363125,13.6684379 C18.4837969,11.1768639 17.1462656,9.38654182 14.9219062,8.23921714 C14.5956094,8.07090545 14.3079844,8.01914961 14.0107969,8.27736779 C13.9424062,8.33683792 13.8487969,8.37054701 13.7626406,8.40603273 C12.4241719,8.95725351 11.1175312,8.90802234 9.8439375,8.20092623 C9.71714062,8.13051584 9.61040625,8.01162234 9.42225,8.09690026 C6.76884375,9.29962753 5.34567187,11.344147 5.21090625,14.2507496 C5.16796875,15.1760899 5.2025625,16.1049366 5.20265625,17.0321938 C5.20265625,17.0686613 5.21235937,17.1050821 5.21845312,17.147534 L18.7559531,17.147534 Z M24,14.0727132 C23.8838438,14.3044691 23.691,14.3653418 23.4409219,14.3634717 C22.2619688,14.3547756 21.0829219,14.3590301 19.9039219,14.3587029 C19.812,14.3586561 19.7200781,14.3587029 19.6090781,14.3587029 C19.6044375,14.4638977 19.5977344,14.5468847 19.5976406,14.6299652 C19.5968437,15.5567081 19.5977344,16.4834509 19.5967969,17.4101938 C19.5964219,17.8238197 19.4662969,17.952999 19.0499531,17.952999 C14.3495156,17.953373 9.64907812,17.953373 4.94864062,17.952999 C4.53332812,17.9529522 4.40353125,17.823399 4.40320312,17.4087444 C4.4023125,16.4047184 4.402875,15.4007392 4.402875,14.3586561 L4.1206875,14.3586561 C2.92603125,14.3586561 1.731375,14.353934 0.5368125,14.3624899 C0.291421875,14.3642665 0.11353125,14.2901158 0,14.0727132 L0,11.0805055 C0.12103125,10.5673418 0.198234375,10.0389834 0.37125,9.54396 C0.8818125,8.08296779 1.85601562,7.00549247 3.21942187,6.27436519 C3.28120312,6.2412639 3.34373437,6.20956519 3.40565625,6.17660416 C3.41929687,6.1693574 3.431625,6.15958597 3.42496875,6.16398078 C3.202125,5.81983013 2.94267187,5.4946613 2.764125,5.12998597 C2.06704687,3.70620935 2.397375,2.02879636 3.55828125,0.958474286 C4.71735937,-0.110211429 6.42323437,-0.302273766 7.79615625,0.481310649 C8.03826562,0.619466494 8.12001562,0.837102857 8.00817187,1.0457626 C7.8984375,1.25044831 7.68309375,1.28738338 7.41885937,1.19135221 C7.03364062,1.05127948 6.64673437,0.874178182 6.24660937,0.824198961 C4.82939062,0.647097662 3.45890625,1.71367948 3.23995312,3.11819377 C3.00595312,4.61920675 3.96684375,6.05079117 5.42404687,6.30311844 C5.83598437,6.3744639 6.27426562,6.31419896 6.69853125,6.28586649 C6.8784375,6.27385091 7.04170312,6.25337299 7.17445312,6.39512883 C7.39129687,6.62665091 7.2616875,6.97388727 6.9264375,7.05621974 C6.06154687,7.26871325 5.22285937,7.20667169 4.42429687,6.79613143 C4.28601562,6.72501974 4.17075,6.71973662 4.029,6.78313403 C2.01515625,7.68402234 0.9339375,9.23314442 0.810703125,11.4279288 C0.771515625,12.1258613 0.804609375,12.8278613 0.804609375,13.5448223 L4.4353125,13.5448223 C4.82779687,10.7459392 6.3024375,8.72942494 8.84775,7.45829766 C7.8193125,6.32588727 7.39528125,5.00940935 7.69504687,3.50185091 C7.89796875,2.48127429 8.419125,1.62999117 9.23728125,0.982084675 C10.9609219,-0.382876364 13.3373906,-0.290678961 14.9385937,1.11823013 C16.3979531,2.40235481 17.2084219,5.26510286 15.1658438,7.46058857 C17.6923594,8.72152364 19.1558906,10.7472483 19.5635156,13.5487496 L23.2020937,13.5487496 C23.1698906,12.120999 23.368125,10.6846925 22.6962656,9.34203273 C22.095375,8.14098857 21.1892344,7.27390286 19.9384219,6.77518597 C19.845375,6.73811065 19.7042812,6.74362753 19.6144688,6.78780935 C18.8115,7.18259377 17.9802187,7.2774561 17.1114375,7.06337299 C16.8245625,6.99263532 16.6836094,6.81450545 16.7339531,6.57157558 C16.7822813,6.3384639 16.9966875,6.22896779 17.2863281,6.28951325 C18.858375,6.61809506 20.241375,5.83184571 20.6859375,4.35687429 C21.0002813,3.31380935 20.6526562,2.14380935 19.7860781,1.45027169 C18.8669062,0.714609351 17.8544531,0.604365195 16.7783437,1.08433403 C16.6788281,1.12874961 16.5840938,1.18490026 16.4822344,1.22244312 C16.2791719,1.29724831 16.0782187,1.21860935 15.98625,1.03762753 C15.8936719,0.855617143 15.9370781,0.631996364 16.1341875,0.531056104 C16.4376094,0.375741818 16.7501719,0.219305455 17.0772656,0.132017143 C18.5515312,-0.261317922 20.0311875,0.277747013 20.926125,1.50754442 C21.7928437,2.69858338 21.8275781,4.27800156 21.006375,5.5450613 C20.8717969,5.75273922 20.704875,5.93956519 20.5687969,6.11554442 C20.9958281,6.40597558 21.4503281,6.66578338 21.8475938,6.9944587 C23.0672813,8.00344052 23.7607031,9.30986649 23.9559844,10.8789522 C23.9644219,10.9469314 23.9850469,11.0133678 24,11.0805055 L24,14.0727132 Z" id="Fill-1" fill="#FFFFFF" mask="url(#mask-2)"></path>
            </g>
            <path d="M12.0009375,8.02438597 C10.0322813,8.02583532 8.41045313,6.41434442 8.39910938,4.44561195 C8.38771875,2.47341974 10.0149375,0.84463013 11.9984531,0.84276 C13.9779844,0.840936623 15.6112969,2.4720639 15.6024844,4.44210545 C15.5937656,6.40663013 13.9687031,8.02298338 12.0009375,8.02438597" id="Fill-4"></path>
        </g>
    </g>
</svg>