<?xml version="1.0" encoding="UTF-8"?>
<svg width="24px" height="24px" viewBox="0 0 24 24" version="1.1" xmlns="http://www.w3.org/2000/svg" xmlns:xlink="http://www.w3.org/1999/xlink">
    <!-- Generator: Sketch 53.2 (72643) - https://sketchapp.com -->
    <title>icon/small/settings</title>
    <desc>Created with Sketch.</desc>
    <g id="icon/small/settings" stroke="none" stroke-width="1" fill="none" fill-rule="evenodd">
        <g id="settings" transform="translate(1.000000, 1.000000)" fill="#5C5C5C" fill-rule="nonzero" stroke="#5C5C5C" stroke-width="1.2">
            <path d="M20.8674074,8.55555556 L18.8091852,8.55555556 C18.4783704,8.55555556 18.2058148,8.37344444 18.0791111,8.06788889 C17.9524074,7.76233333 18.0167778,7.44048148 18.2502222,7.20662963 L19.7054815,5.75177778 C19.9193704,5.53788889 20.0371111,5.25311111 20.0371111,4.95081481 C20.0371111,4.64811111 19.9193704,4.36374074 19.7054815,4.14944444 L17.8505556,2.29451852 C17.4227778,1.86674074 16.6768148,1.86592593 16.2482222,2.29451852 L14.7933704,3.74937037 C14.5595185,3.98281481 14.2368519,4.048 13.9321111,3.92088889 C13.6265556,3.79418519 13.4444444,3.52162963 13.4444444,3.19081481 L13.4444444,1.13259259 C13.4444444,0.508037037 12.9364074,0 12.3118519,0 L9.68814815,0 C9.06359259,0 8.55555556,0.508037037 8.55555556,1.13259259 L8.55555556,3.19081481 C8.55555556,3.52162963 8.37344444,3.79418519 8.06788889,3.92088889 C7.76314815,4.04840741 7.44048148,3.98281481 7.20662963,3.74937037 L5.75177778,2.29451852 C5.32318519,1.86592593 4.57722222,1.86674074 4.14944444,2.29451852 L2.29451852,4.14944444 C2.08062963,4.36333333 1.96288889,4.64811111 1.96288889,4.95081481 C1.96288889,5.25311111 2.08062963,5.53748148 2.29451852,5.75177778 L3.74977778,7.20662963 C3.98322222,7.44048148 4.04718519,7.76233333 3.92088889,8.06788889 C3.79459259,8.37344444 3.52162963,8.55555556 3.19081481,8.55555556 L1.13259259,8.55555556 C0.508037037,8.55555556 0,9.06359259 0,9.68814815 L0,12.3114444 C0,12.9364074 0.508037037,13.4444444 1.13259259,13.4444444 L3.19081481,13.4444444 C3.52162963,13.4444444 3.79418519,13.6265556 3.92088889,13.9321111 C4.04759259,14.2376667 3.98322222,14.5595185 3.74977778,14.7933704 L2.29451852,16.2482222 C2.08062963,16.4621111 1.96288889,16.7468889 1.96288889,17.0491852 C1.96288889,17.3518889 2.08062963,17.6362593 2.29451852,17.8505556 L4.14944444,19.7054815 C4.57762963,20.1336667 5.32318519,20.1344815 5.75177778,19.7054815 L7.20662963,18.2502222 C7.44048148,18.0167778 7.76192593,17.9524074 8.06788889,18.0791111 C8.37344444,18.2058148 8.55555556,18.4783704 8.55555556,18.8091852 L8.55555556,20.8674074 C8.55555556,21.491963 9.06359259,22 9.68814815,22 L12.3114444,22 C12.936,22 13.444037,21.491963 13.444037,20.8674074 L13.444037,18.8091852 C13.444037,18.4783704 13.6261481,18.2058148 13.9317037,18.0791111 C14.2376667,17.952 14.5591111,18.0167778 14.792963,18.2502222 L16.2478148,19.7054815 C16.6764074,20.1340741 17.4223704,20.1332593 17.8501481,19.7054815 L19.7050741,17.8505556 C19.918963,17.6366667 20.0367037,17.3518889 20.0367037,17.0491852 C20.0367037,16.7468889 19.918963,16.4625185 19.7050741,16.2482222 L18.2498148,14.7933704 C18.0163704,14.5595185 17.9524074,14.2376667 18.0787037,13.9321111 C18.205,13.6265556 18.4783704,13.4444444 18.8091852,13.4444444 L20.8674074,13.4444444 C21.491963,13.4444444 22,12.9364074 22,12.3118519 L22,9.68814815 C22,9.06359259 21.491963,8.55555556 20.8674074,8.55555556 Z M21.1851852,12.3118519 C21.1851852,12.487037 21.0425926,12.6296296 20.8674074,12.6296296 L18.8091852,12.6296296 C18.1475556,12.6296296 17.5792222,13.0093333 17.3262222,13.6204444 C17.0728148,14.2315556 17.206037,14.9021481 17.6741481,15.3698519 L19.1294074,16.8247037 C19.2536667,16.948963 19.2536667,17.1506296 19.1294074,17.2744815 L17.2744815,19.1294074 C17.1506296,19.2532593 16.948963,19.2540741 16.8247037,19.1294074 L15.3698519,17.6741481 C14.9017407,17.206037 14.2315556,17.0736296 13.6204444,17.3262222 C13.0093333,17.5792222 12.6296296,18.1475556 12.6296296,18.8091852 L12.6296296,20.8674074 C12.6296296,21.0425926 12.487037,21.1851852 12.3118519,21.1851852 L9.68814815,21.1851852 C9.51296296,21.1851852 9.37037037,21.0425926 9.37037037,20.8674074 L9.37037037,18.8091852 C9.37037037,18.1475556 8.99066667,17.5792222 8.37955556,17.3262222 C8.17462963,17.2410741 7.96359259,17.1995185 7.755,17.1995185 C7.34188889,17.1995185 6.94140741,17.3624815 6.63014815,17.6737407 L5.1752963,19.129 C5.05062963,19.2536667 4.84896296,19.2528519 4.72551852,19.129 L2.87059259,17.2740741 C2.74633333,17.1498148 2.74633333,16.9481481 2.87059259,16.8242963 L4.32585185,15.3694444 C4.79355556,14.9017407 4.92718519,14.2311481 4.67377778,13.620037 C4.42077778,13.0093333 3.85244444,12.6296296 3.19081481,12.6296296 L1.13259259,12.6296296 C0.957407407,12.6296296 0.814814815,12.487037 0.814814815,12.3118519 L0.814814815,9.68814815 C0.814814815,9.51296296 0.957407407,9.37037037 1.13259259,9.37037037 L3.19081481,9.37037037 C3.85244444,9.37037037 4.42077778,8.99066667 4.67377778,8.37955556 C4.92718519,7.76844444 4.79396296,7.09785185 4.32585185,6.63014815 L2.87059259,5.1752963 C2.74633333,5.05103704 2.74633333,4.84937037 2.87059259,4.72551852 L4.72551852,2.87059259 C4.84937037,2.74633333 5.05103704,2.74633333 5.1752963,2.87059259 L6.63014815,4.32544444 C7.09744444,4.79274074 7.76762963,4.92677778 8.37955556,4.67337037 C8.99066667,4.42077778 9.37037037,3.85244444 9.37037037,3.19081481 L9.37037037,1.13259259 C9.37037037,0.957407407 9.51296296,0.814814815 9.68814815,0.814814815 L12.3114444,0.814814815 C12.487037,0.814814815 12.6296296,0.957407407 12.6296296,1.13259259 L12.6296296,3.19081481 C12.6296296,3.85244444 13.0093333,4.42077778 13.6204444,4.67377778 C14.2323704,4.92718519 14.9021481,4.79355556 15.3698519,4.32585185 L16.8247037,2.871 C16.9493704,2.74674074 17.151037,2.74674074 17.2744815,2.871 L19.1294074,4.72592593 C19.2536667,4.85018519 19.2536667,5.05185185 19.1294074,5.1757037 L17.6741481,6.63055556 C17.2064444,7.09825926 17.0728148,7.76885185 17.3262222,8.37996296 C17.5792222,8.99107407 18.1475556,9.37077778 18.8091852,9.37077778 L20.8674074,9.37077778 C21.0425926,9.37037037 21.1851852,9.51296296 21.1851852,9.68814815 L21.1851852,12.3118519 Z" id="Shape"></path>
            <path d="M11,7.5 C9.06994444,7.5 7.5,9.06994444 7.5,11 C7.5,12.9300556 9.06994444,14.5 11,14.5 C12.9300556,14.5 14.5,12.9300556 14.5,11 C14.5,9.06994444 12.9300556,7.5 11,7.5 Z M11,13.7222222 C9.49927778,13.7222222 8.27777778,12.5007222 8.27777778,11 C8.27777778,9.49927778 9.49927778,8.27777778 11,8.27777778 C12.5007222,8.27777778 13.7222222,9.49927778 13.7222222,11 C13.7222222,12.5007222 12.5007222,13.7222222 11,13.7222222 Z" id="Shape"></path>
        </g>
    </g>
</svg>