<?xml version="1.0" encoding="UTF-8"?>
<svg width="85px" height="85px" viewBox="0 0 85 85" version="1.1" xmlns="http://www.w3.org/2000/svg" xmlns:xlink="http://www.w3.org/1999/xlink">
    <!-- Generator: Sketch 53.2 (72643) - https://sketchapp.com -->
    <title>icon/big/copy</title>
    <desc>Created with Sketch.</desc>
    <defs>
        <rect id="path-1" x="0" y="0" width="85" height="85"></rect>
    </defs>
    <g id="icon/big/copy" stroke="none" stroke-width="1" fill="none" fill-rule="evenodd">
        <mask id="mask-2" fill="white">
            <use xlink:href="#path-1"></use>
        </mask>
        <g id="Background"></g>
        <g id="Group" mask="url(#mask-2)" fill-rule="nonzero">
            <g transform="translate(7.000000, -1.000000)">
                <path d="M56.1,12.3 L5.6,12.3 C3.8,12.3 2.3,13.8 2.3,15.6 L2.3,80 C2.3,81.8 3.8,83.3 5.6,83.3 L56.1,83.3 C57.9,83.3 59.4,81.8 59.4,80 L59.4,15.6 C59.4,13.8 57.9,12.3 56.1,12.3 Z" id="Path" fill="#61BACA"></path>
                <path d="M27.6,1.7 L66.8,1.7 C68.6,1.7 70.1,3.2 70.1,5 L70.1,69.4 C70.1,71.2 68.6,72.7 66.8,72.7 L16.3,72.7 C14.5,72.7 13,71.2 13,69.4 L13,16.3 L27.6,1.7 Z" id="Path" fill="#FFFFFF"></path>
                <rect id="Rectangle" fill="#61BACA" x="23.7" y="12.3" width="35.7" height="12"></rect>
                <path d="M12.9,16.3 L22.9,16.3 C25.4,16.3 27.5,14.3 27.5,11.7 L27.5,1.7 L12.9,16.3 Z" id="Path" fill="#FFB531"></path>
                <rect id="Rectangle" fill="#EFD516" x="43.2" y="36.2" width="16.3" height="12"></rect>
                <path d="M66.7,0 L27.6,0 C27.6,0 27.6,0 27.6,0 C27.2,0 26.7,0.2 26.4,0.5 L11.8,15.1 C11.5,15.4 11.3,15.8 11.3,16.3 C11.3,16.3 11.3,16.3 11.3,16.3 L11.3,69.4 C11.3,72.1 13.5,74.4 16.3,74.4 L66.8,74.4 C69.5,74.4 71.8,72.2 71.8,69.4 L71.8,5 C71.7,2.2 69.5,0 66.7,0 Z M25.9,5.7 L25.9,11.7 C25.9,13.3 24.6,14.6 23,14.6 L17,14.6 L25.9,5.7 Z M68.4,69.4 C68.4,70.3 67.7,71.1 66.7,71.1 L16.3,71.1 C15.4,71.1 14.6,70.4 14.6,69.4 L14.6,17.9 L23,17.9 C26.4,17.9 29.2,15.1 29.2,11.7 L29.2,3.3 L66.7,3.3 C67.6,3.3 68.4,4 68.4,5 L68.4,69.4 Z" id="Shape" fill="#1E1713"></path>
                <path d="M12.7,81.7 L11,81.7 C10.1,81.7 9.3,82.4 9.3,83.4 C9.3,84.4 10.1,85 11,85 L12.7,85 C13.6,85 14.4,84.3 14.4,83.3 C14.4,82.3 13.6,81.7 12.7,81.7 Z" id="Path" fill="#1E1713"></path>
                <path d="M2.3,69 C3.2,69 4,68.3 4,67.3 L4,65.6 C4,64.7 3.3,63.9 2.3,63.9 C1.3,63.9 0.6,64.6 0.6,65.6 L0.6,67.3 C0.7,68.3 1.4,69 2.3,69 Z" id="Path" fill="#1E1713"></path>
                <path d="M4,75.7 L4,74 C4,73.1 3.3,72.3 2.3,72.3 C1.3,72.3 0.7,73.1 0.7,74 L0.7,75.7 C0.7,76.6 1.4,77.4 2.4,77.4 C3.4,77.4 4,76.6 4,75.7 Z" id="Path" fill="#1E1713"></path>
                <path d="M21,81.7 L19.3,81.7 C18.4,81.7 17.6,82.4 17.6,83.4 C17.6,84.4 18.3,85.1 19.3,85.1 L21,85.1 C21.9,85.1 22.7,84.4 22.7,83.4 C22.7,82.4 21.9,81.7 21,81.7 Z" id="Path" fill="#1E1713"></path>
                <path d="M5,81.6 C4.7,81.5 4.5,81.3 4.3,81.1 C3.7,80.4 2.7,80.3 2,80.9 C1.3,81.5 1.2,82.5 1.8,83.2 C2.3,83.8 3,84.3 3.8,84.6 C4,84.7 4.2,84.7 4.4,84.7 C5.1,84.7 5.7,84.3 5.9,83.6 C6.3,82.9 5.9,81.9 5,81.6 Z" id="Path" fill="#1E1713"></path>
                <path d="M2.3,27.5 C3.2,27.5 4,26.8 4,25.8 L4,24.1 C4,23.2 3.3,22.4 2.3,22.4 C1.3,22.4 0.6,23.1 0.6,24.1 L0.6,25.8 C0.7,26.8 1.4,27.5 2.3,27.5 Z" id="Path" fill="#1E1713"></path>
                <path d="M2.3,19.2 C3.2,19.2 4,18.5 4,17.5 L4,15.8 C4,14.9 3.3,14.1 2.3,14.1 C1.3,14.1 0.7,15 0.7,15.9 L0.7,17.6 C0.7,18.5 1.4,19.2 2.3,19.2 Z" id="Path" fill="#1E1713"></path>
                <path d="M2.3,35.8 C3.2,35.8 4,35.1 4,34.1 L4,32.4 C4,31.5 3.3,30.7 2.3,30.7 C1.3,30.7 0.6,31.4 0.6,32.4 L0.6,34.1 C0.7,35.1 1.4,35.8 2.3,35.8 Z" id="Path" fill="#1E1713"></path>
                <path d="M2.3,60.7 C3.2,60.7 4,60 4,59 L4,57.3 C4,56.4 3.3,55.6 2.3,55.6 C1.3,55.6 0.6,56.3 0.6,57.3 L0.6,59 C0.7,60 1.4,60.7 2.3,60.7 Z" id="Path" fill="#1E1713"></path>
                <path d="M2.3,44.1 C3.2,44.1 4,43.4 4,42.4 L4,40.7 C4,39.8 3.3,39 2.3,39 C1.3,39 0.6,39.7 0.6,40.7 L0.6,42.4 C0.7,43.4 1.4,44.1 2.3,44.1 Z" id="Path" fill="#1E1713"></path>
                <path d="M2.3,52.4 C3.2,52.4 4,51.7 4,50.7 L4,49 C4,48.1 3.3,47.3 2.3,47.3 C1.3,47.3 0.6,48 0.6,49 L0.6,50.7 C0.7,51.7 1.4,52.4 2.3,52.4 Z" id="Path" fill="#1E1713"></path>
                <path d="M10.1,12.3 C10.1,11.4 9.4,10.6 8.4,10.6 L6.7,10.6 C5.8,10.6 5,11.3 5,12.3 C5,13.3 5.7,14 6.7,14 L8.4,14 C9.3,13.9 10.1,13.2 10.1,12.3 Z" id="Path" fill="#1E1713"></path>
                <path d="M54.2,81.7 L52.5,81.7 C51.6,81.7 50.8,82.4 50.8,83.4 C50.8,84.4 51.5,85.1 52.5,85.1 L54.2,85.1 C55.1,85.1 55.9,84.4 55.9,83.4 C55.9,82.4 55.1,81.7 54.2,81.7 Z" id="Path" fill="#1E1713"></path>
                <path d="M29.3,81.7 L27.6,81.7 C26.7,81.7 25.9,82.4 25.9,83.4 C25.9,84.4 26.6,85.1 27.6,85.1 L29.3,85.1 C30.2,85.1 31,84.4 31,83.4 C31,82.4 30.2,81.7 29.3,81.7 Z" id="Path" fill="#1E1713"></path>
                <path d="M59.4,77.2 C58.5,77.2 57.7,77.9 57.7,78.9 L57.7,80 C57.7,80.1 57.7,80.2 57.7,80.2 C57.6,81.1 58.2,82 59.1,82.1 C59.2,82.1 59.3,82.1 59.3,82.1 C60.1,82.1 60.8,81.5 60.9,80.7 C60.9,80.5 61,80.2 61,80 L61,78.8 C61.1,77.9 60.3,77.2 59.4,77.2 Z" id="Path" fill="#1E1713"></path>
                <path d="M45.9,81.7 L44.2,81.7 C43.3,81.7 42.5,82.4 42.5,83.4 C42.5,84.4 43.2,85.1 44.2,85.1 L45.9,85.1 C46.8,85.1 47.6,84.4 47.6,83.4 C47.6,82.4 46.8,81.7 45.9,81.7 Z" id="Path" fill="#1E1713"></path>
                <path d="M37.6,81.7 L35.9,81.7 C35,81.7 34.2,82.4 34.2,83.4 C34.2,84.4 35,85 35.9,85 L37.6,85 C38.5,85 39.3,84.3 39.3,83.3 C39.3,82.3 38.5,81.7 37.6,81.7 Z" id="Path" fill="#1E1713"></path>
                <path d="M23.7,37.9 L35.7,37.9 C36.6,37.9 37.4,37.2 37.4,36.2 C37.4,35.2 36.7,34.5 35.7,34.5 L23.7,34.5 C22.8,34.5 22,35.2 22,36.2 C22,37.2 22.8,37.9 23.7,37.9 Z" id="Path" fill="#1E1713"></path>
                <path d="M51.3,58.4 L23.7,58.4 C22.8,58.4 22,59.1 22,60.1 C22,61.1 22.7,61.8 23.7,61.8 L51.3,61.8 C52.2,61.8 53,61.1 53,60.1 C53,59.1 52.2,58.4 51.3,58.4 Z" id="Path" fill="#1E1713"></path>
                <path d="M59,58.4 C58.6,58.4 58.1,58.6 57.8,58.9 C57.5,59.2 57.3,59.6 57.3,60.1 C57.3,60.6 57.5,61 57.8,61.3 C58.1,61.6 58.5,61.8 59,61.8 C59.5,61.8 59.9,61.6 60.2,61.3 C60.5,61 60.7,60.6 60.7,60.1 C60.7,59.6 60.5,59.2 60.2,58.9 C59.8,58.6 59.4,58.4 59,58.4 Z" id="Path" fill="#1E1713"></path>
                <path d="M23.7,49.8 L35.7,49.8 C36.6,49.8 37.4,49.1 37.4,48.1 C37.4,47.1 36.7,46.4 35.7,46.4 L23.7,46.4 C22.8,46.4 22,47.1 22,48.1 C22,49.1 22.8,49.8 23.7,49.8 Z" id="Path" fill="#1E1713"></path>
                <path d="M59.4,10.6 L34.4,10.6 C33.5,10.6 32.7,11.3 32.7,12.3 C32.7,13.3 33.4,14 34.4,14 L57.8,14 L57.8,22.6 L23.7,22.6 C22.8,22.6 22,23.3 22,24.3 C22,25.3 22.7,26 23.7,26 L59.4,26 C60.3,26 61.1,25.3 61.1,24.3 L61.1,12.3 C61.1,11.4 60.3,10.6 59.4,10.6 Z" id="Path" fill="#1E1713"></path>
                <path d="M59.4,34.5 L43.2,34.5 C42.3,34.5 41.5,35.2 41.5,36.2 L41.5,48.2 C41.5,49.1 42.2,49.9 43.2,49.9 L59.5,49.9 C60.4,49.9 61.2,49.2 61.2,48.2 L61.2,36.2 C61.1,35.3 60.3,34.5 59.4,34.5 Z M57.8,46.5 L44.8,46.5 L44.8,37.9 L57.7,37.9 L57.7,46.5 L57.8,46.5 Z" id="Shape" fill="#1E1713"></path>
            </g>
        </g>
    </g>
</svg>