<?xml version="1.0" encoding="UTF-8"?>
<svg width="85px" height="85px" viewBox="0 0 85 85" version="1.1" xmlns="http://www.w3.org/2000/svg" xmlns:xlink="http://www.w3.org/1999/xlink">
    <!-- Generator: Sketch 53.2 (72643) - https://sketchapp.com -->
    <title>icon/big/pen</title>
    <desc>Created with Sketch.</desc>
    <g id="icon/big/pen" stroke="none" stroke-width="1" fill="none" fill-rule="evenodd">
        <polygon id="Path" fill="#61BACA" fill-rule="nonzero" points="25 65 15.6666667 69 13 69 13 66.3333333 17 57"></polygon>
        <polygon id="Path" fill="#EFD516" fill-rule="nonzero" points="17 66.5 11 75.5 5 77 6.5 71 15.5 65 15.5 66.5"></polygon>
        <path d="M76.2777507,12.8746745 C76.7497559,13.4721408 77,14.1943903 77,14.9444444 C77,15.8335233 76.6527778,16.6805556 76.0139431,17.3193903 L60.3333333,33 L52,24.6666667 L67.6806097,8.98605694 C68.3194444,8.34722222 69.1664767,8 70.0555556,8 C70.8056097,8 71.5278592,8.2502441 72.1246474,8.72089306 C72.235867,8.80566406 72.3321668,8.8877224 72.4305014,8.98605694 L76.0139431,12.5694986 C76.1109212,12.6664767 76.1943359,12.764133 76.2777507,12.8746745 Z" id="Path" fill="#61BACA" fill-rule="nonzero"></path>
        <polygon id="Path" fill="#61BACA" fill-rule="nonzero" points="22 53.5559373 51.5554028 24 60 32.4440627 30.4445972 62"></polygon>
        <polygon id="Path" fill="#CC9933" fill-rule="nonzero" points="18 56.000651 22.000651 52 30 60 26 64"></polygon>
        <path d="M59.1543856,3.84561443 C59.6724077,4.36363636 60,5.10005318 60,5.89106898 C60,6.65478511 59.699707,7.39053614 59.1543856,7.93652352 L34.9365235,32.1543856 C34.3905361,32.699707 33.6547851,33 32.891069,33 C32.1000532,33 31.3636364,32.6724077 30.8456144,32.1543856 C30.3269265,31.6363636 30,30.8999468 30,30.108931 C30,29.3452149 30.299627,28.6087979 30.8456144,28.0634765 L55.0634765,3.84561443 C55.6087979,3.29962705 56.3452149,3 57.108931,3 C57.8999468,3 58.6363636,3.32692653 59.1543856,3.84561443 Z" id="Path" fill="#C0F5FF" fill-rule="nonzero"></path>
        <path d="M80,7.19583875 L75.2065535,11.9895969 L75.1852285,12 C75.1202132,11.9152145 75.0572784,11.8413524 74.9829009,11.7659297 L72.2345752,9.01742529 C72.1601976,8.94304295 72.0853,8.87906372 72,8.81404425 L72.0109225,8.79375813 L76.804369,4 L80,7.19583875 Z" id="Path" fill="#CC9933" fill-rule="nonzero"></path>
        <path d="M79.516129,63.2100388 C76.4916991,63.2100388 74.0322581,65.6531636 74.0322581,68.6575291 L76.7741935,68.6575291 C76.7741935,67.1553464 78.0039141,65.933784 79.516129,65.933784 C81.028344,65.933784 82.2580645,67.1553464 82.2580645,68.6575291 C82.2580645,70.1597118 81.028344,71.3812743 79.516129,71.3812743 L45.2419355,71.3812743 C42.9746172,71.3812743 41.1290323,73.2139504 41.1290323,75.466892 C41.1290323,77.7191686 42.9746172,79.5525097 45.2419355,79.5525097 L53.4677419,79.5525097 C54.2228453,79.5525097 54.8387097,80.1622934 54.8387097,80.9143823 C54.8387097,81.665806 54.2228453,82.2762549 53.4677419,82.2762549 L3.30960181,82.2762549 C2.99698364,82.2762549 2.74193548,82.0228987 2.74193548,81.7123545 C2.74193548,81.5640646 2.802183,81.4184348 2.90795111,81.3133684 L4.81311438,79.4201793 L10.4429183,78.0217329 L15.8143271,70.0194017 L16.7327684,70.0194017 L26.8309365,65.7209914 L75.4045646,17.4702716 C76.2875267,16.5905072 76.7741935,15.4234728 76.7741935,14.1826261 C76.7741935,13.554888 76.648343,12.9457692 76.4106996,12.3831989 L82.8257308,6.01139066 L76.7741935,0 L70.3390799,6.39242235 C68.6387585,5.72545053 66.5642326,6.05328425 65.2387853,7.37326324 L63.0645161,9.53310802 L60.8447266,7.32804481 C61.3822691,6.60255503 61.6935484,5.72013072 61.6935484,4.81443234 C61.6935484,2.47038901 59.7743274,0.563900363 57.4146295,0.563900363 C56.2879993,0.563900363 55.1854682,1.01741448 54.3888609,1.80873701 L30.0434728,25.9926148 C29.2468655,26.7826073 28.7903226,27.8791541 28.7903226,28.9983102 C28.7903226,31.3423535 30.7095436,33.2488422 33.0692414,33.2488422 C34.1958717,33.2488422 35.2984028,32.795328 36.0950101,32.0040055 L52.0967742,16.108399 L54.2710433,18.2682438 L16.8532636,55.4377895 L16.666496,55.6226531 L12.3387097,65.6544937 L12.3387097,66.5668419 L4.28293544,71.9026161 L2.87514968,77.4944063 L0.969317036,79.3875954 C0.353452621,79.9993741 0,80.8458896 0,81.7123545 C0,83.5250814 1.48476869,85 3.30960181,85 L53.4677419,85 C55.7350602,85 57.5806452,83.1666589 57.5806452,80.9143823 C57.5806452,78.6614407 55.7350602,76.8287646 53.4677419,76.8287646 L45.2419355,76.8287646 C44.4861628,76.8287646 43.8709677,76.2183157 43.8709677,75.466892 C43.8709677,74.7148031 44.4861628,74.1050194 45.2419355,74.1050194 L79.516129,74.1050194 C82.5405589,74.1050194 85,71.6618946 85,68.6575291 C85,65.6531636 82.5405589,63.2100388 79.516129,63.2100388 L79.516129,63.2100388 Z M28.2226563,60.4862937 L26.0483871,62.6461384 L19.7612147,56.4006759 L21.9354839,54.2408311 L28.2226563,60.4862937 Z M23.8741179,52.3150582 L50.7258065,25.6415071 L57.0129788,31.8869696 L30.1612903,58.5605207 L23.8741179,52.3150582 Z M78.9484627,6.01139066 L74.7177419,10.2140443 L72.5434728,8.05419952 L76.7741935,3.85154588 L78.9484627,6.01139066 Z M67.1787581,9.29903617 C67.9064153,8.5742115 69.1870116,8.57155142 69.9193548,9.29903617 L73.4645917,12.8207535 C73.8307633,13.1844959 74.0322581,13.6679339 74.0322581,14.1826261 C74.0322581,14.6959882 73.8307633,15.1794264 73.4645917,15.5444987 L58.9516129,29.9611966 L52.6644405,23.7157341 L67.1787581,9.29903617 Z M34.156376,30.0782326 C33.8712041,30.3615126 33.4749087,30.525097 33.0692414,30.525097 C32.2217585,30.525097 31.5322581,29.8401708 31.5322581,28.9983102 C31.5322581,28.5966642 31.6969349,28.2029979 31.9821069,27.9183878 L56.327495,3.73450995 C56.6126669,3.4512299 57.0089622,3.28764551 57.4146295,3.28764551 C58.2621124,3.28764551 58.9516129,3.97257175 58.9516129,4.81443234 C58.9516129,5.21607836 58.786936,5.60974465 58.5017641,5.89435474 L34.156376,30.0782326 Z M54.0354083,14.1826261 L58.9516129,9.29903617 L61.1258821,11.458881 L56.2096774,16.3424709 L54.0354083,14.1826261 Z M15.0806452,66.2130742 L18.2844789,58.7852828 L23.6465159,64.1117474 L16.1704574,67.2956565 L15.0806452,67.2956565 L15.0806452,66.2130742 Z M6.68480649,73.5830126 L12.3387097,69.8398578 L12.3387097,70.0194017 L12.5194526,70.0194017 L8.75063004,75.6357962 L5.99798387,76.3193922 L6.68480649,73.5830126 Z" id="Shape" fill="#1E1713" fill-rule="nonzero"></path>
    </g>
</svg>