<?xml version="1.0" encoding="UTF-8"?>
<svg width="85px" height="85px" viewBox="0 0 85 85" version="1.1" xmlns="http://www.w3.org/2000/svg" xmlns:xlink="http://www.w3.org/1999/xlink">
    <!-- Generator: Sketch 53.2 (72643) - https://sketchapp.com -->
    <title>icon/big/time2</title>
    <desc>Created with Sketch.</desc>
    <g id="icon/big/time2" stroke="none" stroke-width="1" fill="none" fill-rule="evenodd">
        <g id="Group-3" transform="translate(17.000000, 3.000000)" fill-rule="nonzero">
            <path d="M34.0169528,31.3925926 C33.8243602,31.4888889 33.7280639,31.5851852 33.5354713,31.6814815 C31.7058417,32.6444444 29.9725084,33.6074074 28.1428787,34.5703704 C27.2762121,35.0518519 26.5058417,35.5333333 25.8317676,36.0148148 C25.2539899,35.7259259 24.7725084,35.3407407 24.1947306,35.0518519 C23.7132491,34.762963 23.2317676,34.4740741 22.7502862,34.1851852 C22.6539899,34.1851852 22.6539899,34.0888889 22.5576936,34.0888889 C21.9799158,33.8 21.4984343,33.5111111 20.9206565,33.2222222 C20.5354713,33.0296296 20.0539899,32.7407407 19.6688047,32.5481481 C18.9947306,32.162963 18.2243602,31.7777778 17.5502862,31.4888889 L34.0169528,31.3925926 L34.0169528,31.3925926 Z" id="Path" fill="#FCF7D3"></path>
            <path d="M49.3280639,3.75555556 C49.3280639,4.52592593 48.7502862,5.00740741 47.6910269,5.00740741 L12.8317676,5.00740741 C11.5799158,5.00740741 11.002138,5.39259259 11.002138,6.16296296 C11.002138,6.93333333 11.5799158,7.31851852 12.7354713,7.31851852 C23.3280639,7.31851852 33.9206565,7.31851852 44.5132491,7.31851852 L45.4762121,7.31851852 C45.4762121,7.51111111 45.5725084,7.60740741 45.5725084,7.7037037 C45.5725084,11.8444444 45.5725084,16.0814815 45.4762121,20.2222222 C45.4762121,21.0888889 45.0910269,21.9555556 44.8984343,22.7259259 C44.8984343,22.7259259 44.4169528,23.8814815 43.9354713,24.6518519 C43.4539899,25.4222222 42.6836195,26.1925926 42.5873232,26.2888889 C41.6243602,26.962963 40.6613973,27.7333333 39.602138,28.3111111 C37.7725084,29.3703704 35.8465825,30.3333333 34.0169528,31.2962963 L17.6465825,31.2962963 C16.0095454,30.4296296 14.2762121,29.562963 12.639175,28.6 C11.4836195,27.9259259 10.4243602,27.2518519 9.36510097,26.4814815 C9.07621208,26.2888889 8.88361949,26.1925926 8.5947306,25.9037037 C8.30584171,25.7111111 7.15028615,24.0740741 6.57250838,22.3407407 C6.37991578,21.5703704 6.09102689,20.4148148 6.09102689,19.4518519 C5.9947306,15.5037037 6.09102689,11.5555556 6.09102689,7.7037037 C6.09102689,7.60740741 6.09102689,7.41481481 6.09102689,7.22222222 C6.57250838,7.22222222 6.95769356,7.22222222 7.34287875,7.22222222 C8.11324912,7.22222222 8.4984343,6.74074074 8.4984343,6.06666667 C8.4984343,5.39259259 8.01695282,4.91111111 7.34287875,4.91111111 C6.18732319,4.91111111 5.12806393,4.91111111 3.97250838,4.91111111 C3.00954541,4.91111111 2.43176764,4.42962963 2.43176764,3.65925926 C2.43176764,2.88888889 3.00954541,2.31111111 3.97250838,2.31111111 L47.8836195,2.31111111 C48.7502862,2.40740741 49.3280639,2.88888889 49.3280639,3.75555556 Z" id="Path" fill="#FCF7D3"></path>
            <g id="pCR7CK_2_" transform="translate(2.239175, 1.925926)">
                <g id="Group">
                    <path d="M31.7777778,29.4666667 C31.5851852,29.562963 31.4888889,29.6592593 31.2962963,29.7555556 C29.4666667,30.7185185 27.7333333,31.6814815 25.9037037,32.6444444 C25.037037,33.1259259 24.2666667,33.6074074 23.5925926,34.0888889 C23.0148148,33.8 22.5333333,33.4148148 21.9555556,33.1259259 C21.4740741,32.837037 20.9925926,32.5481481 20.5111111,32.2592593 C20.4148148,32.2592593 20.4148148,32.162963 20.3185185,32.162963 C19.7407407,31.8740741 19.2592593,31.5851852 18.6814815,31.2962963 C18.2962963,31.1037037 17.8148148,30.8148148 17.4296296,30.6222222 C16.7555556,30.237037 15.9851852,29.8518519 15.3111111,29.562963 L31.7777778,29.4666667 L31.7777778,29.4666667 Z" id="Path" fill="#FFB531"></path>
                    <path d="M47.0888889,1.82962963 C47.0888889,2.6 46.5111111,3.08148148 45.4518519,3.08148148 L10.5925926,3.08148148 C10.4,3.08148148 10.3037037,3.08148148 10.2074074,3.08148148 C10.1111111,3.08148148 10.0148148,3.08148148 9.91851852,3.08148148 L9.91851852,3.08148148 C9.82222222,3.08148148 9.72592593,3.08148148 9.72592593,3.17777778 L9.62962963,3.17777778 C9.43703704,3.27407407 9.34074074,3.37037037 9.24444444,3.46666667 C9.14814815,3.56296296 9.05185185,3.75555556 9.05185185,3.85185185 C9.05185185,3.94814815 9.05185185,3.94814815 9.05185185,4.04444444 C9.05185185,4.04444444 9.05185185,4.04444444 9.05185185,4.14074074 L6.35555556,4.14074074 C6.35555556,3.85185185 6.25925926,3.56296296 6.06666667,3.37037037 C6.06666667,3.37037037 5.97037037,3.27407407 5.87407407,3.27407407 C5.77777778,3.27407407 5.77777778,3.17777778 5.68148148,3.17777778 C5.58518519,3.08148148 5.39259259,3.08148148 5.2,3.08148148 C4.04444444,3.08148148 2.98518519,3.08148148 1.82962963,3.08148148 C0.866666667,3.08148148 0.288888889,2.6 0.288888889,1.82962963 C0.288888889,1.05925926 0.866666667,0.481481481 1.82962963,0.481481481 L45.7407407,0.481481481 C46.5111111,0.481481481 47.0888889,0.962962963 47.0888889,1.82962963 Z" id="Path" fill="#3DAABE"></path>
                    <path d="M43.4296296,58.162963 L43.4296296,69.8148148 C43.0444444,69.8148148 42.6592593,69.8148148 42.2740741,69.8148148 C41.4074074,69.8148148 40.9259259,70.2962963 40.9259259,70.9703704 L38.2296296,70.9703704 L38.2296296,70.9703704 C38.2296296,70.2962963 37.7481481,69.8148148 36.9777778,69.8148148 C35.1481481,69.8148148 33.3185185,69.8148148 31.3925926,69.8148148 C22.437037,69.8148148 13.3851852,69.8148148 4.42962963,69.8148148 L3.65925926,69.8148148 L3.65925926,60.762963 C3.65925926,59.8962963 3.65925926,59.1259259 3.65925926,58.6444444 L4.14074074,54.9851852 C4.71851852,52.5777778 6.16296296,50.6518519 8.37777778,49.4 C10.4962963,48.2444444 12.5185185,47.0888889 14.637037,46.0296296 L32.2592593,46.0296296 C34.0888889,46.9925926 35.9185185,47.9555556 37.7481481,48.9185185 C41.6,50.9407407 43.3333333,54.0222222 43.4296296,58.162963 Z" id="Path" fill="#FFB531"></path>
                    <path d="M47.0888889,73.3777778 C47.0888889,74.1481481 46.5111111,74.7259259 45.4518519,74.7259259 L1.73333333,74.7259259 C0.674074074,74.7259259 0,74.2444444 0,73.3777778 C0,72.6074074 0.577777778,72.1259259 1.34814815,72.1259259 C2.6,72.1259259 3.94814815,72.1259259 5.2,72.1259259 L36.8814815,72.1259259 C37.0740741,72.1259259 37.2666667,72.1259259 37.4592593,72.0296296 C37.6518519,71.9333333 37.7481481,71.9333333 37.8444444,71.837037 C37.8444444,71.7407407 37.9407407,71.7407407 37.9407407,71.6444444 L37.9407407,71.6444444 C37.9407407,71.5481481 38.037037,71.5481481 38.037037,71.4518519 C38.1333333,71.2592593 38.1333333,71.162963 38.1333333,70.9703704 L40.8296296,70.9703704 C40.8296296,71.162963 40.8296296,71.3555556 40.9259259,71.4518519 C41.0222222,71.5481481 41.0222222,71.7407407 41.2148148,71.837037 C41.3111111,71.9333333 41.5037037,72.0296296 41.6,72.0296296 C41.7925926,72.1259259 41.9851852,72.1259259 42.1777778,72.1259259 C43.237037,72.1259259 44.2962963,72.1259259 45.3555556,72.1259259 C46.5111111,72.1259259 47.0888889,72.6074074 47.0888889,73.3777778 Z" id="Path" fill="#3DAABE"></path>
                    <path d="M43.4296296,58.5481481 C43.4296296,58.9333333 43.4296296,59.6074074 43.4296296,60.2814815 L43.4296296,58.3555556 L43.4296296,58.5481481 Z M40.9259259,70.9703704 C40.9259259,71.162963 40.9259259,71.2592593 41.0222222,71.4518519 C41.0222222,71.2592593 40.9259259,71.0666667 40.9259259,70.9703704 Z M38.3259259,70.9703704 C38.3259259,71.162963 38.3259259,71.3555556 38.2296296,71.4518519 C38.2296296,71.2592593 38.3259259,71.162963 38.3259259,70.9703704 L38.3259259,70.9703704 C38.3259259,70.8740741 38.3259259,70.9703704 38.3259259,70.9703704 Z M5.87407407,3.37037037 C6.06666667,3.56296296 6.16296296,3.85185185 6.16296296,4.14074074 L6.16296296,4.14074074 C6.16296296,3.85185185 6.06666667,3.56296296 5.87407407,3.37037037 Z" id="Shape" fill="#000000"></path>
                </g>
            </g>
            <path d="M30.3576936,45.7407407 L21.2095454,45.7407407 C22.365101,45.162963 23.4243602,44.5851852 24.5799158,44.0074074 L25.7354713,43.3333333 L25.7354713,43.3333333 L25.7354713,43.3333333 L26.8910269,44.0074074 C27.565101,44.3925926 28.1428787,44.6814815 28.7206565,44.9703704 C29.2984343,45.162963 29.8762121,45.4518519 30.3576936,45.7407407 Z" id="Path" fill="#FCF7D3"></path>
            <path d="M48.7502862,71.7407407 C48.5576936,71.6444444 48.2688047,71.6444444 47.9799158,71.6444444 L47.9799158,70.8740741 C47.9799158,67.3111111 47.9799158,63.8444444 47.9799158,60.2814815 C47.9799158,59.5111111 47.9799158,58.6444444 47.7873232,57.8740741 C47.0169528,53.7333333 44.802138,50.7481481 41.1428787,48.8222222 C37.0984343,46.7037037 32.9576936,44.4888889 28.9132491,42.3703704 C27.7576936,41.7925926 26.9873232,40.9259259 26.9873232,39.5777778 C26.9873232,38.2296296 27.7576936,37.362963 28.9132491,36.7851852 C32.8613973,34.6666667 36.8095454,32.5481481 40.8539899,30.5259259 C45.6688047,28.0222222 48.0762121,24.0740741 48.0762121,18.6814815 C48.0762121,15.2148148 48.0762121,11.8444444 48.0762121,8.37777778 L48.0762121,7.31851852 C48.2688047,7.31851852 48.4613973,7.31851852 48.5576936,7.22222222 C50.2910269,6.93333333 51.5428787,5.68148148 51.7354713,3.85185185 C51.9280639,2.31111111 50.8688047,0.77037037 49.3280639,0.192592593 C49.2317676,0.192592593 49.039175,0.0962962963 48.9428787,0 L2.91324912,0 C2.72065652,0.0962962963 2.62436023,0.0962962963 2.43176764,0.192592593 C0.794730598,0.77037037 -0.168232365,2.31111111 0.0243602279,3.94814815 C0.216952821,5.58518519 1.46880467,6.83703704 3.10584171,7.12592593 C3.2984343,7.12592593 3.49102689,7.12592593 3.68361949,7.22222222 L3.68361949,8.28148148 C3.68361949,11.8444444 3.68361949,15.4074074 3.68361949,18.9703704 C3.68361949,22.0518519 4.74287875,24.8444444 6.76510097,27.2518519 C7.82436023,28.5037037 9.17250838,29.3703704 10.6169528,30.1407407 C14.6613973,32.2592593 18.802138,34.4740741 22.8465825,36.5925926 C24.0984343,37.2666667 24.7725084,38.2296296 24.6762121,39.6740741 C24.5799158,40.8296296 23.9058417,41.6 22.8465825,42.1777778 C18.802138,44.2962963 14.6613973,46.5111111 10.6169528,48.6296296 C6.09102689,51.037037 3.77991578,54.7925926 3.68361949,59.9925926 C3.68361949,63.5555556 3.68361949,67.2148148 3.68361949,70.7777778 L3.68361949,71.5481481 C0.794730598,71.7407407 -0.55341755,74.2444444 0.216952821,76.362963 C0.698434302,77.7111111 1.66139726,78.3851852 2.91324912,78.8666667 L48.8465825,78.8666667 C49.039175,78.7703704 49.2317676,78.6740741 49.4243602,78.6740741 C50.8688047,78.0962963 51.8317676,76.6518519 51.7354713,75.1111111 C51.5428787,73.4740741 50.3873232,72.1259259 48.7502862,71.7407407 Z M12.639175,28.6962963 C11.4836195,28.0222222 10.4243602,27.3481481 9.36510097,26.5777778 C9.07621208,26.3851852 8.88361949,26.2888889 8.5947306,26 C8.30584171,25.8074074 7.15028615,24.1703704 6.57250838,22.437037 C6.37991578,21.6666667 6.09102689,20.5111111 6.09102689,19.5481481 C5.9947306,15.6 6.09102689,11.6518519 6.09102689,7.8 C6.09102689,7.7037037 6.09102689,7.51111111 6.09102689,7.31851852 C6.57250838,7.31851852 6.95769356,7.31851852 7.34287875,7.31851852 C8.11324912,7.31851852 8.4984343,6.83703704 8.4984343,6.16296296 L8.4984343,6.06666667 L8.4984343,6.06666667 C8.4984343,5.77777778 8.40213801,5.48888889 8.20954541,5.2962963 C8.20954541,5.2962963 8.11324912,5.2 8.01695282,5.2 C7.92065652,5.2 7.92065652,5.1037037 7.82436023,5.1037037 C7.72806393,5.00740741 7.53547134,5.00740741 7.34287875,5.00740741 C6.18732319,5.00740741 5.12806393,5.00740741 3.97250838,5.00740741 C3.00954541,5.00740741 2.43176764,4.52592593 2.43176764,3.75555556 C2.43176764,2.98518519 3.00954541,2.40740741 3.97250838,2.40740741 L47.8836195,2.40740741 C48.8465825,2.40740741 49.5206565,2.98518519 49.5206565,3.75555556 C49.5206565,4.52592593 48.9428787,5.00740741 47.8836195,5.00740741 L12.8317676,5.00740741 C12.639175,5.00740741 12.5428787,5.00740741 12.4465825,5.00740741 C12.3502862,5.00740741 12.2539899,5.00740741 12.1576936,5.00740741 L12.1576936,5.00740741 C12.0613973,5.00740741 11.965101,5.00740741 11.965101,5.1037037 L11.8688047,5.1037037 C11.6762121,5.2 11.5799158,5.2962963 11.4836195,5.39259259 C11.3873232,5.48888889 11.2910269,5.68148148 11.2910269,5.77777778 C11.2910269,5.87407407 11.2910269,5.87407407 11.2910269,5.97037037 C11.2910269,5.97037037 11.2910269,5.97037037 11.2910269,6.06666667 L11.2910269,6.16296296 C11.2910269,6.93333333 11.8688047,7.31851852 13.0243602,7.31851852 C23.6169528,7.31851852 34.2095454,7.31851852 44.802138,7.31851852 L45.765101,7.31851852 C45.765101,7.51111111 45.8613973,7.60740741 45.8613973,7.7037037 C45.8613973,11.8444444 45.8613973,16.0814815 45.765101,20.2222222 C45.765101,21.0888889 45.3799158,21.9555556 45.1873232,22.7259259 C45.1873232,22.7259259 44.7058417,23.8814815 44.2243602,24.6518519 C43.7428787,25.4222222 42.9725084,26.1925926 42.8762121,26.2888889 C41.9132491,26.962963 40.9502862,27.7333333 39.8910269,28.3111111 C39.5058417,28.5037037 39.1206565,28.6962963 38.7354713,28.8888889 L13.1206565,28.8888889 C12.9280639,28.8888889 12.7354713,28.7925926 12.639175,28.6962963 Z M24.2910269,34.9555556 C23.8095454,34.6666667 23.3280639,34.3777778 22.8465825,34.0888889 C22.7502862,34.0888889 22.7502862,33.9925926 22.6539899,33.9925926 C22.0762121,33.7037037 21.5947306,33.4148148 21.0169528,33.1259259 C20.6317676,32.9333333 20.1502862,32.6444444 19.765101,32.4518519 C19.0910269,32.0666667 18.3206565,31.6814815 17.6465825,31.3925926 L34.0169528,31.3925926 C33.8243602,31.4888889 33.7280639,31.5851852 33.5354713,31.6814815 C31.7058417,32.6444444 29.9725084,33.6074074 28.1428787,34.5703704 C27.2762121,35.0518519 26.5058417,35.5333333 25.8317676,36.0148148 C25.3502862,35.6296296 24.7725084,35.3407407 24.2910269,34.9555556 Z M24.5799158,43.9111111 L25.7354713,43.237037 L25.7354713,43.237037 L25.7354713,43.237037 L26.8910269,43.9111111 C27.565101,44.2962963 28.1428787,44.5851852 28.7206565,44.8740741 C29.202138,45.162963 29.7799158,45.4518519 30.2613973,45.7407407 L21.1132491,45.7407407 C22.365101,45.0666667 23.4243602,44.4888889 24.5799158,43.9111111 Z M47.6910269,76.6518519 L3.97250838,76.6518519 C2.91324912,76.6518519 2.23917504,76.1703704 2.23917504,75.3037037 C2.23917504,74.5333333 2.81695282,74.0518519 3.58732319,74.0518519 C4.83917504,74.0518519 6.18732319,74.0518519 7.43917504,74.0518519 L39.1206565,74.0518519 C39.3132491,74.0518519 39.5058417,74.0518519 39.6984343,73.9555556 C39.8910269,73.8592593 39.9873232,73.8592593 40.0836195,73.762963 C40.0836195,73.6666667 40.1799158,73.6666667 40.1799158,73.5703704 L40.1799158,73.5703704 C40.1799158,73.4740741 40.2762121,73.4740741 40.2762121,73.3777778 C40.3725084,73.1851852 40.3725084,73.0888889 40.3725084,72.8962963 L40.3725084,72.8962963 C40.3725084,72.2222222 39.8910269,71.7407407 39.1206565,71.7407407 C37.2910269,71.7407407 35.4613973,71.7407407 33.5354713,71.7407407 C24.5799158,71.7407407 15.5280639,71.7407407 6.57250838,71.7407407 L5.80213801,71.7407407 L5.80213801,62.6888889 C5.80213801,61.8222222 5.80213801,61.0518519 5.80213801,60.5703704 L6.28361949,56.9111111 C6.86139726,54.5037037 8.30584171,52.5777778 10.5206565,51.3259259 C12.639175,50.1703704 14.6613973,49.0148148 16.7799158,47.9555556 L34.402138,47.9555556 C36.2317676,48.9185185 38.0613973,49.8814815 39.8910269,50.8444444 C43.5502862,52.7703704 45.3799158,55.8518519 45.3799158,59.9925926 L45.3799158,71.6444444 C44.9947306,71.6444444 44.6095454,71.6444444 44.2243602,71.6444444 C43.3576936,71.6444444 42.8762121,72.1259259 42.8762121,72.8 C42.8762121,72.9925926 42.8762121,73.1851852 42.9725084,73.2814815 C43.0688047,73.3777778 43.0688047,73.5703704 43.2613973,73.6666667 C43.3576936,73.762963 43.5502862,73.8592593 43.6465825,73.8592593 C43.839175,73.9555556 44.0317676,73.9555556 44.2243602,73.9555556 C45.2836195,73.9555556 46.3428787,73.9555556 47.402138,73.9555556 C48.4613973,73.9555556 49.039175,74.437037 49.039175,75.3037037 C49.3280639,76.1703704 48.7502862,76.6518519 47.6910269,76.6518519 Z" id="Shape" fill="#000000"></path>
        </g>
    </g>
</svg>