<?xml version="1.0" encoding="UTF-8"?>
<svg width="24px" height="24px" viewBox="0 0 24 24" version="1.1" xmlns="http://www.w3.org/2000/svg" xmlns:xlink="http://www.w3.org/1999/xlink">
    <!-- Generator: Sketch 53.2 (72643) - https://sketchapp.com -->
    <title>icon/menu/documentsOn</title>
    <desc>Created with Sketch.</desc>
    <g id="icon/menu/documentsOn" stroke="none" stroke-width="1" fill="none" fill-rule="evenodd">
        <g id="Group-2" transform="translate(3.000000, 0.000000)" fill="#CC9933" fill-rule="nonzero" stroke="#CC9933" stroke-width="0.6">
            <g id="Group">
                <path d="M14.3868313,8.44444444 L4.61316872,8.44444444 C4.39736626,8.44444444 4.22222222,8.68036111 4.22222222,8.97222222 C4.22222222,9.26408333 4.39736626,9.5 4.61316872,9.5 L14.3868313,9.5 C14.6026337,9.5 14.7777778,9.26408333 14.7777778,8.97222222 C14.7777778,8.68036111 14.6026337,8.44444444 14.3868313,8.44444444 Z" id="Path"></path>
                <path d="M4.66203704,6.33333333 L9.06018519,6.33333333 C9.30296296,6.33333333 9.5,6.09741667 9.5,5.80555556 C9.5,5.51369444 9.30296296,5.27777778 9.06018519,5.27777778 L4.66203704,5.27777778 C4.41925926,5.27777778 4.22222222,5.51369444 4.22222222,5.80555556 C4.22222222,6.09741667 4.41925926,6.33333333 4.66203704,6.33333333 Z" id="Path"></path>
                <path d="M14.3868313,11.6111111 L4.61316872,11.6111111 C4.39736626,11.6111111 4.22222222,11.8470278 4.22222222,12.1388889 C4.22222222,12.43075 4.39736626,12.6666667 4.61316872,12.6666667 L14.3868313,12.6666667 C14.6026337,12.6666667 14.7777778,12.43075 14.7777778,12.1388889 C14.7777778,11.8470278 14.6026337,11.6111111 14.3868313,11.6111111 Z" id="Path"></path>
                <path d="M14.3868313,14.7777778 L4.61316872,14.7777778 C4.39736626,14.7777778 4.22222222,15.0136944 4.22222222,15.3055556 C4.22222222,15.5974167 4.39736626,15.8333333 4.61316872,15.8333333 L14.3868313,15.8333333 C14.6026337,15.8333333 14.7777778,15.5974167 14.7777778,15.3055556 C14.7777778,15.0136944 14.6026337,14.7777778 14.3868313,14.7777778 Z" id="Path"></path>
                <path d="M14.3868313,17.9444444 L4.61316872,17.9444444 C4.39736626,17.9444444 4.22222222,18.1803611 4.22222222,18.4722222 C4.22222222,18.7640833 4.39736626,19 4.61316872,19 L14.3868313,19 C14.6026337,19 14.7777778,18.7640833 14.7777778,18.4722222 C14.7777778,18.1803611 14.6026337,17.9444444 14.3868313,17.9444444 Z" id="Path"></path>
                <path d="M13.1035319,0 L0,0 L0,23.2222222 L19,23.2222222 L19,5.64532222 L13.1035319,0 Z M13.3404255,1.32134444 L17.6198723,5.41851852 L13.3404255,5.41851852 L13.3404255,1.32134444 Z M0.808510638,22.4481481 L0.808510638,0.774074074 L12.5319149,0.774074074 L12.5319149,6.19259259 L18.1914894,6.19259259 L18.1914894,22.4481481 L0.808510638,22.4481481 Z" id="Shape"></path>
            </g>
        </g>
    </g>
</svg>