<svg id="Layer_1" data-name="Layer 1" xmlns="http://www.w3.org/2000/svg" viewBox="0 0 32 32" width="24" height="24" stroke="#fff" stroke-width=".7">
	<path fill="#fff" d="M15.28,26.21c0.08-0.24,0.21-0.58,0.3-0.93c0.04-0.13,0.06-0.3,0-0.41c-0.57-1.14-0.16-2.44,0.96-3.04
		c0.11-0.06,0.21-0.23,0.22-0.35c0.09-1.05,1.12-2.19,2.43-1.93c0.2,0.04,0.32-0.01,0.47-0.16c0.84-0.87,2.14-0.87,2.99,0
		c0.15,0.15,0.28,0.19,0.47,0.15c1.31-0.28,2.37,0.89,2.41,1.96c0.01,0.18,0.07,0.27,0.24,0.35c1.14,0.54,1.56,1.89,0.97,3.01
		c-0.05,0.1-0.05,0.28,0.01,0.38c0.62,1.07,0.1,2.61-0.97,3.07c-0.1,0.04-0.21,0.2-0.23,0.32c-0.2,1.32-1.16,2.07-2.46,1.85
		c-0.24-0.04-0.36,0.07-0.47,0.22c-0.59,0.81-1.84,0.82-2.52,0.38c-0.07-0.04-0.16-0.07-0.19-0.13c-0.25-0.44-0.61-0.43-1.07-0.41
		c-1.03,0.06-1.89-0.73-2.04-1.79c-0.03-0.24-0.12-0.36-0.34-0.47C15.65,27.89,15.38,27.17,15.28,26.21z M18.86,20.64
		c-0.56,0.01-0.98,0.39-1.02,0.95c-0.05,0.58-0.31,0.98-0.85,1.21c-0.52,0.23-0.76,0.92-0.49,1.42c0.3,0.55,0.33,1.06,0,1.61
		c-0.31,0.52-0.1,1.2,0.44,1.42c0.57,0.23,0.81,0.64,0.88,1.23c0.08,0.69,0.63,1.07,1.33,0.95c0.46-0.08,0.86,0.04,1.19,0.39
		c0.53,0.56,1.09,0.56,1.62,0c0.32-0.34,0.71-0.49,1.18-0.42c0.83,0.12,1.24-0.21,1.36-1.05c0.07-0.49,0.29-0.87,0.78-1.08
		c0.64-0.27,0.86-0.95,0.5-1.53c-0.31-0.51-0.28-0.99,0.02-1.48c0.29-0.49,0.08-1.22-0.45-1.42c-0.62-0.24-0.87-0.68-0.9-1.32
		c-0.03-0.57-0.57-0.98-1.13-0.87c-0.59,0.12-1.07-0.01-1.47-0.48c-0.23-0.27-0.54-0.48-0.91-0.33c-0.21,0.08-0.41,0.26-0.57,0.43
		c-0.34,0.35-0.74,0.49-1.21,0.42C19.04,20.68,18.93,20.66,18.86,20.64z"/>
	<path fill="#fff" d="M11.53,9.73c0.06-1.38,0.76-2.78,2.36-3.71c1.24-0.73,2.53-0.8,3.78-0.21c1.81,0.85,2.83,2.42,2.72,4.59
		c-0.06,1.25-0.61,2.28-1.5,3.19c-1.24,1.26-3.8,1.64-5.54,0.27C12.17,12.92,11.53,11.67,11.53,9.73z M19.37,10.15
		C19.42,8.2,17.91,6.58,16,6.54c-1.82-0.04-3.39,1.51-3.45,3.4c-0.06,2.04,1.39,3.64,3.31,3.69C17.79,13.68,19.31,12.18,19.37,10.15
		z"/>
	<path fill="#fff" d="M9.6,22.78c1.09,0,2.15,0,3.21,0c0.45,0,0.9,0,1.34,0.01c0.38,0.01,0.59,0.22,0.58,0.59c0,0.3-0.22,0.51-0.59,0.51
		c-1.68,0.01-3.36,0.01-5.03,0c-0.41,0-0.6-0.2-0.59-0.6c0.02-1.64,0.48-3.14,1.4-4.51c0.49-0.72,1.11-1.3,1.78-1.84
		c2.2-1.79,5.84-1.97,8.39-0.28c0.36,0.24,0.67,0.55,0.98,0.85c0.2,0.19,0.21,0.53,0.04,0.7c-0.2,0.2-0.64,0.22-0.82,0.02
		c-0.5-0.58-1.16-0.89-1.84-1.2c-1.23-0.57-2.51-0.67-3.79-0.34c-1.03,0.26-2,0.71-2.8,1.44c-1.28,1.17-2.06,2.62-2.28,4.36
		C9.59,22.56,9.6,22.65,9.6,22.78z"/>
	<path fill="#fff" d="M1.35,22.79c0.14,0,0.27,0,0.4,0c1.79,0,3.58-0.01,5.37,0.01c0.2,0,0.47,0.09,0.58,0.23c0.29,0.4,0.04,0.85-0.46,0.86
		c-2.13,0.01-4.25,0.01-6.38,0c-0.4,0-0.59-0.21-0.58-0.62c0.03-0.94,0.21-1.84,0.65-2.68c1-1.89,2.52-3.04,4.69-3.22
		c1.16-0.1,2.24,0.17,3.26,0.73c0.3,0.16,0.41,0.54,0.26,0.8c-0.16,0.28-0.44,0.33-0.79,0.15c-1.86-0.95-3.85-0.79-5.36,0.53
		C2.07,20.38,1.49,21.43,1.35,22.79z"/>
	<path fill="#fff" d="M5.94,9.33c1.98-0.01,3.42,1.6,3.43,3.55c0,1.95-1.44,3.58-3.44,3.57c-1.91-0.01-3.43-1.59-3.41-3.58
		C2.53,10.93,3.98,9.33,5.94,9.33z M8.34,12.91c0.07-1.41-1.22-2.55-2.38-2.56c-1.15-0.01-2.41,1.12-2.42,2.51
		c-0.01,1.53,1.28,2.58,2.41,2.58C7.07,15.43,8.37,14.38,8.34,12.91z"/>
	<path fill="#fff" d="M29.69,12.88c0.01,1.92-1.42,3.57-3.4,3.58c-1.93,0.01-3.46-1.57-3.45-3.57c0.01-1.94,1.44-3.55,3.42-3.56
		C28.24,9.32,29.69,10.95,29.69,12.88z M28.67,12.89c0.03-1.42-1.24-2.55-2.41-2.54c-1.16,0.01-2.42,1.1-2.4,2.56
		c0.01,1.51,1.28,2.51,2.4,2.52C27.39,15.44,28.69,14.4,28.67,12.89z"/>
	<path fill="#fff" d="M30.87,22.78c-0.13-0.94-0.46-1.74-1-2.49c-1.44-1.99-4.21-2.29-6.01-1.24c-0.34,0.2-0.63,0.13-0.79-0.15
		c-0.15-0.27-0.04-0.63,0.26-0.8c2-1.07,4.03-1.08,5.92,0.17c1.74,1.16,2.63,2.88,2.66,4.99c0.01,0.43-0.2,0.64-0.63,0.64
		c-0.94,0-1.88,0-2.82,0c-0.52,0-0.79-0.19-0.79-0.53c0-0.42,0.23-0.6,0.79-0.6C29.26,22.78,30.06,22.78,30.87,22.78z"/>

</svg>
