<?xml version="1.0"?>
<svg xmlns="http://www.w3.org/2000/svg" id="Capa_1" enable-background="new 0 0 512 512" height="24px" viewBox="0 0 512 512" width="24px"><g><g><path d="m54.099 102.026c-15.368 0-27.871 12.503-27.871 27.87v19.666c0 15.367 12.503 27.87 27.871 27.87s27.87-12.503 27.87-27.87v-19.666c0-15.366-12.502-27.87-27.87-27.87z" data-original="#000000" class="active-path" data-old_color="#000000" fill="#FFFFFF"/><path d="m14.188 368.07h55.458v100.556h-55.458z" data-original="#000000" class="active-path" data-old_color="#000000" fill="#FFFFFF"/><path d="m145.532 187.428h-17.515l-43.41 15.864v125.548h60.925z" data-original="#000000" class="active-path" data-old_color="#000000" fill="#FFFFFF"/><path d="m54.254 207.786h-15.214l-39.04 14.267v115.663h54.254z" data-original="#000000" class="active-path" data-old_color="#000000" fill="#FFFFFF"/><path d="m241.733 136.715c19.393 0 35.171-15.777 35.171-35.17v-23.001c0-19.393-15.777-35.17-35.17-35.17s-35.171 15.777-35.171 35.17v23.001c0 19.393 15.777 35.17 35.17 35.17z" data-original="#000000" class="active-path" data-old_color="#000000" fill="#FFFFFF"/><path d="m99.999 359.193h62.128v109.433h-62.128z" data-original="#000000" class="active-path" data-old_color="#000000" fill="#FFFFFF"/><path d="m192.48 350.316h98.507v118.31h-98.507z" data-original="#000000" class="active-path" data-old_color="#000000" fill="#FFFFFF"/><path d="m223.665 167.069-47.779 17.461v135.433h131.694v-135.433l-47.779-17.461z" data-original="#000000" class="active-path" data-old_color="#000000" fill="#FFFFFF"/><path d="m176.101 104.22c0-17.38-14.14-31.52-31.52-31.52s-31.521 14.14-31.521 31.52v21.333c0 17.381 14.14 31.521 31.52 31.521 17.381 0 31.52-14.14 31.52-31.521v-21.333z" data-original="#000000" class="active-path" data-old_color="#000000" fill="#FFFFFF"/><path d="m512 229.938v-186.564h-164.027v186.564h67.013v208.688h-52.013v30h134.027v-30h-52.014v-208.688z" data-original="#000000" class="active-path" data-old_color="#000000" fill="#FFFFFF"/></g></g> </svg>
