<?xml version="1.0" encoding="UTF-8"?>
<svg width="24px" height="24px" viewBox="0 0 24 24" version="1.1" xmlns="http://www.w3.org/2000/svg" xmlns:xlink="http://www.w3.org/1999/xlink">
    <!-- Generator: Sketch 53.2 (72643) - https://sketchapp.com -->
    <title>icon/menu/templateOn</title>
    <desc>Created with Sketch.</desc>
    <g id="icon/menu/templateOn" stroke="none" stroke-width="1" fill="none" fill-rule="evenodd">
        <g id="ic_dashboard" stroke="#CC9933" stroke-width="1.5">
            <path d="M8.07034861,8.11666667 C8.09201618,8.11666667 8.11666667,8.09184496 8.11666667,8.07034861 L8.11666667,1.66298472 C8.11666667,1.64131715 8.09184496,1.61666667 8.07034861,1.61666667 L1.66298472,1.61666667 C1.64131715,1.61666667 1.61666667,1.64148838 1.61666667,1.66298472 L1.61666667,8.07034861 C1.61666667,8.09201618 1.64148838,8.11666667 1.66298472,8.11666667 L8.07034861,8.11666667 Z M22.0575837,22.35 C22.0904858,22.35 22.1166667,22.3241862 22.1166667,22.3063611 L22.1166667,10.8936389 C22.1166667,10.873417 22.0927683,10.85 22.0575837,10.85 L1.67574962,10.85 C1.6428475,10.85 1.61666667,10.8758138 1.61666667,10.8936389 L1.61666667,22.3063611 C1.61666667,22.326583 1.64056502,22.35 1.67574962,22.35 L22.0575837,22.35 Z M10.85,8.07979574 C10.85,8.10382362 10.8733456,8.12715811 10.8936389,8.12715811 L22.3063611,8.12715811 C22.3257644,8.12715811 22.35,8.10263969 22.35,8.07979574 L22.35,1.66402904 C22.35,1.64000116 22.3266544,1.61666667 22.3063611,1.61666667 L10.8936389,1.61666667 C10.8742356,1.61666667 10.85,1.64118509 10.85,1.66402904 L10.85,8.07979574 Z" id="Icon"></path>
        </g>
    </g>
</svg>