<?xml version="1.0" encoding="UTF-8"?>
<svg width="24px" height="24px" viewBox="0 0 24 24" version="1.1" xmlns="http://www.w3.org/2000/svg" xmlns:xlink="http://www.w3.org/1999/xlink">
    <!-- Generator: Sketch 53.2 (72643) - https://sketchapp.com -->
    <title>icon/menu/users</title>
    <desc>Created with Sketch.</desc>
    <g id="icon/menu/users" stroke="none" stroke-width="1" fill="none" fill-rule="evenodd">
        <g id="user" transform="translate(3.000000, 3.000000)" fill="#FFFFFF" fill-rule="nonzero" stroke="#FFFFFF" stroke-width="0.1">
            <path d="M15.3993404,11.600661 C17.108574,13.3099652 18.05,15.5827796 18,18.05 L16.54375,18 C16.54375,13.8403994 13.1596006,10.45625 9,10.45625 C4.84039939,10.45625 1.45625,13.8403994 1.40625,18.05 L-0.05,18 C-0.05,15.5827684 0.891434024,13.3099571 2.60069608,11.6006597 C3.58016114,10.6212297 4.75139377,9.8881691 6.02772512,9.53203001 C4.61150927,8.55664023 3.746875,6.95086059 3.746875,5.203125 C3.746875,2.30651467 6.10338967,-0.05 9,-0.05 C11.8966103,-0.05 14.253125,2.30651467 14.253125,5.203125 C14.253125,6.95085113 13.3884987,8.55663377 11.960259,9.44358645 C13.2486414,9.8881691 14.419874,10.6212297 15.3993391,11.6006597 Z M9,8.95 C11.0659878,8.95 12.746875,7.26912356 12.746875,5.203125 C12.746875,3.13712644 11.0659878,1.45625 9,1.45625 C6.93401219,1.45625 5.253125,3.13712644 5.253125,5.203125 C5.253125,7.26912356 6.93401219,8.95 9,8.95 Z" id="Shape"></path>
        </g>
    </g>
</svg>