<svg id="Layer_1" data-name="Layer 1" xmlns="http://www.w3.org/2000/svg" viewBox="0 0 32 32" width="24" height="24" stroke="#fff" stroke-width=".8">
<path fill="#fff" d="M16,25.44H9.12c-.61,0-.76-.17-.75-.82.06-4,3.18-7.58,6.93-7.87,4-.31,7.41,2.47,8.17,6.76a9.88,9.88,0,0,1,.11,1.22c0,.51-.17.7-.65.71H16Zm6.51-1.14a6.74,6.74,0,0,0-6.57-6.47A6.73,6.73,0,0,0,9.47,24.3Z" transform="translate(-0.07 -6.39)"/>
<path fill="#fff" d="M11.39,11.17a4.64,4.64,0,0,1,4.47-4.78,4.65,4.65,0,0,1,4.46,4.8A4.63,4.63,0,0,1,15.84,16,4.62,4.62,0,0,1,11.39,11.17Zm7.89,0a3.58,3.58,0,0,0-3.44-3.69,3.6,3.6,0,0,0-3.42,3.68,3.58,3.58,0,0,0,3.43,3.7A3.57,3.57,0,0,0,19.28,11.18Z" transform="translate(-0.07 -6.39)"/>
<path fill="#fff" d="M1.14,24.32H6.93a.73.73,0,0,1,.45.08.78.78,0,0,1,.25.53.86.86,0,0,1-.35.46c-.08.06-.24,0-.36,0H.84c-.63,0-.81-.21-.76-.88a6,6,0,0,1,5.49-5.88,5.19,5.19,0,0,1,3.08.76c.38.22.49.51.34.82s-.45.37-.82.16A4.47,4.47,0,0,0,2.78,21,5.11,5.11,0,0,0,1.14,24.32Z" transform="translate(-0.07 -6.39)"/>
<path fill="#fff" d="M30.83,24.32a5,5,0,0,0-3.75-4.44,4.48,4.48,0,0,0-3.27.55c-.22.13-.47.21-.65,0a.73.73,0,0,1-.18-.54.77.77,0,0,1,.35-.43,5.45,5.45,0,0,1,6.93,1.07,6.26,6.26,0,0,1,1.65,4.17c0,.54-.15.74-.65.74H25c-.41,0-.66-.23-.65-.57s.25-.55.67-.55h5.83Z" transform="translate(-0.07 -6.39)"/>
<path fill="#fff" d="M2.32,14.08a3.6,3.6,0,0,1,3.42-3.71,3.6,3.6,0,0,1,3.49,3.71,3.61,3.61,0,0,1-3.44,3.7A3.59,3.59,0,0,1,2.32,14.08Zm5.86,0a2.52,2.52,0,0,0-2.39-2.64A2.51,2.51,0,0,0,3.36,14a2.52,2.52,0,0,0,2.39,2.64A2.5,2.5,0,0,0,8.18,14.11Z" transform="translate(-0.07 -6.39)"/>
<path fill="#fff" d="M29.67,14.07a3.59,3.59,0,0,1-3.46,3.71,3.6,3.6,0,0,1-3.44-3.73,3.46,3.46,0,1,1,6.9,0Zm-1,0a2.43,2.43,0,1,0-4.84,0,2.43,2.43,0,1,0,4.84,0Z" transform="translate(-0.07 -6.39)"/>
</svg>