<?xml version="1.0" encoding="UTF-8"?>
<svg width="85px" height="85px" viewBox="0 0 85 85" version="1.1" xmlns="http://www.w3.org/2000/svg" xmlns:xlink="http://www.w3.org/1999/xlink">
    <!-- Generator: Sketch 53.2 (72643) - https://sketchapp.com -->
    <title>icon/big/avatarAdd</title>
    <desc>Created with Sketch.</desc>
    <g id="icon/big/avatarAdd" stroke="none" stroke-width="1" fill="none" fill-rule="evenodd">
        <circle id="Oval" stroke="#000000" fill="#D8D8D8" cx="42.5" cy="42.5" r="38.5"></circle>
        <g id="Group-3" transform="translate(18.000000, 12.000000)" fill-rule="nonzero">
            <g id="UFUbTH_1_">
                <g id="Group" fill="#000000">
                    <path d="M49.14,41.94 C46.8,36.48 42.84,32.58 37.32,30.36 C36.84,30.18 36.48,30.24 36.06,30.48 C34.98,31.14 33.96,31.86 32.76,32.4 C30.36,33.48 27.9,34.02 25.44,34.02 C22.98,34.02 20.52,33.48 18.12,32.4 C16.98,31.86 15.9,31.14 14.82,30.48 C14.4,30.18 14.04,30.12 13.56,30.36 C8.04,32.58 4.08,36.48 1.68,41.94 C0.6,44.46 0.12,47.16 0.06,49.92 C0.06,50.4 0.3,50.64 0.66,50.88 L25.44,50.88 L50.22,50.88 C50.52,50.64 50.82,50.4 50.82,49.92 C50.76,47.16 50.28,44.46 49.14,41.94 Z M49.02,49.14 L25.44,49.14 L1.86,49.14 C1.8,49.08 1.8,49.02 1.8,48.96 C2.04,47.52 2.16,46.02 2.58,44.64 C4.26,39 7.86,34.86 13.26,32.34 C13.86,32.04 14.28,32.1 14.82,32.46 C18.06,34.62 21.66,35.7 25.5,35.7 C29.34,35.7 32.94,34.68 36.18,32.46 C36.72,32.1 37.14,32.04 37.74,32.34 C43.08,34.86 46.68,39 48.42,44.64 C48.84,46.02 48.96,47.52 49.2,48.96 C49.08,49.02 49.02,49.08 49.02,49.14 Z" id="Shape"></path>
                    <path d="M25.5,0.24 C16.68,0.24 9.54,7.44 9.48,16.26 C9.42,25.08 16.62,32.28 25.5,32.28 C34.32,32.28 41.52,25.08 41.52,16.26 C41.52,7.5 34.26,0.24 25.5,0.24 Z M25.44,30.6 C17.52,30.6 11.1,24.12 11.1,16.2 C11.1,8.34 17.58,1.92 25.44,1.86 C33.3,1.86 39.78,8.34 39.78,16.2 C39.84,24.18 33.36,30.6 25.44,30.6 Z" id="Shape"></path>
                </g>
                <path d="M49.02,49.14 L25.44,49.14 L1.86,49.14 C1.8,49.08 1.8,49.02 1.8,48.96 C2.04,47.52 2.16,46.02 2.58,44.64 C4.26,39 7.86,34.86 13.26,32.34 C13.86,32.04 14.28,32.1 14.82,32.46 C18.06,34.62 21.66,35.7 25.5,35.7 C29.34,35.7 32.94,34.68 36.18,32.46 C36.72,32.1 37.14,32.04 37.74,32.34 C43.08,34.86 46.68,39 48.42,44.64 C48.84,46.02 48.96,47.52 49.2,48.96 C49.08,49.02 49.02,49.08 49.02,49.14 Z" id="Path" fill="#9D9D9D"></path>
            </g>
            <path d="M25.44,30.6 C17.52,30.6 11.1,24.12 11.1,16.2 C11.1,8.34 17.58,1.92 25.44,1.86 C33.3,1.86 39.78,8.34 39.78,16.2 C39.84,24.18 33.36,30.6 25.44,30.6 Z" id="Path" fill="#EDEDED"></path>
            <path d="M36.12,25.86 C37.08,23.7 37.56,21.3 37.56,18.84 C37.56,11.1 32.52,4.44 25.62,1.98 C33.42,2.04 39.84,8.52 39.78,16.32 C39.84,19.92 38.4,23.28 36.12,25.86 Z" id="Path" fill="#E7E7E7"></path>
            <path d="M49.08,48.96 C49.08,49.02 49.08,49.08 49.02,49.2 L41.28,49.2 C41.16,47.28 40.86,45.06 40.5,42.84 C39.84,39.06 36.66,35.94 33.84,33.84 C34.62,33.48 35.34,33 36.12,32.52 C36.66,32.16 37.08,32.1 37.68,32.4 C43.08,34.92 46.62,39.06 48.36,44.7 C48.72,46.02 48.84,47.52 49.08,48.96 Z" id="Path" fill="#939191"></path>
        </g>
        <g id="ic_add" transform="translate(7.000000, 29.000000)">
            <polygon id="Bounds" points="0 0 20 0 20 20 0 20"></polygon>
            <polygon id="Icon" fill="#000000" points="10.8333333 10.8333333 10.8333333 15.8333333 9.16666667 15.8333333 9.16666667 10.8333333 4.16666667 10.8333333 4.16666667 9.16666667 9.16666667 9.16666667 9.16666667 4.16666667 10.8333333 4.16666667 10.8333333 9.16666667 15.8333333 9.16666667 15.8333333 10.8333333"></polygon>
        </g>
    </g>
</svg>