<?xml version="1.0" encoding="UTF-8"?>
<svg width="85px" height="85px" viewBox="0 0 85 85" version="1.1" xmlns="http://www.w3.org/2000/svg" xmlns:xlink="http://www.w3.org/1999/xlink">
    <!-- Generator: Sketch 53.2 (72643) - https://sketchapp.com -->
    <title>icon/big/avatarNotary</title>
    <desc>Created with Sketch.</desc>
    <defs>
        <circle id="path-1" cx="42.5" cy="43" r="42.5"></circle>
        <circle id="path-3" cx="42.5" cy="42.5" r="42.5"></circle>
    </defs>
    <g id="icon/big/avatarNotary" stroke="none" stroke-width="1" fill="none" fill-rule="evenodd">
        <g id="Group-3" transform="translate(0.000000, -0.500000)">
            <mask id="mask-2" fill="white">
                <use xlink:href="#path-1"></use>
            </mask>
            <use id="Mask" fill="#E1EEF0" xlink:href="#path-1"></use>
            <g mask="url(#mask-2)">
                <g transform="translate(9.000000, 16.000000)">
                    <g id="UFUbTH_1_" stroke-width="1" fill="none" fill-rule="evenodd">
                        <g id="Group" fill="#000000" fill-rule="nonzero">
                            <path d="M64.5564706,55.0976471 C61.4823529,47.9247059 56.28,42.8011765 49.0282353,39.8847059 C48.3976471,39.6482353 47.9247059,39.7270588 47.3729412,40.0423529 C45.9541176,40.9094118 44.6141176,41.8552941 43.0376471,42.5647059 C39.8847059,43.9835294 36.6529412,44.6929412 33.4211765,44.6929412 C30.1894118,44.6929412 26.9576471,43.9835294 23.8047059,42.5647059 C22.3070588,41.8552941 20.8882353,40.9094118 19.4694118,40.0423529 C18.9176471,39.6482353 18.4447059,39.5694118 17.8141176,39.8847059 C10.5623529,42.8011765 5.36,47.9247059 2.20705882,55.0976471 C0.788235294,58.4082353 0.157647059,61.9552941 0.0788235294,65.5811765 C0.0788235294,66.2117647 0.394117647,71.2453687 0.867058824,71.5606628 L33.4211765,71.5606628 L65.9752941,71.5606628 C66.3694118,71.2453687 66.7635294,66.2117647 66.7635294,65.5811765 C66.6847059,61.9552941 66.0541176,58.4082353 64.5564706,55.0976471 Z M64.3988235,69.2747804 L33.4211765,69.2747804 L2.44352941,69.2747804 C2.36470588,69.1959569 2.36470588,64.3988235 2.36470588,64.32 C2.68,62.4282353 2.83764706,60.4576471 3.38941176,58.6447059 C5.59647059,51.2352941 10.3258824,45.7964706 17.42,42.4858824 C18.2082353,42.0917647 18.76,42.1705882 19.4694118,42.6435294 C23.7258824,45.4811765 28.4552941,46.9 33.5,46.9 C38.5447059,46.9 43.2741176,45.56 47.5305882,42.6435294 C48.24,42.1705882 48.7917647,42.0917647 49.58,42.4858824 C56.5952941,45.7964706 61.3247059,51.2352941 63.6105882,58.6447059 C64.1623529,60.4576471 64.32,62.4282353 64.6352941,64.32 C64.4776471,64.3988235 64.3988235,69.1959569 64.3988235,69.2747804 Z" id="Shape"></path>
                            <path d="M33.5,0.315294118 C21.9129412,0.315294118 12.5329412,9.77411765 12.4541176,21.3611765 C12.3752941,32.9482353 21.8341176,42.4070588 33.5,42.4070588 C45.0870588,42.4070588 54.5458824,32.9482353 54.5458824,21.3611765 C54.5458824,9.85294118 45.0082353,0.315294118 33.5,0.315294118 Z M33.4211765,40.2 C23.0164706,40.2 14.5823529,31.6870588 14.5823529,21.2823529 C14.5823529,10.9564706 23.0952941,2.52235294 33.4211765,2.44352941 C43.7470588,2.44352941 52.26,10.9564706 52.26,21.2823529 C52.3388235,31.7658824 43.8258824,40.2 33.4211765,40.2 Z" id="Shape"></path>
                        </g>
                        <path d="M64.3988235,69.2747804 L33.4211765,69.2747804 L2.44352941,69.2747804 C2.36470588,69.1959569 2.36470588,64.3988235 2.36470588,64.32 C2.68,62.4282353 2.83764706,60.4576471 3.38941176,58.6447059 C5.59647059,51.2352941 10.3258824,45.7964706 17.42,42.4858824 C18.2082353,42.0917647 18.76,42.1705882 19.4694118,42.6435294 C23.7258824,45.4811765 28.4552941,46.9 33.5,46.9 C38.5447059,46.9 43.2741176,45.56 47.5305882,42.6435294 C48.24,42.1705882 48.7917647,42.0917647 49.58,42.4858824 C56.5952941,45.7964706 61.3247059,51.2352941 63.6105882,58.6447059 C64.1623529,60.4576471 64.32,62.4282353 64.6352941,64.32 C64.4776471,64.3988235 64.3988235,69.1959569 64.3988235,69.2747804 Z" id="Path" fill="#6197A1" fill-rule="nonzero"></path>
                    </g>
                    <path d="M33.4211765,40.2 C23.0164706,40.2 14.5823529,31.6870588 14.5823529,21.2823529 C14.5823529,10.9564706 23.0952941,2.52235294 33.4211765,2.44352941 C43.7470588,2.44352941 52.26,10.9564706 52.26,21.2823529 C52.3388235,31.7658824 43.8258824,40.2 33.4211765,40.2 Z" id="Path" fill="#FFE1BC" fill-rule="nonzero"></path>
                    <path d="M47.4517647,33.9729412 C48.7129412,31.1352941 49.3435294,27.9823529 49.3435294,24.7505882 C49.3435294,14.5823529 42.7223529,5.83294118 33.6576471,2.60117647 C43.9047059,2.68 52.3388235,11.1929412 52.26,21.44 C52.3388235,26.1694118 50.4470588,30.5835294 47.4517647,33.9729412 Z" id="Path" fill="#FFDBB9" fill-rule="nonzero"></path>
                    <path d="M64.4776471,64.32 C64.4776471,64.3988235 64.4776471,64.4776471 64.3988235,64.6352941 L54.2305882,64.6352941 C54.0729412,62.1129412 53.6788235,59.1964706 53.2058824,56.28 C52.3388235,51.3141176 48.1611765,47.2152941 44.4564706,44.4564706 C45.4811765,43.9835294 46.4270588,43.3529412 47.4517647,42.7223529 C48.1611765,42.2494118 48.7129412,42.1705882 49.5011765,42.5647059 C56.5952941,45.8752941 61.2458824,51.3141176 63.5317647,58.7235294 C64.0047059,60.4576471 64.1623529,62.4282353 64.4776471,64.32 Z" id="Path" fill="#5A8C95" fill-rule="nonzero"></path>
                </g>
            </g>
        </g>
        <mask id="mask-4" fill="white">
            <use xlink:href="#path-3"></use>
        </mask>
        <circle stroke="#FFBE3D" stroke-width="2" cx="42.5" cy="42.5" r="41.5"></circle>
    </g>
</svg>