<?xml version="1.0" encoding="UTF-8"?>
<svg width="85px" height="85px" viewBox="0 0 85 85" version="1.1" xmlns="http://www.w3.org/2000/svg" xmlns:xlink="http://www.w3.org/1999/xlink">
    <!-- Generator: Sketch 53.2 (72643) - https://sketchapp.com -->
    <title>icon/big/avatarSigner</title>
    <desc>Created with Sketch.</desc>
    <g id="icon/big/avatarSigner" stroke="none" stroke-width="1" fill="none" fill-rule="evenodd">
        <g id="Group-3" fill-rule="nonzero">
            <g id="UFUbTH_1_">
                <g id="Group" fill="#000000">
                    <path d="M81.9,69.9 C78,60.8 71.4,54.3 62.2,50.6 C61.4,50.3 60.8,50.4 60.1,50.8 C58.3,51.9 56.6,53.1 54.6,54 C50.6,55.8 46.5,56.7 42.4,56.7 C38.3,56.7 34.2,55.8 30.2,54 C28.3,53.1 26.5,51.9 24.7,50.8 C24,50.3 23.4,50.2 22.6,50.6 C13.4,54.3 6.8,60.8 2.8,69.9 C1,74.1 0.2,78.6 0.1,83.2 C0.1,84 0.5,84.4 1.1,84.8 L42.4,84.8 L83.7,84.8 C84.2,84.4 84.7,84 84.7,83.2 C84.6,78.6 83.8,74.1 81.9,69.9 Z M81.7,81.9 L42.4,81.9 L3.1,81.9 C3,81.8 3,81.7 3,81.6 C3.4,79.2 3.6,76.7 4.3,74.4 C7.1,65 13.1,58.1 22.1,53.9 C23.1,53.4 23.8,53.5 24.7,54.1 C30.1,57.7 36.1,59.5 42.5,59.5 C48.9,59.5 54.9,57.8 60.3,54.1 C61.2,53.5 61.9,53.4 62.9,53.9 C71.8,58.1 77.8,65 80.7,74.4 C81.4,76.7 81.6,79.2 82,81.6 C81.8,81.7 81.7,81.8 81.7,81.9 Z" id="Shape"></path>
                    <path d="M42.5,0.4 C27.8,0.4 15.9,12.4 15.8,27.1 C15.7,41.8 27.7,53.8 42.5,53.8 C57.2,53.8 69.2,41.8 69.2,27.1 C69.2,12.5 57.1,0.4 42.5,0.4 Z M42.4,51 C29.2,51 18.5,40.2 18.5,27 C18.5,13.9 29.3,3.2 42.4,3.1 C55.5,3.1 66.3,13.9 66.3,27 C66.4,40.3 55.6,51 42.4,51 Z" id="Shape"></path>
                </g>
                <path d="M81.7,81.9 L42.4,81.9 L3.1,81.9 C3,81.8 3,81.7 3,81.6 C3.4,79.2 3.6,76.7 4.3,74.4 C7.1,65 13.1,58.1 22.1,53.9 C23.1,53.4 23.8,53.5 24.7,54.1 C30.1,57.7 36.1,59.5 42.5,59.5 C48.9,59.5 54.9,57.8 60.3,54.1 C61.2,53.5 61.9,53.4 62.9,53.9 C71.8,58.1 77.8,65 80.7,74.4 C81.4,76.7 81.6,79.2 82,81.6 C81.8,81.7 81.7,81.8 81.7,81.9 Z" id="Path" fill="#006F83"></path>
            </g>
            <path d="M42.4,51 C29.2,51 18.5,40.2 18.5,27 C18.5,13.9 29.3,3.2 42.4,3.1 C55.5,3.1 66.3,13.9 66.3,27 C66.4,40.3 55.6,51 42.4,51 Z" id="Path" fill="#FFE1BC"></path>
            <path d="M60.2,43.1 C61.8,39.5 62.6,35.5 62.6,31.4 C62.6,18.5 54.2,7.4 42.7,3.3 C55.7,3.4 66.4,14.2 66.3,27.2 C66.4,33.2 64,38.8 60.2,43.1 Z" id="Path" fill="#FFDBB9"></path>
            <path d="M81.8,81.6 C81.8,81.7 81.8,81.8 81.7,82 L68.8,82 C68.6,78.8 68.1,75.1 67.5,71.4 C66.4,65.1 61.1,59.9 56.4,56.4 C57.7,55.8 58.9,55 60.2,54.2 C61.1,53.6 61.8,53.5 62.8,54 C71.8,58.2 77.7,65.1 80.6,74.5 C81.2,76.7 81.4,79.2 81.8,81.6 Z" id="Path" fill="#015767"></path>
        </g>
    </g>
</svg>