<?xml version="1.0" encoding="UTF-8"?>
<svg width="85px" height="85px" viewBox="0 0 85 85" version="1.1" xmlns="http://www.w3.org/2000/svg" xmlns:xlink="http://www.w3.org/1999/xlink">
    <!-- Generator: Sketch 53.2 (72643) - https://sketchapp.com -->
    <title>icon/big/claim</title>
    <desc>Created with Sketch.</desc>
    <g id="icon/big/claim" stroke="none" stroke-width="1" fill="none" fill-rule="evenodd">
        <g id="Group" fill-rule="nonzero">
            <rect id="Rectangle" fill="#FFB531" x="2.8" y="79.3" width="42.5" height="2.8"></rect>
            <path d="M77.9,1.4 L63.7,1.4 L63.7,77.9 L77.9,77.9 C81,77.9 83.6,75.4 83.6,72.2 L83.6,7.1 C83.6,4 81,1.4 77.9,1.4 Z" id="Path" fill="#61BACA"></path>
            <path d="M63.8,1.4 L27,1.4 C23.9,1.4 21.3,3.9 21.3,7.1 L21.3,72.3 C21.3,75.4 23.8,78 27,78 L72.3,78 C75.4,78 78,75.5 78,72.3 L78,15.6 L63.8,1.4 Z" id="Path" fill="#C0F5FF"></path>
            <path d="M34,77.9 L72.2,77.9 C75.3,77.9 77.9,75.4 77.9,72.2 L77.9,34 L34,77.9 Z" id="Path" fill="#A4F4FF"></path>
            <path d="M72.2,18.4 L77.9,18.4 L77.9,15.6 L66.6,4.3 L66.6,12.8 C66.6,15.9 69.1,18.4 72.2,18.4 Z" id="Path" fill="#A4F4FF"></path>
            <path d="M77.9,15.6 L69.4,15.6 C66.3,15.6 63.7,13.1 63.7,9.9 L63.7,1.4 L77.9,15.6 Z" id="Path" fill="#9FE4ED"></path>
            <polygon id="Path" fill="#FFB531" points="4.2 58.1 9.9 58.1 9.9 77.9 4.2 77.9"></polygon>
            <polygon id="Path" fill="#FFB531" points="15.6 58.1 21.3 58.1 21.3 77.9 15.6 77.9"></polygon>
            <polygon id="Path" fill="#FFB531" points="26.9 58.1 32.6 58.1 32.6 77.9 26.9 77.9"></polygon>
            <polygon id="Path" fill="#FFB531" points="38.2 58.1 43.9 58.1 43.9 77.9 38.2 77.9"></polygon>
            <polygon id="Path" fill="#FFB531" points="46.8 51 24.1 43.9 1.4 51 1.4 58.1 46.7 58.1 46.7 51"></polygon>
            <path d="M26.9,51 C26.9,52.6 25.6,53.8 24.1,53.8 C22.6,53.8 21.3,52.5 21.3,51 C21.3,49.5 22.6,48.2 24.1,48.2 C25.6,48.2 26.9,49.4 26.9,51 Z" id="Path" fill="#B0564C"></path>
            <polygon id="Path" fill="#F7A116" points="4.2 58.1 9.9 58.1 9.9 60.9 4.2 60.9"></polygon>
            <polygon id="Path" fill="#F7A116" points="15.6 58.1 21.3 58.1 21.3 60.9 15.6 60.9"></polygon>
            <polygon id="Path" fill="#F7A116" points="26.9 58.1 32.6 58.1 32.6 60.9 26.9 60.9"></polygon>
            <polygon id="Path" fill="#F7A116" points="38.2 58.1 43.9 58.1 43.9 60.9 38.2 60.9"></polygon>
            <path d="M77.9,0 L26.9,0 C23,0 19.8,3.2 19.8,7.1 L19.8,39.7 L22.6,39.7 L22.6,7.1 C22.6,4.8 24.5,2.9 26.8,2.9 L62.2,2.9 L62.2,10 C62.2,13.9 65.4,17.1 69.3,17.1 L76.4,17.1 L76.4,72.3 C76.4,74.6 74.5,76.5 72.2,76.5 L51,76.5 L51,79.3 L77.9,79.3 C81.8,79.3 85,76.1 85,72.2 L85,7.1 C85,3.2 81.8,0 77.9,0 Z M69.4,14.2 C67.1,14.2 65.2,12.3 65.2,10 L65.2,4.8 L74.5,14.1 L69.4,14.1 L69.4,14.2 Z M82.2,72.2 C82.2,74.5 80.3,76.4 78,76.4 L78,76.4 C78.9,75.2 79.4,73.7 79.5,72.2 L79.5,15.6 C79.5,15.6 79.5,15.5 79.5,15.5 C79.5,15.4 79.5,15.3 79.4,15.1 C79.4,15.1 79.4,15 79.4,15 C79.3,14.8 79.2,14.7 79.1,14.6 L67.4,2.9 L78.1,2.9 C80.4,2.9 82.3,4.8 82.3,7.1 L82.3,72.2 L82.2,72.2 Z" id="Shape" fill="#000000"></path>
            <polygon id="Path" fill="#000000" points="26.9 36.8 26.9 39.6 56.7 39.6 56.7 43.8 42.5 43.8 42.5 46.6 56.7 46.6 56.7 51 51 51 51 53.8 56.7 53.8 56.7 58 51 58 51 60.8 56.7 60.8 56.7 65 48.2 65 48.2 68 72.3 68 72.3 65.2 59.5 65.2 59.5 61 72.3 61 72.3 58.2 59.5 58.2 59.5 54 72.3 54 72.3 51 59.5 51 59.5 46.8 72.3 46.8 72.3 44 59.5 44 59.5 39.8 72.3 39.8 72.3 37 59.5 37 59.5 32.8 72.3 32.8 72.3 30 27 30 27 32.8 56.8 32.8 56.8 37 26.9 37"></polygon>
            <polygon id="Path" fill="#000000" points="48.2 70.8 72.3 70.8 72.3 73.6 48.2 73.6"></polygon>
            <polygon id="Path" fill="#000000" points="27 9.9 59.5 9.9 59.5 12.7 27 12.7"></polygon>
            <polygon id="Path" fill="#000000" points="27 15.6 43.2 15.6 43.2 18.4 27 18.4"></polygon>
            <polygon id="Path" fill="#000000" points="48.7 15.6 59.5 15.6 59.5 18.4 48.7 18.4"></polygon>
            <polygon id="Path" fill="#000000" points="27 21.2 59.5 21.2 59.5 24 27 24"></polygon>
            <path d="M46.8,76.5 L45.4,76.5 L45.4,59.5 L46.8,59.5 C47.6,59.5 48.2,58.9 48.2,58.1 L48.2,51 C48.2,50.4 47.8,49.8 47.2,49.6 L24.5,42.5 C24.2,42.4 23.9,42.4 23.7,42.5 L1,49.6 C0.4,49.8 2.84217094e-14,50.3 2.84217094e-14,51 L2.84217094e-14,58.1 C2.84217094e-14,58.9 0.6,59.5 1.4,59.5 L2.8,59.5 L2.8,76.5 L1.4,76.5 C0.6,76.5 2.84217094e-14,77.1 2.84217094e-14,77.9 L2.84217094e-14,83.6 C2.84217094e-14,84.4 0.6,85 1.4,85 L46.7,85 C47.5,85 48.1,84.4 48.1,83.6 L48.1,77.9 C48.2,77.1 47.5,76.5 46.8,76.5 Z M42.5,76.5 L39.7,76.5 L39.7,59.5 L42.5,59.5 L42.5,76.5 Z M34,76.5 L34,59.5 L36.8,59.5 L36.8,76.5 L34,76.5 Z M22.7,76.5 L22.7,59.5 L25.5,59.5 L25.5,76.5 L22.7,76.5 Z M11.3,76.5 L11.3,59.5 L14.1,59.5 L14.1,76.5 L11.3,76.5 Z M17,59.5 L19.8,59.5 L19.8,76.5 L17,76.5 L17,59.5 Z M28.3,59.5 L31.1,59.5 L31.1,76.5 L28.3,76.5 L28.3,59.5 Z M2.8,52 L24,45.4 L45.2,52 L45.2,56.6 L2.7,56.6 L2.7,52 L2.8,52 Z M5.7,59.5 L8.5,59.5 L8.5,76.5 L5.7,76.5 L5.7,59.5 Z M45.3,82.2 L2.8,82.2 L2.8,79.4 L45.3,79.4 L45.3,82.2 Z" id="Shape" fill="#000000"></path>
            <path d="M26.9,51 C26.9,52.6 25.6,53.8 24.1,53.8 C22.6,53.8 21.3,52.5 21.3,51 C21.3,49.5 22.6,48.2 24.1,48.2 C25.6,48.2 26.9,49.4 26.9,51 Z" id="Path" fill="#000000"></path>
        </g>
    </g>
</svg>