<?xml version="1.0" encoding="UTF-8"?>
<svg width="85px" height="85px" viewBox="0 0 85 85" version="1.1" xmlns="http://www.w3.org/2000/svg" xmlns:xlink="http://www.w3.org/1999/xlink">
    <!-- Generator: Sketch 53.2 (72643) - https://sketchapp.com -->
    <title>icon/big/customers</title>
    <desc>Created with Sketch.</desc>
    <g id="icon/big/customers" stroke="none" stroke-width="1" fill="none" fill-rule="evenodd">
        <g id="Group-2" transform="translate(1.000000, 11.000000)" fill-rule="nonzero">
            <path d="M23.8,38.8 L35.8,38.8 C39.5,38.8 43.2,40.1 46.1,42.4 L52.2,47.3 C54.6,49.2 54.1,53 51.2,54.2 L51.2,54.2 C50,54.7 48.6,54.6 47.5,53.8 L39.7,48.6 L51.6,47.8 L55.1,49.4 L55.3,49.3 L59.5,47.2 L74.3,39.8 C76.5,38.7 79.1,39.4 80.5,41.5 L80.5,41.5 C82,43.8 81.2,46.9 78.8,48.3 L58.8,59.2 C56.1,60.7 53.1,61.4 50,61.4 L31.2,61.4 L15.6,57.3 L15.9,40.8 L23.8,38.8 Z" id="Path" fill="#FFE1BC"></path>
            <path d="M81.6,40.7 C79.9,38 76.5,37.1 73.7,38.5 L57.1,46.9 C56.4,47.2 56.1,48.1 56.5,48.8 C56.8,49.5 57.7,49.8 58.4,49.4 L74.9,41 C76.5,40.2 78.3,40.7 79.3,42.2 C79.8,43 80,43.9 79.7,44.9 C79.5,45.8 78.9,46.6 78,47 L58,57.9 C55.5,59.3 52.7,60 49.9,60 L31.1,60 L25.3,58.3 C24.5,58.3 23.9,58.9 23.9,59.7 C23.9,60.5 24.3,60.9 25.2,61.1 L31.1,62.8 L50,62.8 C53.3,62.8 56.5,62 59.4,60.4 L79.4,49.5 C80.9,48.7 82,47.3 82.4,45.6 C82.8,43.9 82.6,42.1 81.6,40.7 Z" id="Path" fill="#000000"></path>
            <path d="M25.2,41 L35.8,40.1 C39.2,40.1 42.5,41.3 45.2,43.4 L51.2,48.2 C51.8,48.7 52.3,49.5 52.3,50.3 C52.3,51.7 51.4,52.8 50,53 C49.4,53.1 48.7,52.9 48.2,52.5 C46.6,51.4 42.1,48.4 40.5,47.4 C40,47.1 39.3,47 38.8,47.4 C38,48 38.1,49.1 38.9,49.7 L46.7,54.9 C47.6,55.5 48.6,55.8 49.7,55.8 C50.4,55.8 51.1,55.7 51.7,55.4 C53.7,54.6 55,52.7 55.1,50.5 C55.2,48.7 54.3,47.1 52.9,46 C51.5,44.9 49.1,43 46.9,41.3 C43.7,38.8 39.8,37.4 35.8,37.4 L25.2,38.3" id="Path" fill="#000000"></path>
            <g id="Group" transform="translate(25.000000, -0.000000)">
                <g transform="translate(0.000000, 0.000000)">
                    <g id="UFUbTH_3_">
                        <g id="Group" fill="#000000">
                            <g transform="translate(0.000000, 17.060932)" id="Shape">
                                <path d="M29.8222222,8.65232975 C28.4777778,5.60573477 26.2777778,3.41218638 23.2222222,2.19354839 C22.9777778,2.07168459 22.7333333,2.07168459 22.4888889,2.31541219 C21.8777778,2.68100358 21.2666667,3.04659498 20.6555556,3.41218638 C19.3111111,4.02150538 17.9666667,4.26523297 16.5,4.26523297 C15.1555556,4.26523297 13.6888889,4.02150538 12.3444444,3.41218638 C11.7333333,3.16845878 11.1222222,2.68100358 10.5111111,2.31541219 C10.2666667,2.19354839 10.0222222,2.07168459 9.77777778,2.19354839 C6.72222222,3.41218638 4.52222222,5.60573477 3.17777778,8.65232975 C2.56666667,10.1146953 2.32222222,11.5770609 2.32222222,13.1612903 C2.32222222,13.4050179 2.44444444,13.5268817 2.68888889,13.6487455 L16.5,13.6487455 L30.3111111,13.6487455 C30.4333333,13.5268817 30.6777778,13.4050179 30.6777778,13.1612903 C30.8,11.5770609 30.4333333,10.1146953 29.8222222,8.65232975 Z M29.8222222,12.6738351 L16.6222222,12.6738351 L3.42222222,12.6738351 L3.42222222,12.5519713 C3.54444444,11.6989247 3.66666667,10.9677419 3.91111111,10.1146953 C4.88888889,6.94623656 6.84444444,4.63082437 9.9,3.29032258 C10.2666667,3.16845878 10.5111111,3.16845878 10.7555556,3.41218638 C12.5888889,4.63082437 14.5444444,5.24014337 16.7444444,5.24014337 C18.9444444,5.24014337 20.9,4.63082437 22.7333333,3.41218638 C22.9777778,3.16845878 23.2222222,3.16845878 23.5888889,3.29032258 C26.5222222,4.75268817 28.6,6.94623656 29.5777778,10.1146953 C29.7,10.9677419 29.7,11.8207885 29.8222222,12.6738351 C29.8222222,12.5519713 29.8222222,12.6738351 29.8222222,12.6738351 Z"></path>
                                <path d="M31.0444444,15.4767025 L30.3111111,15.4767025 L2.2,15.4767025 L1.83333333,15.2329749 C0.611111111,14.6236559 0.488888889,13.6487455 0.488888889,13.1612903 C0.488888889,11.2114695 0.855555556,9.50537634 1.46666667,7.92114695 C3.05555556,4.38709677 5.62222222,1.82795699 9.04444444,0.487455197 C10.0222222,1.16573418e-15 11,0.487455197 11.3666667,0.609318996 L11.4888889,0.731182796 C11.7333333,0.853046595 11.9777778,0.974910394 12.2222222,1.21863799 C12.5888889,1.46236559 12.8333333,1.70609319 13.0777778,1.70609319 C14.4222222,2.31541219 15.6444444,2.43727599 16.5,2.43727599 C17.7222222,2.43727599 18.8222222,2.19354839 19.8,1.82795699 L21.3888889,0.853046595 C22.1222222,0.243727599 23.1,0.121863799 23.9555556,0.487455197 C27.3777778,1.82795699 29.9444444,4.38709677 31.5333333,7.92114695 L31.5333333,7.92114695 C32.3888889,9.87096774 32.6333333,11.5770609 32.5111111,13.2831541 C32.5111111,13.8924731 32.1444444,14.5017921 31.5333333,14.9892473 L31.0444444,15.4767025 Z M5.62222222,10.8458781 L27.8666667,10.8458781 C27.8666667,10.7240143 27.8666667,10.6021505 27.8666667,10.4802867 C27.1333333,8.16487455 25.6666667,6.45878136 23.3444444,5.24014337 C21.2666667,6.45878136 19.1888889,7.06810036 16.7444444,7.06810036 C14.3,7.06810036 12.2222222,6.45878136 10.1444444,5.24014337 C7.94444444,6.33691756 6.47777778,8.16487455 5.62222222,10.7240143 C5.62222222,10.7240143 5.62222222,10.7240143 5.62222222,10.8458781 Z"></path>
                            </g>
                            <g transform="translate(4.888889, 0.000000)" id="Shape">
                                <path d="M11.7333333,2.43727599 C6.84444444,2.43727599 2.81111111,6.45878136 2.81111111,11.3333333 C2.81111111,16.2078853 6.84444444,20.2293907 11.7333333,20.2293907 C16.6222222,20.2293907 20.6555556,16.2078853 20.6555556,11.3333333 C20.6555556,6.45878136 16.6222222,2.43727599 11.7333333,2.43727599 Z M11.7333333,19.3763441 C7.33333333,19.3763441 3.66666667,15.7204301 3.66666667,11.3333333 C3.66666667,6.94623656 7.33333333,3.41218638 11.7333333,3.29032258 C16.1333333,3.29032258 19.8,6.94623656 19.8,11.3333333 C19.8,15.8422939 16.1333333,19.3763441 11.7333333,19.3763441 Z"></path>
                                <path d="M11.7333333,22.0573477 C5.74444444,22.0573477 0.977777778,17.3046595 0.977777778,11.3333333 C0.977777778,5.36200717 5.74444444,0.609318996 11.7333333,0.609318996 C17.7222222,0.609318996 22.4888889,5.36200717 22.4888889,11.3333333 C22.4888889,17.3046595 17.7222222,22.0573477 11.7333333,22.0573477 Z M11.7333333,5.11827957 C8.31111111,5.24014337 5.5,8.04301075 5.5,11.3333333 C5.5,14.7455197 8.31111111,17.5483871 11.7333333,17.5483871 C15.1555556,17.5483871 17.9666667,14.7455197 17.9666667,11.3333333 C17.9666667,7.92114695 15.1555556,5.11827957 11.7333333,5.11827957 Z"></path>
                            </g>
                        </g>
                        <path d="M29.8222222,29.734767 L16.6222222,29.734767 L3.42222222,29.734767 L3.42222222,29.6129032 C3.54444444,28.7598566 3.66666667,28.0286738 3.91111111,27.1756272 C4.88888889,24.0071685 6.84444444,21.6917563 9.9,20.3512545 C10.2666667,20.2293907 10.5111111,20.2293907 10.7555556,20.4731183 C12.5888889,21.6917563 14.5444444,22.3010753 16.7444444,22.3010753 C18.9444444,22.3010753 20.9,21.6917563 22.7333333,20.4731183 C22.9777778,20.2293907 23.2222222,20.2293907 23.5888889,20.3512545 C26.5222222,21.8136201 28.6,24.0071685 29.5777778,27.1756272 C29.7,28.0286738 29.7,28.8817204 29.8222222,29.734767 C29.8222222,29.6129032 29.8222222,29.734767 29.8222222,29.734767 Z" id="Path" fill="#006F83"></path>
                    </g>
                    <path d="M16.6222222,19.3763441 C12.2222222,19.3763441 8.55555556,15.7204301 8.55555556,11.3333333 C8.55555556,6.94623656 12.2222222,3.41218638 16.6222222,3.29032258 C21.0222222,3.29032258 24.6888889,6.94623656 24.6888889,11.3333333 C24.6888889,15.8422939 21.0222222,19.3763441 16.6222222,19.3763441 Z" id="Path" fill="#FFE1BC"></path>
                    <path d="M22.6111111,16.6953405 C23.1,15.4767025 23.4666667,14.1362007 23.4666667,12.7956989 C23.4666667,8.53046595 20.6555556,4.75268817 16.7444444,3.41218638 C21.1444444,3.41218638 24.6888889,7.06810036 24.6888889,11.4551971 C24.6888889,13.4050179 23.8333333,15.3548387 22.6111111,16.6953405 Z" id="Path" fill="#FFDBB9"></path>
                    <path d="M29.8222222,29.6129032 L29.8222222,29.6129032 L25.5444444,29.734767 C25.4222222,28.6379928 25.3,27.4193548 25.0555556,26.2007168 C24.6888889,24.1290323 22.8555556,22.3010753 21.3888889,21.2043011 C21.8777778,20.9605735 22.2444444,20.7168459 22.6111111,20.4731183 C22.8555556,20.2293907 23.1,20.2293907 23.4666667,20.3512545 C26.5222222,21.8136201 28.4777778,24.0071685 29.4555556,27.1756272 C29.5777778,28.0286738 29.7,28.8817204 29.8222222,29.6129032 Z" id="Path" fill="#015767"></path>
                </g>
            </g>
            <g id="Group" transform="translate(0.000000, 32.000000)">
                <path d="M1.6,28.3 L1.6,6.1 C1.6,3.7 3.8,1.9 6.4,1.9 L11.3,1.9 C14,1.9 16.1,3.8 16.1,6.1 L16.1,28.3 C16.1,30.7 13.9,32.5 11.3,32.5 L6.4,32.5 C3.8,32.5 1.6,30.6 1.6,28.3 Z" id="Path" fill="#61BACA"></path>
                <path d="M16.1,18.4 L16.1,28.3 C16.1,30.7 13.9,32.5 11.3,32.5 L6.4,32.5 C3.7,32.5 1.6,30.6 1.6,28.3 L1.6,23.1" id="Path" fill="#57AAB2"></path>
                <path d="M0.1,28.3 L0.1,6.1 C0.1,3 2.9,0.6 6.4,0.6 L11.3,0.6 C14.8,0.6 17.6,3 17.6,6.1 L17.6,28.3 C17.6,31.4 14.8,33.8 11.3,33.8 L6.4,33.8 C3,33.8 0.1,31.3 0.1,28.3 Z M14.6,6.1 C14.6,4.5 13.1,3.2 11.3,3.2 L6.4,3.2 C4.6,3.2 3.1,4.5 3.1,6.1 L3.1,28.3 C3.1,29.9 4.6,31.2 6.4,31.2 L11.3,31.2 C13.1,31.2 14.6,29.9 14.6,28.3 C14.6,28.3 14.6,6.1 14.6,6.1 Z" id="Shape" fill="#1E1713"></path>
            </g>
            <polygon id="Path" fill="#000000" points="16.1 42.3 15.7 39.5 25.2 38.3 25.2 41"></polygon>
            <path d="M25.3,61.1 C24.4,61.1 22.2,60.1 15.3,58.6 L15.8,56.2 C19.1,56.9 24.7,58.3 25.2,58.3 C25.3,58.3 25.7,61.1 25.3,61.1 Z" id="Path" fill="#000000"></path>
        </g>
    </g>
</svg>