<?xml version="1.0" encoding="UTF-8"?>
<svg width="85px" height="85px" viewBox="0 0 85 85" version="1.1" xmlns="http://www.w3.org/2000/svg" xmlns:xlink="http://www.w3.org/1999/xlink">
    <!-- Generator: Sketch 53.2 (72643) - https://sketchapp.com -->
    <title>icon/big/declaration</title>
    <desc>Created with Sketch.</desc>
    <defs>
        <rect id="path-1" x="0" y="0" width="85" height="85"></rect>
        <polygon id="path-3" points="0.6 0.4 38 0.4 38 83.6999 0.6 83.6999"></polygon>
        <polygon id="path-5" points="0 0.5 37.9998 0.5 37.9998 18 0 18"></polygon>
    </defs>
    <g id="icon/big/declaration" stroke="none" stroke-width="1" fill="none" fill-rule="evenodd">
        <mask id="mask-2" fill="white">
            <use xlink:href="#path-1"></use>
        </mask>
        <g id="Background"></g>
        <path d="M72.9544658,11 L11.0455342,11 C8.83887916,11 7,12.5 7,14.3 L7,78.7 C7,80.5 8.83887916,82 11.0455342,82 L72.9544658,82 C75.1611208,82 77,80.5 77,78.7 L77,14.3 C77,12.5 75.1611208,11 72.9544658,11 Z" id="Path" fill="#FFB531" fill-rule="nonzero" mask="url(#mask-2)"></path>
        <g id="Group-17" mask="url(#mask-2)">
            <g transform="translate(24.000000, -1.000000)">
                <path d="M28.6112,31.7002 L27.8112,41.5261321 L26.4112,41.9002 C20.6104737,42.2785082 19,45.4989 18.3,49.8999 L16.1,49.8999 C16.7,44.6999 21.2112,40.7002 26.4112,39.9002 L26.4112,31.6002 L26.4112,31.4002 C26.5112,29.3002 28.4112,26.8002 30.4112,26.8002 L30.4112,8.5002 C30.4112,7.1002 29.2112,5.9002 27.8112,5.9002 C26.4112,5.9002 25.2112,7.1002 25.2112,8.5002 L25.2112,27.9002 L23.4112,27.9002 L23.4112,6.5002 C23.4112,5.1002 22.2112,3.9002 20.8112,3.9002 L20.6112,3.9002 C19.2112,3.9002 18.0112,5.1002 18.0112,6.5002 L18.0112,29.3002 L16.2112,29.3002 L16.2112,9.8002 C16.2112,8.4002 15.0112,7.2002 13.6112,7.2002 L13.4112,7.2002 C12.0112,7.2002 10.8112,8.4002 10.8112,9.8002 L10.8112,31.2002 L9.0112,31.2002 L9.0112,15.9002 C9.0112,14.5002 7.8112,13.3002 6.4112,13.3002 C5.0112,13.3002 3.8112,14.5002 3.8112,15.9002 L3.8112,50.6992 C4.1112,54.0002 6.0112,56.8002 8.7112,58.3002 L8.7112,80.0002 C12.1112,80.9002 15.7112,81.3002 19.4112,81.3002 C23.1112,81.3002 26.7112,80.8002 30.1112,80.0002 L30.1112,58.8002 C33.0112,57.5002 35.0112,54.6002 35.0112,51.1992 L35.0112,31.7002 C35.5112,29.8002 33.9112,28.3002 32.0112,28.3002 C30.1112,28.3002 28.6112,29.9002 28.6112,31.7002 Z" id="Fill-1" fill="#FFE1BC"></path>
                <path d="M26,39.8998 L26,39.8998 L26,31.5998 L26,31.3998 C26.1,29.2998 28,26.7998 30,26.7998 L30,8.4998 C30,7.0998 28.8,5.8998 27.4,5.8998 C26,5.8998 24.8,7.0998 24.8,8.4998 L24.8,27.8998 L23,27.8998 L23,6.4998 C23,5.0998 21.8,3.8998 20.4,3.8998 L20.2,3.8998 C19.8,3.8998 19.5,3.9998 19.2,4.0998 L19.2,43.2998 C21,41.5998 23.4,40.2998 26,39.8998" id="Fill-3" fill="#FFDBB9"></path>
                <path d="M31.5,28.3002 C29.6,28.3002 28.1,29.9002 28.1,31.7002 L28.1,41.8002 L27.1,41.9002 C23.7,42.1002 20.8,44.1992 19.3,47.0002 L19.3,81.3002 C23,81.3002 26.6,80.8002 30,80.0002 L30,58.8002 C32.9,57.5002 34.9,54.6002 34.9,51.1992 L34.9,31.7002 C35,29.8002 33.4,28.3002 31.5,28.3002" id="Fill-5" fill="#FFDBB9"></path>
                <g id="Group-9" stroke-width="1" fill="none" transform="translate(0.000000, 0.600000)">
                    <mask id="mask-4" fill="white">
                        <use xlink:href="#path-3"></use>
                    </mask>
                    <g id="Clip-8"></g>
                    <path d="M20.5,0.3999 L20.3,0.3999 C19.9,0.3999 19.5,0.3999 19.2,0.4999 L19,0.4999 L18.9,0.4999 C18.6,0.5999 18.4,0.6999 18.1,0.7999 C16.7,1.3999 15.6,2.4999 15.1,3.8999 C14.6,3.6999 14,3.5999 13.4,3.5999 L13.2,3.5999 C10.1,3.5999 7.6,6.0999 7.6,9.1999 L7.6,9.8999 C7.2,9.7999 6.7,9.6999 6.2,9.6999 C3.1,9.6999 0.6,12.1999 0.6,15.2999 L0.6,45.9999 L0.6,50.0999 L0.6,50.1999 L0.6,50.2999 C0.9,53.8999 2.7,57.0999 5.5,59.2999 L5.5,79.3999 L5.5,81.6999 L7.8,82.2999 C11.5,83.1999 15.3,83.6999 19.1,83.6999 L19.2,83.6999 C23.1,83.6999 26.9,83.1999 30.7,82.2999 L33,81.6999 L33,79.3999 L33,59.8999 C36.1,57.7999 38,54.2999 38,50.4999 L38,31.0999 C38,29.3999 37.3,27.6999 36.1,26.4999 C35.2,25.6999 34.2,25.0999 33.1,24.7999 L33.1,23.7999 L33.1,18.4999 L33.1,7.6999 C33.1,4.5999 30.6,2.0999 27.5,2.0999 C26.7,2.0999 25.8,2.2999 25.1,2.5999 C24.9,2.2999 24.7,2.0999 24.5,1.8999 C24,1.3999 23.4,0.9999 22.7,0.6999 C22,0.4999 21.3,0.3999 20.5,0.3999 M20.5,3.3999 C20.9,3.3999 21.2,3.4999 21.5,3.5999 C21.8,3.6999 22.1,3.8999 22.3,4.1999 C22.8,4.6999 23.1,5.2999 23.1,5.9999 L23.1,27.2999 L24.9,27.2999 L24.9,7.7999 C24.9,6.3999 26.1,5.1999 27.5,5.1999 C28.9,5.1999 30.1,6.3999 30.1,7.7999 L30.1,26.0999 C28,26.0999 26.2,28.5999 26.1,30.6999 L26.1,30.8999 L26.1,39.1999 C25.8,39.2999 25.5,39.2999 25.1,39.3999 C25,39.3999 24.9,39.4999 24.8,39.4999 C24.6,39.5999 24.4,39.5999 24.1,39.6999 C24,39.6999 23.9,39.7999 23.8,39.7999 C23.6,39.8999 23.4,39.9999 23.2,39.9999 C23.1,39.9999 23.1,40.0999 23,40.0999 C22.8,40.1999 22.6,40.2999 22.4,40.3999 C22.3,40.3999 22.3,40.4999 22.2,40.4999 C22,40.5999 21.8,40.6999 21.6,40.8999 C21.5,40.8999 21.5,40.9999 21.4,40.9999 C21.2,41.0999 21,41.2999 20.8,41.3999 C20.7,41.3999 20.7,41.4999 20.6,41.4999 C20.4,41.6999 20.2,41.7999 20,41.9999 C19.9,41.9999 19.9,42.0999 19.8,42.0999 C19.6,42.2999 19.4,42.3999 19.3,42.5999 C17.6,44.3999 16.4,46.6999 16.1,49.2999 L18.3,49.2999 C18.5,48.1999 18.8,47.0999 19.3,46.1999 C19.5,45.8999 19.7,45.5999 19.9,45.2999 C19.9,45.1999 20,45.1999 20,45.0999 C20.2,44.7999 20.4,44.4999 20.7,44.2999 C20.9,43.9999 21.2,43.7999 21.5,43.5999 L21.7,43.3999 C22,43.1999 22.3,42.9999 22.6,42.7999 C22.9,42.5999 23.2,42.3999 23.5,42.2999 C23.6,42.2999 23.7,42.1999 23.7,42.1999 C24,41.9999 24.4,41.8999 24.7,41.7999 C25,41.6999 25.4,41.5999 25.8,41.4999 C25.9,41.4999 26,41.4999 26.1,41.3999 C26.5,41.2999 26.8,41.2999 27.2,41.1999 L28.2,41.0999 L28.2,31.0999 C28.2,29.1999 29.7,27.6999 31.6,27.6999 C32.5,27.6999 33.4,28.0999 34,28.6999 C34.6,29.2999 35,30.1999 35,31.0999 L35,50.4999 C35,53.8999 33,56.7999 30.1,58.0999 L30.1,79.2999 C26.7,80.1999 23.1,80.5999 19.4,80.5999 C15.7,80.5999 12.1,80.0999 8.7,79.2999 L8.7,57.5999 C6,56.0999 4.1,53.2999 3.8,49.9999 L3.8,45.8999 L3.8,15.2999 C3.8,13.8999 5,12.6999 6.4,12.6999 C7.8,12.6999 9,13.8999 9,15.2999 L9,30.5999 L10.8,30.5999 L10.8,9.1999 C10.8,7.7999 12,6.5999 13.4,6.5999 L13.6,6.5999 C15,6.5999 16.2,7.7999 16.2,9.1999 L16.2,28.6999 L18,28.6999 L18,5.8999 C18,4.7999 18.7,3.8999 19.6,3.4999 C19.7,3.3999 19.9,3.3999 20,3.3999 C20.2,3.3999 20.3,3.2999 20.5,3.3999" id="Fill-7" fill="#1E1713" mask="url(#mask-4)"></path>
                </g>
                <path d="M31.7002,84.1 L6.3002,84.1 C3.6002,84.1 1.5002,81.9 1.5002,79.3 L1.5002,74.4 C1.5002,71.7 3.7002,69.6 6.3002,69.6 L31.7002,69.6 C34.4002,69.6 36.5002,71.8 36.5002,74.4 L36.5002,79.3 C36.5002,81.9 34.3002,84.1 31.7002,84.1" id="Fill-10" fill="#61BACA"></path>
                <path d="M20.3999,69.6 L31.6999,69.6 C34.3999,69.6 36.4999,71.8 36.4999,74.4 L36.4999,79.3 C36.4999,82 34.2999,84.1 31.6999,84.1 L25.7999,84.1" id="Fill-12" fill="#57AAB2"></path>
                <g id="Group-16" stroke-width="1" fill="none" transform="translate(0.000000, 67.600000)">
                    <mask id="mask-6" fill="white">
                        <use xlink:href="#path-5"></use>
                    </mask>
                    <g id="Clip-15"></g>
                    <path d="M6.2998,3.5 C4.4808,3.5 2.9998,4.98 2.9998,6.8 L2.9998,11.7 C2.9998,13.52 4.4808,15 6.2998,15 L31.6998,15 C33.4578,15 34.9998,13.458 34.9998,11.7 L34.9998,6.8 C34.9998,4.98 33.5198,3.5 31.6998,3.5 L6.2998,3.5 Z M31.6998,18 L6.2998,18 C2.8258,18 -0.0002,15.174 -0.0002,11.7 L-0.0002,6.8 C-0.0002,3.326 2.8258,0.5 6.2998,0.5 L31.6998,0.5 C35.1738,0.5 37.9998,3.326 37.9998,6.8 L37.9998,11.7 C37.9998,15.115 35.1148,18 31.6998,18 L31.6998,18 Z" id="Fill-14" fill="#1E1713" mask="url(#mask-6)"></path>
                </g>
            </g>
        </g>
    </g>
</svg>