<?xml version="1.0" encoding="UTF-8"?>
<svg width="85px" height="85px" viewBox="0 0 85 85" version="1.1" xmlns="http://www.w3.org/2000/svg" xmlns:xlink="http://www.w3.org/1999/xlink">
    <!-- Generator: Sketch 53.2 (72643) - https://sketchapp.com -->
    <title>icon/big/microphone</title>
    <desc>Created with Sketch.</desc>
    <g id="icon/big/microphone" stroke="none" stroke-width="1" fill="none" fill-rule="evenodd">
        <g id="Group" transform="translate(19.000000, 5.000000)" fill-rule="nonzero">
            <g transform="translate(0.756761, 1.000000)">
                <path d="M21.5,64.3439024 C10.0638298,64.3439024 0.731914894,55.1390244 0.731914894,43.8585366 L0.731914894,36.1878049 C0.731914894,35.4658537 1.28085106,34.9243902 2.01276596,34.9243902 C2.74468085,34.9243902 3.29361702,35.4658537 3.29361702,36.1878049 L3.29361702,43.8585366 C3.29361702,53.695122 11.4361702,61.7268293 21.4085106,61.7268293 C31.3808511,61.7268293 39.5234043,53.695122 39.5234043,43.8585366 L39.5234043,36.1878049 C39.5234043,35.4658537 40.0723404,34.9243902 40.8042553,34.9243902 C41.5361702,34.9243902 42.0851064,35.4658537 42.0851064,36.1878049 L42.0851064,43.8585366 C42.2680851,55.1390244 32.9361702,64.3439024 21.5,64.3439024 Z" id="Path" fill="#000000"></path>
                <path d="M21.5,56.6731707 L21.5,56.6731707 C14.3638298,56.6731707 8.50851064,50.897561 8.50851064,43.8585366 L8.50851064,13.1756098 C8.50851064,6.13658537 14.3638298,0.36097561 21.5,0.36097561 L21.5,0.36097561 C28.6361702,0.36097561 34.4914894,6.13658537 34.4914894,13.1756098 L34.4914894,43.8585366 C34.4914894,50.897561 28.6361702,56.6731707 21.5,56.6731707 Z" id="Path" fill="#61BACA"></path>
                <path d="M21.5,73.2780488 C20.7680851,73.2780488 20.2191489,72.7365854 20.2191489,72.0146341 L20.2191489,63.0804878 C20.2191489,62.3585366 20.7680851,61.8170732 21.5,61.8170732 C22.2319149,61.8170732 22.7808511,62.3585366 22.7808511,63.0804878 L22.7808511,72.0146341 C22.7808511,72.7365854 22.2319149,73.2780488 21.5,73.2780488 Z" id="Path" fill="#000000"></path>
                <path d="M29.2765957,73.2780488 L13.7234043,73.2780488 C12.9914894,73.2780488 12.4425532,72.7365854 12.4425532,72.0146341 C12.4425532,71.2926829 12.9914894,70.7512195 13.7234043,70.7512195 L29.2765957,70.7512195 C30.0085106,70.7512195 30.5574468,71.2926829 30.5574468,72.0146341 C30.5574468,72.7365854 30.0085106,73.2780488 29.2765957,73.2780488 Z" id="Path" fill="#000000"></path>
                <g transform="translate(8.234043, 2.707317)" fill="#80E7FF" id="Oval">
                    <ellipse cx="13.2659574" cy="1.53414634" rx="1.28085106" ry="1.26341463"></ellipse>
                    <ellipse cx="9.42340426" cy="5.41463415" rx="1.28085106" ry="1.26341463"></ellipse>
                    <ellipse cx="1.64680851" cy="13.0853659" rx="1.28085106" ry="1.26341463"></ellipse>
                    <ellipse cx="9.42340426" cy="13.0853659" rx="1.28085106" ry="1.26341463"></ellipse>
                    <ellipse cx="5.4893617" cy="9.20487805" rx="1.28085106" ry="1.26341463"></ellipse>
                    <ellipse cx="13.2659574" cy="9.20487805" rx="1.28085106" ry="1.26341463"></ellipse>
                    <ellipse cx="5.4893617" cy="16.8756098" rx="1.28085106" ry="1.26341463"></ellipse>
                    <ellipse cx="13.2659574" cy="16.8756098" rx="1.28085106" ry="1.26341463"></ellipse>
                    <ellipse cx="17.1085106" cy="5.41463415" rx="1.28085106" ry="1.26341463"></ellipse>
                    <ellipse cx="17.1085106" cy="13.0853659" rx="1.28085106" ry="1.26341463"></ellipse>
                    <ellipse cx="21.0425532" cy="9.20487805" rx="1.28085106" ry="1.26341463"></ellipse>
                    <ellipse cx="21.0425532" cy="16.8756098" rx="1.28085106" ry="1.26341463"></ellipse>
                    <ellipse cx="1.64680851" cy="20.7560976" rx="1.28085106" ry="1.26341463"></ellipse>
                    <ellipse cx="9.42340426" cy="20.7560976" rx="1.28085106" ry="1.26341463"></ellipse>
                    <ellipse cx="1.64680851" cy="28.4268293" rx="1.28085106" ry="1.26341463"></ellipse>
                    <ellipse cx="9.42340426" cy="28.4268293" rx="1.28085106" ry="1.26341463"></ellipse>
                    <ellipse cx="5.4893617" cy="24.5463415" rx="1.28085106" ry="1.26341463"></ellipse>
                    <ellipse cx="13.2659574" cy="24.5463415" rx="1.28085106" ry="1.26341463"></ellipse>
                    <ellipse cx="5.4893617" cy="32.2170732" rx="1.28085106" ry="1.26341463"></ellipse>
                    <ellipse cx="13.2659574" cy="32.2170732" rx="1.28085106" ry="1.26341463"></ellipse>
                    <ellipse cx="17.1085106" cy="20.7560976" rx="1.28085106" ry="1.26341463"></ellipse>
                    <ellipse cx="17.1085106" cy="28.4268293" rx="1.28085106" ry="1.26341463"></ellipse>
                    <ellipse cx="21.0425532" cy="24.5463415" rx="1.28085106" ry="1.26341463"></ellipse>
                    <ellipse cx="21.0425532" cy="32.2170732" rx="1.28085106" ry="1.26341463"></ellipse>
                    <ellipse cx="1.64680851" cy="36.097561" rx="1.28085106" ry="1.26341463"></ellipse>
                    <ellipse cx="9.42340426" cy="36.097561" rx="1.28085106" ry="1.26341463"></ellipse>
                    <ellipse cx="24.8851064" cy="13.0853659" rx="1.28085106" ry="1.26341463"></ellipse>
                    <ellipse cx="24.8851064" cy="20.7560976" rx="1.28085106" ry="1.26341463"></ellipse>
                    <ellipse cx="24.8851064" cy="28.4268293" rx="1.28085106" ry="1.26341463"></ellipse>
                    <ellipse cx="24.8851064" cy="36.097561" rx="1.28085106" ry="1.26341463"></ellipse>
                    <ellipse cx="9.42340426" cy="43.7682927" rx="1.28085106" ry="1.26341463"></ellipse>
                    <ellipse cx="5.4893617" cy="39.8878049" rx="1.28085106" ry="1.26341463"></ellipse>
                    <ellipse cx="13.2659574" cy="39.8878049" rx="1.28085106" ry="1.26341463"></ellipse>
                    <ellipse cx="5.4893617" cy="47.5585366" rx="1.28085106" ry="1.26341463"></ellipse>
                    <ellipse cx="13.2659574" cy="47.5585366" rx="1.28085106" ry="1.26341463"></ellipse>
                    <ellipse cx="17.1085106" cy="36.097561" rx="1.28085106" ry="1.26341463"></ellipse>
                    <ellipse cx="17.1085106" cy="43.7682927" rx="1.28085106" ry="1.26341463"></ellipse>
                    <ellipse cx="21.0425532" cy="39.8878049" rx="1.28085106" ry="1.26341463"></ellipse>
                    <ellipse cx="21.0425532" cy="47.5585366" rx="1.28085106" ry="1.26341463"></ellipse>
                    <ellipse cx="9.42340426" cy="51.4390244" rx="1.28085106" ry="1.26341463"></ellipse>
                    <ellipse cx="17.1085106" cy="51.4390244" rx="1.28085106" ry="1.26341463"></ellipse>
                </g>
            </g>
            <path d="M21.7567609,59 C13.9987991,59 7.75676089,52.6850153 7.75676089,44.8363914 L7.75676089,14.1636086 C7.75676089,6.31498471 13.9987991,0 21.7567609,0 C29.5147227,0 35.7567609,6.31498471 35.7567609,14.1636086 L35.7567609,44.8363914 C35.7567609,52.6850153 29.5147227,59 21.7567609,59 Z M21.7567609,2.79663609 C15.5147227,2.79663609 10.5210921,7.93883792 10.5210921,14.1636086 L10.5210921,44.8363914 C10.5210921,51.1513761 15.6038946,56.2033639 21.7567609,56.2033639 C27.9096271,56.2033639 32.9924297,51.0611621 32.9924297,44.8363914 L32.9924297,14.1636086 C32.9924297,7.93883792 27.9987991,2.79663609 21.7567609,2.79663609 Z" id="Shape" fill="#000000"></path>
        </g>
    </g>
</svg>