<?xml version="1.0" encoding="UTF-8"?>
<svg width="45px" height="34px" viewBox="0 0 45 34" version="1.1" xmlns="http://www.w3.org/2000/svg" xmlns:xlink="http://www.w3.org/1999/xlink">
    <!-- Generator: Sketch 53.2 (72643) - https://sketchapp.com -->
    <title>tube-queue</title>
    <desc>Created with Sketch.</desc>
    <g id="Symbols" stroke="none" stroke-width="1" fill="none" fill-rule="evenodd" fill-opacity="0.196268575">
        <g id="card/notary/customer/none" transform="translate(-105.000000, -73.000000)" fill="#333333" fill-rule="nonzero">
            <g id="Group" transform="translate(46.000000, 50.000000)">
                <g id="tube-queue" transform="translate(59.000000, 23.000000)">
                    <path d="M43.3543371,33.75 L37.7724295,33.75 C37.4122574,33.75 37.1203375,33.4611745 37.1203375,33.1048202 L37.1203375,16.2935855 C37.1203375,14.5060073 38.5901529,13.0519872 40.3966652,13.0519872 L40.7298842,13.0519872 C42.5366138,13.0519872 44.0062118,14.5062224 44.0062118,16.2935855 L44.0062118,33.1048202 C44.0064291,33.4611745 43.7145093,33.75 43.3543371,33.75 Z M38.4245216,32.4596404 L42.7022451,32.4596404 L42.7022451,16.2935855 C42.7022451,15.2176406 41.8175736,14.3423467 40.7301015,14.3423467 L40.3968825,14.3423467 C39.3094104,14.3423467 38.4247389,15.2176406 38.4247389,16.2935855 L38.4247389,32.4596404 L38.4245216,32.4596404 Z M31.312154,33.75 L25.7302464,33.75 C25.3700743,33.75 25.0781544,33.4611745 25.0781544,33.1048202 L25.0781544,13.3203819 C25.0781544,11.5328038 26.5479698,10.0787836 28.354482,10.0787836 L28.6877011,10.0787836 C30.4944307,10.0787836 31.9640287,11.5330189 31.9640287,13.3203819 L31.9640287,33.1048202 C31.964246,33.4611745 31.6721088,33.75 31.312154,33.75 Z M26.3823385,32.4596404 L30.660062,32.4596404 L30.660062,13.3203819 C30.660062,12.2444371 29.7753905,11.3691432 28.6879184,11.3691432 L28.3546994,11.3691432 C27.2672273,11.3691432 26.3825558,12.2444371 26.3825558,13.3203819 L26.3825558,32.4596404 L26.3823385,32.4596404 Z M19.2697536,33.75 L13.687846,33.75 C13.3276738,33.75 13.035754,33.4611745 13.035754,33.1048202 L13.035754,18.1233154 C13.035754,16.3357372 14.5055693,14.881717 16.3120816,14.881717 L16.6453006,14.881717 C18.4520302,14.881717 19.9216282,16.3359523 19.9216282,18.1233154 L19.9216282,33.1048202 C19.9218456,33.4611745 19.6299257,33.75 19.2697536,33.75 Z M14.3401553,32.4596404 L18.6178789,32.4596404 L18.6178789,18.1233154 C18.6178789,17.0473705 17.7332074,16.1720766 16.6457353,16.1720766 L16.3125163,16.1720766 C15.2250442,16.1720766 14.3403727,17.0473705 14.3403727,18.1233154 L14.3403727,32.4596404 L14.3401553,32.4596404 Z M7.22757045,33.75 L1.64566286,33.75 C1.28549071,33.75 0.993570856,33.4611745 0.993570856,33.1048202 L0.993570856,16.2935855 C0.993570856,14.5060073 2.46338624,13.0519872 4.26989847,13.0519872 L4.60311748,13.0519872 C6.40984707,13.0519872 7.87944509,14.5062224 7.87944509,16.2935855 L7.87944509,33.1048202 C7.87966246,33.4611745 7.5877426,33.75 7.22757045,33.75 Z M2.29775487,32.4596404 L6.57547844,32.4596404 L6.57547844,16.2935855 C6.57547844,15.2176406 5.69080695,14.3423467 4.60333485,14.3423467 L4.27011583,14.3423467 C3.18264373,14.3423467 2.29797224,15.2176406 2.29797224,16.2935855 L2.29797224,32.4596404 L2.29775487,32.4596404 Z M16.4790171,13.9212594 C14.2123453,13.9212594 12.3684465,12.096906 12.3684465,9.85426105 C12.3684465,7.6116161 14.2123453,5.78726272 16.4790171,5.78726272 C18.7456889,5.78726272 20.5895878,7.6116161 20.5895878,9.85426105 C20.5895878,12.096906 18.7454716,13.9212594 16.4790171,13.9212594 Z M16.4790171,7.0776223 C14.9316028,7.0776223 13.6726305,8.32324941 13.6726305,9.85426105 C13.6726305,11.3852727 14.9316028,12.6308998 16.4790171,12.6308998 C18.0264315,12.6308998 19.2854038,11.3852727 19.2854038,9.85426105 C19.2854038,8.32324941 18.0264315,7.0776223 16.4790171,7.0776223 Z M40.5633833,11.7525951 C38.1169515,11.7525951 36.1267667,9.78329128 36.1267667,7.36279176 C36.1267667,4.94229225 38.1169515,2.97320353 40.5633833,2.97320353 C43.0098152,2.97320353 45,4.94229225 45,7.36279176 C45,9.78329128 43.0098152,11.7525951 40.5633833,11.7525951 Z M40.5633833,4.26356311 C38.836209,4.26356311 37.4309507,5.65392556 37.4309507,7.36279176 C37.4309507,9.07187303 38.836209,10.4622355 40.5633833,10.4622355 C42.2905577,10.4622355 43.695816,9.07187303 43.695816,7.36279176 C43.695816,5.6537105 42.2907751,4.26356311 40.5633833,4.26356311 Z M4.43661666,11.7525951 C1.99018481,11.7525951 0,9.78329128 0,7.36279176 C0,4.94229225 1.99018481,2.97320353 4.43661666,2.97320353 C6.88304851,2.97320353 8.87323331,4.94229225 8.87323331,7.36279176 C8.87323331,9.78329128 6.88304851,11.7525951 4.43661666,11.7525951 Z M4.43661666,4.26356311 C2.70944229,4.26356311 1.30418402,5.6537105 1.30418402,7.36279176 C1.30418402,9.07187303 2.70944229,10.4622355 4.43661666,10.4622355 C6.16379102,10.4622355 7.5690493,9.07187303 7.5690493,7.36279176 C7.5690493,5.6537105 6.16379102,4.26356311 4.43661666,4.26356311 Z M28.5212002,8.77917646 C26.0747684,8.77917646 24.0845836,6.81008774 24.0845836,4.38958823 C24.0845836,1.96908872 26.0747684,0 28.5212002,0 C30.9676321,0 32.9578169,1.96908872 32.9578169,4.38958823 C32.9578169,6.81008774 30.9676321,8.77917646 28.5212002,8.77917646 Z M28.5212002,1.29014452 C26.7940259,1.29014452 25.3887676,2.68050697 25.3887676,4.38937317 C25.3887676,6.09823938 26.7940259,7.48860182 28.5212002,7.48860182 C30.2483746,7.48860182 31.6536329,6.09823938 31.6536329,4.38937317 C31.6536329,2.68050697 30.2483746,1.29014452 28.5212002,1.29014452 Z" id="Shape"></path>
                </g>
            </g>
        </g>
    </g>
</svg>