<?xml version="1.0" encoding="UTF-8"?>
<svg width="85px" height="85px" viewBox="0 0 85 85" version="1.1" xmlns="http://www.w3.org/2000/svg" xmlns:xlink="http://www.w3.org/1999/xlink">
    <!-- Generator: Sketch 53.2 (72643) - https://sketchapp.com -->
    <title>icon/big/notary</title>
    <desc>Created with Sketch.</desc>
    <g id="icon/big/notary" stroke="none" stroke-width="1" fill="none" fill-rule="evenodd">
        <g id="Group-2" transform="translate(2.000000, 13.000000)" fill-rule="nonzero">
            <path d="M21.3,29.1 C21,24.2 17.3,20.2 12.4,20.2 C7.5,20.2 3.9,24.2 3.5,29.1 C3.3,32 3.5,36.7 2.2,39.2 C2.2,39.2 3.5,41.7 8.1,43 L16.5,43 C21.1,41.7 22.4,39.2 22.4,39.2 C21.3,36.7 21.5,32 21.3,29.1 Z" id="Path" fill="#694B4B"></path>
            <path d="M11.2,29.1 C6.3,26.7 7.3,21.9 10.8,20.4 C6.8,21.2 3.9,24.8 3.6,29.1 C3.4,32 3.6,36.7 2.3,39.2 C2.3,39.2 3.6,41.7 8.2,43 L12.2,43 L11.2,29.1 Z" id="Path" fill="#5A4146"></path>
            <path d="M21.8,46 L17.7,44 C16.8,43.5 16.3,42.7 16.3,41.7 L16.3,37.9 L8.7,37.9 L8.7,41.7 C8.7,42.7 8.2,43.5 7.3,44 L3.2,46 C1.9,46.6 1.1,48 1.1,49.4 L1.1,58.1 L23.9,58.1 L23.9,49.4 C23.9,48 23,46.7 21.8,46 Z" id="Path" fill="#FFE1BC"></path>
            <path d="M23.9,49.4 C23.9,48 23.1,46.6 21.8,46 L17.7,44 C17.5,43.9 17.3,43.7 17.1,43.5 L15.6,45.1 C13.9,47 11.1,47 9.4,45.1 L7.9,43.5 C7.7,43.7 7.5,43.8 7.3,44 L3.2,46 C1.9,46.6 1.1,48 1.1,49.4 L1.1,58.1 L23.9,58.1 L23.9,49.4 L23.9,49.4 Z" id="Path" fill="#FFB531"></path>
            <path d="M12.5,40.4 L12.5,40.4 C9.6,40.4 7.1,38.8 5.8,36.4 C4.9,34.8 5.5,32.7 7,31.7 C7.3,31.5 7.6,31.3 7.9,31 C8.8,30.2 9.3,29.3 9.6,28.7 C9.9,28.2 10.4,27.9 11,28 C15.5,29.1 18.5,31.5 19.6,32.4 C19.9,32.7 20.1,33 20,33.4 C19.7,37.4 16.5,40.4 12.5,40.4 Z" id="Path" fill="#FFE1BC"></path>
            <path d="M19.6,32.4 C18.5,31.5 15.5,29.1 11,28 C10.4,27.9 9.8,28.2 9.6,28.7 C9.4,29.2 9,29.8 8.4,30.4 C8.4,30.4 8.4,30.4 8.4,30.4 C8.2,30.6 8,30.8 7.8,31 C7.5,31.3 7.2,31.5 7,31.7 C5.2,32.9 4.9,35.2 6,36.9 C7.2,38.7 9.1,40 11.3,40.3 C9.8,39.3 8.7,37.9 8.7,35.3 L8.7,34.3 C9,34.1 9.3,33.9 9.6,33.6 C10.3,33 10.9,32.2 11.4,31.5 C14.8,32.6 17.1,34.3 18,35.1 C18.2,35.3 18.6,35.6 19.3,36.3 C19.7,35.6 20.1,34.2 20.1,33.4 C20.1,33.1 19.9,32.7 19.6,32.4 Z" id="Path" fill="#FFDBB9"></path>
            <g id="Group" transform="translate(0.800000, 46.700000)">
                <path d="M1.1,0.4 C0.6,1 0.3,1.8 0.3,2.7 L0.3,11.4 L5.4,11.4 L5.4,5 C5.4,4.2 5.1,3.5 4.5,3 L1.1,0.4 Z" id="Path" fill="#FDAB17"></path>
                <path d="M22.3,0.4 C22.8,1 23.1,1.8 23.1,2.7 L23.1,11.4 L18,11.4 L18,5 C18,4.2 18.3,3.5 18.9,3 L22.3,0.4 Z" id="Path" fill="#C7CFE2"></path>
            </g>
            <path d="M58,25.3 L58,26.2 C58,27.3 58.2,28.4 58.5,29.4 L60.5,35.4 L64.3,35.4 L64.3,21.5 L61.8,21.5 C59.7,21.5 58,23.2 58,25.3 Z" id="Path" fill="#5A4146"></path>
            <path d="M75.4,27.6 L73.2,35.4 L63.1,26.5 C61.7,26.5 60.6,25.4 60.6,24 L60.6,24 C60.6,21.9 62.3,20.2 64.4,20.2 L75.8,20.2 L75.8,25.5 C75.7,26.2 75.6,26.9 75.4,27.6 Z" id="Path" fill="#694B4B"></path>
            <rect id="Rectangle" fill="#FFDBB9" x="63.1" y="39.2" width="7.6" height="7.6"></rect>
            <path d="M76.8,44 L70.7,42.3 L66.9,46.8 L63.1,42.3 L57,44 C55.4,44.5 54.2,46 54.2,47.6 L54.2,58.1 L79.5,58.1 L79.5,47.6 C79.5,45.9 78.4,44.5 76.8,44 Z" id="Path" fill="#D5DCED"></path>
            <path d="M66.9,40.4 L66.9,40.4 C62.7,40.4 59.3,37 59.3,32.8 L59.3,32.8 C59.3,31.2 59.9,29.6 61.1,28.5 L62.3,27.3 C62.8,26.8 63.4,26.5 64.1,26.6 C68.1,26.7 71.7,27.6 73.7,29.5 C74.2,30 74.4,30.6 74.4,31.3 L74.4,32.9 C74.4,37.1 71,40.4 66.9,40.4 Z" id="Path" fill="#FFE1BC"></path>
            <path d="M63.1,32.9 C63.1,31.4 64.3,30.3 65.8,30.4 C68.4,30.6 72.1,31 74.5,32.1 C74.4,31.6 74.2,29.9 73.8,29.5 C71.8,27.6 68.3,26.7 64.2,26.6 L64.2,26.6 L64.2,26.6 C63.5,26.6 62.8,26.9 62.4,27.3 L61.2,28.5 C60.1,29.6 59.4,31.2 59.4,32.8 L59.4,32.8 C59.4,36.3 61.7,39.2 64.9,40.1 C63.8,38.8 63.2,37.1 63.2,35.3 L63.1,32.9 L63.1,32.9 Z" id="Path" fill="#FFDBB9"></path>
            <path d="M74.4,51.4 C74.4,50.4 74.8,49.4 75.5,48.7 L78.8,45.4 C79.2,46 79.5,46.8 79.5,47.6 L79.5,58.1 L74.4,58.1 L74.4,51.4 Z" id="Path" fill="#C7CFE2"></path>
            <path d="M58.5,44.3 L47.9,40.5 L40.3,43 L32.7,40.5 L22.1,44.3 C20.1,45 18.8,46.9 18.8,49.1 L18.8,58.2 L61.8,58.2 L61.8,49.1 C61.8,46.9 60.5,45 58.5,44.3 Z" id="Path" fill="#61BACA"></path>
            <path d="M60.4,45.6 C61.3,46.5 61.8,47.7 61.8,49 L61.8,58.1 L54.2,58.1 L54.2,53.9 C54.2,52.6 54.7,51.3 55.7,50.3 L60.4,45.6 Z" id="Path" fill="#3DAABE"></path>
            <path d="M54.2,14.4 L54.2,3.8 C54.2,2.4 53.1,1.3 51.7,1.3 L36.5,1.3 C30.9,1.3 26.4,5.8 26.4,11.4 L26.4,14.4 C26.4,15.8 26.6,17.1 27,18.4 L27.4,19.7 C27.5,20.1 27.6,20.5 27.6,20.9 L27.6,21.5 L52.9,21.5 L52.9,20.9 C52.9,20.5 53,20.1 53.1,19.7 L53.5,18.4 C54,17.1 54.2,15.7 54.2,14.4 Z" id="Path" fill="#5A4146"></path>
            <path d="M32.7,6.4 C32.7,9.2 35,11.5 37.8,11.5 L38.5,11.5 L38.8,21.5 L52.8,21.5 L52.8,20.9 C52.8,20.5 52.9,20.1 53,19.7 L53.4,18.4 C53.8,17.1 54,15.8 54,14.4 L54,3.8 C54,2.4 52.9,1.3 51.5,1.3 L37.9,1.3 C35,1.2 32.7,3.5 32.7,6.4 Z" id="Path" fill="#694B4B"></path>
            <rect id="Rectangle" fill="#FFE1BC" x="32.7" y="31.6" width="15.2" height="11.4"></rect>
            <path d="M32.7,37.3 C35,38.5 37.5,39.2 40.3,39.2 C43.1,39.2 45.6,38.5 47.9,37.3 L47.9,31.6 L32.7,31.6 L32.7,37.3 L32.7,37.3 Z" id="Path" fill="#FFDBB9"></path>
            <g id="Group" transform="translate(29.800000, 37.700000)" fill="#3DAABE">
                <path d="M10.5,5.3 L6.5,9.3 C6,9.8 5.1,9.8 4.6,9.2 L0.4,3.7 L1.5,1.4 C1.8,0.7 2.7,0.5 3.3,0.9 L10.5,5.3 Z" id="Path"></path>
                <path d="M10.5,5.3 L14.5,9.3 C15,9.8 15.9,9.8 16.4,9.2 L20.6,3.7 L19.5,1.4 C19.2,0.7 18.3,0.5 17.7,0.9 L10.5,5.3 Z" id="Path"></path>
            </g>
            <path d="M40.3,35.4 L40.3,35.4 C33.3,35.4 27.7,29.7 27.7,22.8 L27.7,21.5 L29.8,20.1 C30.9,19.4 31.5,18.2 31.5,16.9 L31.5,12.6 C31.5,12.6 41.6,8.8 49.2,15.1 C49.2,15.1 49.2,16 49.2,16.9 C49.2,18.2 49.8,19.4 50.9,20.1 L53,21.5 L53,22.7 C52.9,29.7 47.3,35.4 40.3,35.4 Z" id="Path" fill="#FFE1BC"></path>
            <path d="M20.2,45.6 C19.3,46.5 18.8,47.7 18.8,49 L18.8,58.1 L26.4,58.1 L26.4,53.9 C26.4,52.6 25.9,51.3 24.9,50.3 L20.2,45.6 Z" id="Path" fill="#3DAABE"></path>
            <path d="M37.5,15.7 C40.2,15.4 45.1,15.2 49.2,17 C49.2,16.5 49.2,15.2 49.2,15.2 C41.6,8.9 31.5,12.7 31.5,12.7 L31.5,17 C31.5,18.3 30.9,19.5 29.8,20.2 L27.7,21.6 L27.7,22.7 C27.7,29.2 32.6,34.5 38.8,35.2 L38.8,35.2 C36.6,32.9 35.3,29.8 35.3,26.4 L35.3,18 C35.2,16.9 36.2,15.8 37.5,15.7 Z" id="Path" fill="#FFDBB9"></path>
            <path d="M70.1,28.9 C70.3,29 70.5,29 70.6,29 C71,29 71.5,28.8 71.7,28.3 C72,27.7 71.8,27 71.2,26.7 C68.5,25.3 63.3,25.3 63.1,25.3 C62.4,25.3 61.9,25.8 61.9,26.5 C61.9,27.2 62.4,27.7 63.1,27.7 C64.4,27.7 68.2,27.9 70.1,28.9 Z" id="Path" fill="#000000"></path>
            <path d="M77.1,43.6 L72.2,42.2 C72,42.1 71.8,41.9 71.8,41.7 L71.8,40.1 C72.2,39.8 72.6,39.5 72.9,39.2 C74.6,37.5 75.6,35.3 75.6,32.9 L75.6,30.6 L76.1,29.7 C76.6,28.7 76.9,27.5 76.9,26.3 L76.9,20.2 C76.9,19.5 76.4,19 75.7,19 L64.3,19 C60.2,19 56.8,22.4 56.8,26.5 L56.8,26.6 C56.8,27.6 57,28.5 57.5,29.4 L58.1,30.6 L58.1,32.5 C58.1,35.6 59.6,38.3 61.9,40 L61.9,41.7 C61.9,42 61.9,42.1 60.9,42.4 L58.5,43.1 L51.6,40.6 C51.6,40.3 51.5,39.9 51.3,39.7 L49.1,37.4 L49.1,33.5 C49.3,33.3 49.6,33.1 49.8,32.9 C52.6,30.3 54.2,26.6 54.2,22.8 L54.2,19.7 C55,17.9 55.5,15.9 55.5,13.9 L55.5,1.2 C55.5,0.5 55,0 54.3,0 L36.5,0 C30.3,0 25.2,5.1 25.2,11.3 L25.2,13.8 C25.2,15.8 25.6,17.7 26.5,19.6 L26.5,22.3 C26.5,26.7 28.5,30.7 31.6,33.3 L31.6,37.3 L29.4,39.6 C29.2,39.8 29.1,40.2 29.1,40.5 L21.8,43.1 C21.3,43.3 20.8,43.6 20.3,43.9 L19.2,43.3 C22.6,41.8 23.7,39.7 23.7,39.6 C23.9,39.3 23.9,38.9 23.7,38.5 C22.8,36.8 22.7,33.7 22.7,31.2 C22.7,30.4 22.6,29.6 22.6,28.9 C22.2,23.2 17.9,18.9 12.6,18.9 C7.3,18.9 3,23.2 2.6,28.9 C2.5,29.6 2.5,30.4 2.5,31.2 C2.4,33.7 2.3,36.8 1.5,38.5 C1.3,38.8 1.3,39.2 1.5,39.6 C1.6,39.7 2.6,41.8 6,43.3 L2.8,44.9 C1.1,45.7 0,47.5 0,49.4 L0,58.1 C0,58.8 0.5,59.3 1.2,59.3 C1.9,59.3 2.4,58.8 2.4,58.1 L2.4,49.4 C2.4,48.4 3,47.5 3.8,47.1 L7.8,45.1 L9.2,46.4 C10.2,47.3 11.4,47.8 12.6,47.8 C13.8,47.8 15.1,47.3 16,46.4 L17.4,45.1 L18.7,45.7 C18.1,46.7 17.7,47.8 17.7,49 L17.7,58.1 C17.7,58.8 18.2,59.3 18.9,59.3 C19.6,59.3 20.1,58.8 20.1,58.1 L20.1,49 C20.1,47.4 21.1,45.9 22.7,45.4 L30.4,42.6 L33.6,47.4 C34,48 34.7,48.4 35.4,48.5 C35.5,48.5 35.6,48.5 35.6,48.5 C36.2,48.5 36.9,48.2 37.3,47.8 L39.2,45.9 L39.2,58.2 C39.2,58.9 39.7,59.4 40.4,59.4 C41.1,59.4 41.6,58.9 41.6,58.2 L41.6,45.8 L43.5,47.7 C44,48.2 44.6,48.4 45.2,48.4 C45.3,48.4 45.4,48.4 45.4,48.4 C46.1,48.3 46.8,47.9 47.2,47.3 L50.4,42.5 L58.1,45.3 C59.6,45.9 60.7,47.3 60.7,48.9 L60.7,58 C60.7,58.7 61.2,59.2 61.9,59.2 C62.6,59.2 63.1,58.7 63.1,58 L63.1,48.9 C63.1,47.3 62.4,45.7 61.4,44.6 L61.7,44.5 C62,44.4 62.4,44.3 62.8,44.1 L65.8,47.1 L65.8,58 C65.8,58.7 66.3,59.2 67,59.2 C67.7,59.2 68.2,58.7 68.2,58 L68.2,47.3 L71.2,44.3 C71.4,44.4 71.5,44.4 71.7,44.5 L76.6,45.9 C77.7,46.2 78.5,47.3 78.5,48.4 L78.5,58.2 C78.5,58.9 79,59.4 79.7,59.4 C80.4,59.4 80.9,58.9 80.9,58.2 L80.9,48.4 C80.7,46.2 79.2,44.2 77.1,43.6 Z M17.5,41.5 L17.5,40.1 C18.9,39.2 20,37.8 20.6,36.2 C20.7,37.2 21,38.2 21.3,39 C20.8,39.6 19.7,40.7 17.5,41.5 Z M4.8,29.2 C5,27.1 5.8,25.1 7.2,23.7 C8.6,22.3 10.5,21.5 12.5,21.5 C14.5,21.5 16.4,22.3 17.8,23.7 C19.2,25.1 20,27.1 20.2,29.2 C20.2,29.9 20.3,30.6 20.3,31.4 C20.3,31.5 20.3,31.5 20.3,31.6 C19,29.6 17,28.2 14.5,27.3 C12.1,26.5 10.1,26.6 10,26.6 C9.7,26.6 9.4,26.7 9.2,27 L7.1,29.2 C6.6,29.7 6.7,30.4 7.1,30.9 C7.6,31.4 8.3,31.3 8.8,30.9 L10.6,29.1 C12.1,29.2 17.1,29.7 19,34 C18.5,37.1 15.8,39.4 12.7,39.4 C9.2,39.4 6.3,36.5 6.3,33 C6.3,32.3 5.8,31.8 5.1,31.8 C4.8,31.7 4.8,31.7 4.7,31.7 C4.7,31.6 4.7,31.5 4.7,31.4 C4.7,30.6 4.8,29.8 4.8,29.2 Z M3.7,39.1 C4,38.3 4.2,37.3 4.4,36.3 C5.1,37.9 6.1,39.2 7.5,40.2 L7.5,41.6 C5.3,40.7 4.2,39.6 3.7,39.1 Z M10.7,44.7 L9.6,43.7 C9.8,43.4 9.9,43 9.9,42.5 L9.9,41.2 C10.7,41.5 11.6,41.6 12.5,41.6 C13.4,41.6 14.3,41.5 15.1,41.2 L15.1,42.5 C15.1,42.9 15.2,43.3 15.4,43.7 L14.3,44.7 C13.3,45.7 11.7,45.7 10.7,44.7 Z M28.8,22.3 L28.8,19.4 C28.8,19.2 28.8,19 28.7,18.9 C27.9,17.3 27.6,15.7 27.6,13.9 L27.6,11.4 C27.6,6.5 31.6,2.5 36.5,2.5 L53,2.5 L53,14 C53,15.7 52.6,17.4 51.9,19 C51.8,19 51.8,19.2 51.8,19.4 L51.8,22.7 C51.8,25.9 50.5,28.9 48.2,31.1 C47.9,31.4 47.6,31.6 47.3,31.9 C47.3,31.9 47.3,31.9 47.3,31.9 C45.1,33.6 42.4,34.4 39.6,34.2 C33.5,33.8 28.8,28.6 28.8,22.3 Z M39.4,36.5 C39.7,36.5 40,36.5 40.3,36.5 C42.6,36.5 44.7,36 46.7,34.9 L46.7,37.1 L40.3,41.5 L33.9,37.1 L33.9,34.9 C35.6,35.9 37.4,36.4 39.4,36.5 Z M35.5,46.1 C35.5,46.1 35.5,46.1 35.5,46.1 C35.4,46.1 35.4,46.1 35.4,46.1 L31.7,40.6 L32.9,39.4 L38.5,43.2 L35.5,46.1 Z M45.2,46.1 C45.2,46.1 45.2,46.1 45.2,46.1 C45.1,46.1 45.1,46.1 45.1,46.1 L42.1,43.1 L47.7,39.3 L48.9,40.5 L45.2,46.1 Z M60.4,32.5 L60.4,30.3 C60.4,30.1 60.4,29.9 60.3,29.8 L59.6,28.3 C59.3,27.8 59.2,27.2 59.2,26.6 L59.2,26.5 C59.2,23.7 61.5,21.4 64.3,21.4 L74.5,21.4 L74.5,26.3 C74.5,27.1 74.3,27.9 74,28.6 L73.4,29.8 C73.3,30 73.3,30.1 73.3,30.3 L73.3,32.8 C73.3,34.5 72.6,36.2 71.4,37.4 C70.1,38.6 68.5,39.3 66.7,39.2 C63.2,39.2 60.4,36.1 60.4,32.5 Z M66.6,41.6 C66.7,41.6 66.8,41.6 66.9,41.6 C67.8,41.6 68.7,41.5 69.5,41.2 L69.5,41.7 C69.5,41.9 69.5,42.2 69.6,42.4 L66.9,45.1 L64.2,42.4 C64.2,42.2 64.3,42 64.3,41.7 L64.3,41.2 C65,41.5 65.8,41.6 66.6,41.6 Z" id="Shape" fill="#000000"></path>
            <path d="M74.4,49.4 C73.7,49.4 73.2,49.9 73.2,50.6 L73.2,58.2 C73.2,58.9 73.7,59.4 74.4,59.4 C75.1,59.4 75.6,58.9 75.6,58.2 L75.6,50.6 C75.6,49.9 75.1,49.4 74.4,49.4 Z" id="Path" fill="#000000"></path>
            <path d="M6.2,51 C5.5,51 5,51.5 5,52.2 L5,58.2 C5,58.9 5.5,59.4 6.2,59.4 C6.9,59.4 7.4,58.9 7.4,58.2 L7.4,52.2 C7.3,51.5 6.8,51 6.2,51 Z" id="Path" fill="#000000"></path>
            <path d="M32.6,13.7 C32.6,13.7 32.7,13.6 32.6,13.7 C34.2,13.4 37.2,13 40.3,13.2 C44,13.4 46.7,14.4 48.2,16 C48.7,16.5 49.4,16.5 49.9,16 C50.4,15.5 50.4,14.8 49.9,14.3 C45.4,9.8 36.1,10.7 32.2,11.3 C31,11.5 30.1,12.5 30.1,13.7 L30.1,16.4 C30.1,17.1 30.6,17.6 31.3,17.6 C32,17.6 32.5,17.1 32.5,16.4 L32.6,13.7 L32.6,13.7 Z" id="Path" fill="#000000"></path>
            <path d="M26.4,51.9 C25.7,51.9 25.2,52.4 25.2,53.1 L25.2,58.2 C25.2,58.9 25.7,59.4 26.4,59.4 C27.1,59.4 27.6,58.9 27.6,58.2 L27.6,53.1 C27.6,52.4 27.1,51.9 26.4,51.9 Z" id="Path" fill="#000000"></path>
            <path d="M54.2,51.9 C53.5,51.9 53,52.4 53,53.1 L53,58.2 C53,58.9 53.5,59.4 54.2,59.4 C54.9,59.4 55.4,58.9 55.4,58.2 L55.4,53.1 C55.4,52.4 54.9,51.9 54.2,51.9 Z" id="Path" fill="#000000"></path>
        </g>
    </g>
</svg>