<?xml version="1.0" encoding="UTF-8"?>
<svg width="85px" height="85px" viewBox="0 0 85 85" version="1.1" xmlns="http://www.w3.org/2000/svg" xmlns:xlink="http://www.w3.org/1999/xlink">
    <!-- Generator: Sketch 53.2 (72643) - https://sketchapp.com -->
    <title>icon/big/organization</title>
    <desc>Created with Sketch.</desc>
    <g id="icon/big/organization" stroke="none" stroke-width="1" fill="none" fill-rule="evenodd">
        <g id="Group" transform="translate(4.000000, 18.000000)" fill-rule="nonzero">
            <path d="M59.3,39.5 C58.2,40.4 56.9,40.9 55.7,40.8 C55.2,42 54.3,43 53,43.6 C51.7,44.3 50.3,44.4 49,44.2 C48.3,45.6 47.1,46.7 45.7,47.2 C44.5,47.7 43.2,47.7 42.1,47.2 C41.3,47.9 40.1,48.3 38.5,48.3 C36.5,48.3 34,47.2 32.8,46.4 C31.4,45.5 24.3,40.1 18.3,35.2 C17.3,34.4 15.8,32.8 14.4,31.4 C14,31 13.6,30.5 13.2,30.2 C12.6,29.6 12.2,29.2 11.9,28.9 C11.2,28.3 11.1,27.3 11.7,26.7 C12.3,26 13.3,25.9 13.9,26.5 C14,26.6 14.1,26.7 14.2,26.8 C14.8,27.3 15.7,28.3 16.6,29.3 C17.9,30.7 19.4,32.2 20.2,32.9 C26.2,38 33.2,43.2 34.4,43.9 C35.3,44.5 37.2,45.2 38.3,45.2 C38.6,45.2 38.9,45.2 39.1,45.2 C39.9,45.1 40,44.8 40,44.7 C40.2,44.2 40.6,43.8 41.1,43.7 C41.6,43.6 42.1,43.7 42.5,44 L42.5,44 C42.5,44 42.5,44 42.5,44 C43.1,44.6 43.8,44.5 44.3,44.3 C45.1,44 45.7,43.3 46,42.6 C46.1,42.4 46.2,42.1 46.2,41.9 C46.3,41.3 46.6,40.8 47.2,40.6 C47.7,40.4 48.4,40.5 48.8,40.9 C48.8,40.9 48.8,40.9 48.8,40.9 C49.2,41.3 50.3,41.4 51.3,40.9 C51.6,40.7 52.3,40.3 52.5,39.6 C52.5,39.4 52.6,39.3 52.5,39.1 C52.4,38.5 52.7,37.9 53.3,37.6 C53.8,37.3 54.5,37.3 55,37.7 C55,37.7 55,37.7 55.1,37.7 C55.1,37.7 55.1,37.7 55.1,37.7 C55.6,37.9 56.4,37.8 57,37.3 C57.4,36.9 58.1,36.1 57.5,34.9 C56.3,32.4 51,28.1 46.3,24.4 C43.7,22.3 41.3,20.3 39.4,18.6 C38.9,18.8 38.6,18.9 38.3,19.1 C37.5,19.5 36.9,19.7 35.9,19.9 C33.4,23.1 30.2,24.3 26.5,23.1 C25.1,22.6 24.1,21.6 23.8,20.2 C23,17 26,12.6 28.1,10.4 L28.1,10.4 C29.3,9.2 30.5,8.1 31.6,7.3 C35.7,4.1 39.4,3.3 45.1,5.8 C48.4,7.3 51.8,8.6 54.2,9.5 C56.3,10.3 57.7,10.8 57.7,10.8 C58.5,11.1 59,12 58.7,12.8 C58.4,13.6 57.5,14.1 56.7,13.8 C56.7,13.8 56.5,13.7 56.2,13.6 C54.5,13 49.2,11.1 43.9,8.7 C38.3,6.2 35.6,7.5 30.4,12.6 C28.2,14.8 26.6,18 26.9,19.4 C27,19.6 27,19.8 27.5,20 C29.1,20.5 31.4,20.8 33.6,17.5 C33.9,17.1 34.3,16.8 34.8,16.8 C35.9,16.7 36.1,16.6 36.9,16.2 C37.4,16 38.1,15.7 39.2,15.3 C39.8,15.1 40.4,15.2 40.9,15.7 C42.6,17.4 45.4,19.7 48.3,22 C52.7,25.5 57.2,29.2 59.4,32.1 C59.8,32.6 60.1,33.1 60.4,33.6 C60.6,34 60.8,34.5 60.8,35 L60.8,35 C61.4,36.5 60.8,38.3 59.3,39.5 Z" id="Path" fill="#000000"></path>
            <path d="M33.7,8.6 C33.7,9.5 33,10.2 32.1,10.2 L17.8,10.2 C16.9,10.2 16.2,9.5 16.2,8.6 C16.2,7.7 16.9,7 17.8,7 L32.1,7 C33,7 33.7,7.7 33.7,8.6 Z" id="Path" fill="#000000"></path>
            <path d="M64.8,32.2 L63.6,33 L61,34.7 L61,34.7 L60.1,35.3 C59.8,35.5 59.5,35.6 59.2,35.6 C58.7,35.6 58.2,35.4 57.9,34.9 C57.4,34.2 57.6,33.2 58.3,32.7 L59.5,31.9 L62.4,29.9 L62.9,29.6 C63.6,29.1 64.6,29.3 65.1,30 C65.8,30.7 65.6,31.7 64.8,32.2 Z" id="Path" fill="#000000"></path>
            <path d="M55.7,39.8 C55.4,40.2 54.9,40.4 54.4,40.4 C54.1,40.4 53.7,40.3 53.4,40.1 C53.2,40 53,39.8 52.8,39.6 C50.4,37.4 44.5,31.2 43.7,30.5 C43.1,29.9 43.1,28.9 43.7,28.3 C44.3,27.7 45.3,27.7 45.9,28.3 C49,31.6 54.1,36.8 55.3,37.7 C55.3,37.7 55.3,37.7 55.3,37.7 C56.1,38.1 56.2,39.1 55.7,39.8 Z" id="Path" fill="#000000"></path>
            <path d="M49.3,43 C49,43.4 48.5,43.6 48.1,43.6 C47.8,43.6 47.4,43.5 47.1,43.3 C46.9,43.1 46.6,42.9 46.3,42.6 C43.6,40.2 39,35.2 38.9,35.1 C38.3,34.4 38.4,33.4 39,32.9 C39.6,32.3 40.6,32.4 41.2,33 C42.3,34.2 47.1,39.3 49,40.8 C49,40.8 49,40.8 49.1,40.8 C49.7,41.3 49.8,42.3 49.3,43 Z" id="Path" fill="#000000"></path>
            <path d="M42.9,46.2 C42.6,46.6 42.1,46.8 41.7,46.8 C41.3,46.8 41,46.7 40.7,46.4 C40.3,46 39.8,45.6 39.3,45.1 C36.9,42.8 33.7,39.4 32.6,38.3 C32,37.6 32,36.6 32.7,36.1 C33.4,35.6 34.3,35.5 34.9,36.2 C35.8,37.2 40.4,42.1 42.7,44 L42.7,44 C43.4,44.5 43.5,45.5 42.9,46.2 Z" id="Path" fill="#000000"></path>
            <g>
                <path d="M18.9,4.3 C16.2,1.7 5.3,0.8 2,0.7 C1.5,0.7 1.1,0.8 0.8,1.1 C0.5,1.4 0.3,1.8 0.3,2.2 L0.3,30.8 C0.3,31.7 1,32.4 1.9,32.4 L11.4,32.4 C12.1,32.4 12.7,32 12.9,31.3 C12.9,31.2 13.1,30.8 13.3,30.1 C13.6,29.3 13.9,28.1 14.4,26.7 C15.7,22.3 17.6,15.6 18.7,10.1 C18.9,9 19.1,7.9 19.2,6.9 C19.3,6.4 19.3,5.9 19.4,5.4 C19.5,5.1 19.3,4.6 18.9,4.3 Z M10.3,29.3 L3.5,29.3 L3.5,3.9 C8.6,4.3 14.1,5.2 16.1,6.1 C15.3,13.2 11.5,25.5 10.3,29.3 Z" id="Shape" fill="#000000"></path>
                <path d="M57.3,37.1 C56.7,37.6 55.9,37.8 55.4,37.5 C55.4,37.5 55.4,37.5 55.4,37.5 C54.2,36.6 49.2,31.4 46,28.1 C45.4,27.5 44.4,27.4 43.8,28.1 C43.2,28.7 43.1,29.7 43.8,30.3 C44.5,31.1 50.5,37.3 52.9,39.4 C52.7,40.1 52.1,40.5 51.7,40.7 C50.7,41.2 49.6,41.1 49.2,40.7 C49.2,40.7 49.2,40.7 49.2,40.7 C49.2,40.7 49.2,40.7 49.1,40.7 C47.2,39.2 42.4,34.1 41.3,32.9 C40.7,32.3 39.7,32.2 39.1,32.8 C38.4,33.4 38.4,34.4 39,35 C39,35 43.7,40.1 46.4,42.5 C46.1,43.3 45.5,43.9 44.7,44.2 C44.2,44.4 43.5,44.5 42.9,43.9 C42.9,43.9 42.9,43.9 42.9,43.9 L42.9,43.9 C40.6,42 36,37 35.1,36.1 C34.5,35.5 33.5,35.4 32.9,36 C32.3,36.6 32.2,37.6 32.8,38.2 C33.9,39.4 37.1,42.8 39.5,45 C39.3,45 39,45 38.7,45 C37.6,45 35.7,44.3 34.8,43.7 C33.7,43 26.7,37.7 20.6,32.7 C19.8,32 18.3,30.5 17,29.1 C16,28.1 15.2,27.2 14.6,26.6 C15.9,22.2 17.8,15.5 18.9,10 L28.7,10 C26.5,12.2 23.6,16.6 24.4,19.8 C24.7,21.2 25.7,22.2 27.1,22.7 C30.7,23.9 34,22.7 36.5,19.5 C37.5,19.3 38.1,19.1 38.9,18.7 C39.2,18.6 39.5,18.4 40,18.2 C41.8,19.9 44.3,21.9 46.9,24 C51.6,27.8 56.9,32.1 58.1,34.5 C58.3,36 57.7,36.8 57.3,37.1 Z" id="Path" fill="#FFE1BC"></path>
                <path d="M16.1,6.2 C15.3,13.2 11.4,25.5 10.3,29.3 L3.5,29.3 L3.5,3.9 C8.6,4.3 14.1,5.2 16.1,6.2 Z" id="Path" fill="#61BACA"></path>
                <path d="M16.1,6.2 C15.8,8.4 15.3,11.1 14.6,13.9 L3.5,10.8 L3.5,4 C8.6,4.3 14.1,5.2 16.1,6.2 Z" id="Path" fill="#3DAABE"></path>
            </g>
            <g transform="translate(27.000000, 3.000000)">
                <path d="M48.1,0.8 C35.6,0.8 28.7,4 28.4,4.1 C28,4.3 27.7,4.7 27.6,5.1 C27.5,5.5 27.5,5.9 27.7,6.2 C27.7,6.2 27.7,6.3 27.8,6.4 C28.2,7.1 28.9,8.5 29.6,10.4 C31.5,14.9 34,22 35.6,26.9 C36,28.1 36.4,29.2 36.6,30.1 C36.8,30.7 36.9,31.1 37,31.5 C37.2,32.2 37.8,32.7 38.5,32.7 L48,32.7 C48.9,32.7 49.6,32 49.6,31.1 L49.6,2.4 C49.7,1.5 49,0.8 48.1,0.8 Z M46.5,29.5 L39.7,29.5 C38.2,24.6 33.7,11.8 31.3,6.5 C33.7,5.7 38.9,4.3 46.5,4.1 L46.5,29.5 Z" id="Shape" fill="#000000"></path>
                <path d="M46.5,4 L46.5,29.4 L39.7,29.4 C38.2,24.5 33.7,11.7 31.3,6.4 C33.7,5.6 38.9,4.2 46.5,4 Z" id="Path" fill="#006F83"></path>
                <path d="M46.5,4 L46.5,9.4 L34.2,13.4 C33.1,10.6 32.1,8.1 31.3,6.4 C33.7,5.6 38.9,4.2 46.5,4 Z" id="Path" fill="#015767"></path>
                <path d="M35.6,26.9 L32.7,28.9 C30.5,26 26,22.3 21.6,18.8 C18.7,16.5 16,14.3 14.2,12.5 C13.8,12.1 13.1,11.9 12.5,12.1 C11.4,12.5 10.8,12.8 10.2,13 C9.4,13.4 9.1,13.5 8.1,13.6 C7.6,13.6 7.2,13.9 6.9,14.3 C4.7,17.7 2.3,17.4 0.8,16.8 C0.3,16.6 0.2,16.4 0.2,16.2 C-0.1,14.8 1.5,11.6 3.7,9.4 C8.9,4.2 11.5,2.9 17.2,5.5 C22.5,7.9 27.9,9.8 29.5,10.4 C31.4,14.9 33.9,22 35.6,26.9 Z" id="Path" fill="#FFE1BC"></path>
            </g>
        </g>
    </g>
</svg>