<?xml version="1.0" encoding="utf-8"?>
<!-- Generator: Adobe Illustrator 23.0.3, SVG Export Plug-In . SVG Version: 6.00 Build 0)  -->
<svg version="1.1" id="Layer_1" xmlns="http://www.w3.org/2000/svg" xmlns:xlink="http://www.w3.org/1999/xlink" x="0px" y="0px"
	 viewBox="0 0 85 85" style="enable-background:new 0 0 85 85;" xml:space="preserve">
<style type="text/css">
	.st0{fill:#A1A1A1;}
	.st1{fill:#C8C8C8;}
	.st2{fill:#9D9D9D;}
	.st3{fill:#E6E6E6;}
	.st4{fill:#191919;}
</style>
<title>icon/big/pen</title>
<desc>Created with Sketch.</desc>
<g>
	<polygon id="Path" class="st0" points="25,65 15.7,69 13,69 13,66.3 17,57 	"/>
	<polygon class="st1" points="17,66.5 11,75.5 5,77 6.5,71 15.5,65 15.5,66.5 	"/>
	<path class="st0" d="M76.3,12.9c0.5,0.6,0.7,1.3,0.7,2.1c0,0.9-0.3,1.7-1,2.4L60.3,33L52,24.7L67.7,9c0.6-0.6,1.5-1,2.4-1
		c0.8,0,1.5,0.3,2.1,0.7c0.1,0.1,0.2,0.2,0.3,0.3l3.6,3.6C76.1,12.7,76.2,12.8,76.3,12.9z"/>
	<polygon class="st0" points="22,53.6 51.6,24 60,32.4 30.4,62 	"/>
	<polygon class="st2" points="18,56 22,52 30,60 26,64 	"/>
	<path class="st3" d="M59.2,3.8c0.5,0.5,0.8,1.3,0.8,2c0,0.8-0.3,1.5-0.8,2L34.9,32.2c-0.5,0.5-1.3,0.8-2,0.8c-0.8,0-1.5-0.3-2-0.8
		c-0.5-0.5-0.8-1.3-0.8-2c0-0.8,0.3-1.5,0.8-2L55.1,3.8c0.5-0.5,1.3-0.8,2-0.8C57.9,3,58.6,3.3,59.2,3.8z"/>
	<path class="st2" d="M80,7.2L75.2,12l0,0c-0.1-0.1-0.1-0.2-0.2-0.2L72.2,9c-0.1-0.1-0.1-0.1-0.2-0.2l0,0L76.8,4L80,7.2z"/>
	<path id="Shape" class="st4" d="M79.5,63.2c-3,0-5.5,2.4-5.5,5.4h2.7c0-1.5,1.2-2.7,2.7-2.7s2.7,1.2,2.7,2.7s-1.2,2.7-2.7,2.7H45.2
		c-2.3,0-4.1,1.8-4.1,4.1c0,2.3,1.8,4.1,4.1,4.1h8.2c0.8,0,1.4,0.6,1.4,1.4c0,0.8-0.6,1.4-1.4,1.4H3.3c-0.3,0-0.6-0.3-0.6-0.6
		c0-0.1,0.1-0.3,0.2-0.4l1.9-1.9l5.6-1.4l5.4-8h0.9l10.1-4.3l48.6-48.3c0.9-0.9,1.4-2,1.4-3.3c0-0.6-0.1-1.2-0.4-1.8L82.8,6l-6.1-6
		l-6.4,6.4c-1.7-0.7-3.8-0.3-5.1,1l-2.2,2.2l-2.2-2.2c0.5-0.7,0.8-1.6,0.8-2.5c0-2.3-1.9-4.3-4.3-4.3c-1.1,0-2.2,0.5-3,1.2L30,26
		c-0.8,0.8-1.3,1.9-1.3,3c0,2.3,1.9,4.3,4.3,4.3c1.1,0,2.2-0.5,3-1.2l16-15.9l2.2,2.2L16.9,55.4l-0.2,0.2l-4.3,10v0.9l-8.1,5.3
		l-1.4,5.6L1,79.4c-0.6,0.6-1,1.5-1,2.3C0,83.5,1.5,85,3.3,85h50.2c2.3,0,4.1-1.8,4.1-4.1c0-2.3-1.8-4.1-4.1-4.1h-8.2
		c-0.8,0-1.4-0.6-1.4-1.4c0-0.8,0.6-1.4,1.4-1.4h34.3c3,0,5.5-2.4,5.5-5.4C85,65.7,82.5,63.2,79.5,63.2L79.5,63.2z M28.2,60.5
		L26,62.6l-6.3-6.2l2.2-2.2L28.2,60.5z M23.9,52.3l26.9-26.7l6.3,6.2L30.2,58.6L23.9,52.3z M78.9,6l-4.2,4.2l-2.2-2.2l4.2-4.2
		L78.9,6z M67.2,9.3c0.7-0.7,2-0.7,2.7,0l3.5,3.5c0.4,0.4,0.6,0.8,0.6,1.4c0,0.5-0.2,1-0.6,1.4L59,30l-6.3-6.2L67.2,9.3z M34.2,30.1
		c-0.3,0.3-0.7,0.4-1.1,0.4c-0.8,0-1.5-0.7-1.5-1.5c0-0.4,0.2-0.8,0.4-1.1L56.3,3.7c0.3-0.3,0.7-0.4,1.1-0.4C58.3,3.3,59,4,59,4.8
		c0,0.4-0.2,0.8-0.4,1.1L34.2,30.1z M54,14.2L59,9.3l2.2,2.2l-4.9,4.9L54,14.2z M15.1,66.2l3.2-7.4l5.4,5.3l-7.5,3.2h-1.1V66.2z
		 M6.7,73.6l5.7-3.7V70h0.2l-3.8,5.6L6,76.3L6.7,73.6z"/>
</g>
</svg>
