<?xml version="1.0"?>
<svg xmlns="http://www.w3.org/2000/svg" id="Capa_1" enable-background="new 0 0 511.988 511.988" height="100px" viewBox="0 0 511.988 511.988" width="100px" class=""><g><path d="m60.994 456.988h390v55h-390z" data-original="#000000" class="active-path" data-old_color="#000000" fill="#FFFFFF"/><path d="m480.994 426.988h-450v-65h450z" data-original="#000000" class="active-path" data-old_color="#000000" fill="#FFFFFF"/><path d="m345.994 331.988h-180c25.23 0 45-20.33 45-46.28v-8.1c0-37.19-13.53-74.72-40.22-111.55-12.94-17.85-19.78-38.97-19.78-61.07 0-65.25 58.92-115.17 124.61-103.21 41.9 7.63 75.41 41.36 83.36 82.36 6.16 31.72-2.07 63.83-22.58 88.09-22.82 27-35.39 65.59-35.39 108.67v6.09c0 24.81 20.19 45 45 45z" data-original="#000000" class="active-path" data-old_color="#000000" fill="#FFFFFF"/></g> </svg>
