<?xml version="1.0" encoding="UTF-8"?>
<svg width="85px" height="85px" viewBox="0 0 85 85" version="1.1" xmlns="http://www.w3.org/2000/svg" xmlns:xlink="http://www.w3.org/1999/xlink">
    <!-- Generator: Sketch 53.2 (72643) - https://sketchapp.com -->
    <title>icon/big/takePicOff</title>
    <desc>Created with Sketch.</desc>
    <g id="icon/big/takePicOff" stroke="none" stroke-width="1" fill="none" fill-rule="evenodd">
        <g id="Group-2" transform="translate(3.000000, 8.000000)" fill-rule="nonzero">
            <path d="M8.4,9.4 C5.3,9.4 2.8,11.9 2.8,15 L2.8,49.2 C2.8,52.3 5.3,54.8 8.4,54.8 L64.5,54.8 C67.6,54.8 70.1,52.3 70.1,49.2 L70.1,15 C70.1,11.9 67.6,9.4 64.5,9.4 L50.8,9.4 L49.3,3.9 C49.2,3.3 48.6,2.8 47.9,2.8 L24.9,2.8 C24.2,2.8 23.7,3.3 23.5,3.9 L21.9,9.4 L8.4,9.4 Z" id="Path" fill="#DADADA"></path>
            <path d="M64.4,57.6 L8.4,57.6 C3.8,57.6 -7.10542736e-15,53.8 -7.10542736e-15,49.2 L-7.10542736e-15,15 C-7.10542736e-15,10.4 3.8,6.6 8.4,6.6 L19.8,6.6 L20.8,3.2 C21.2,1.4 22.9,1.77635684e-14 24.9,1.77635684e-14 L47.9,1.77635684e-14 C49.8,1.77635684e-14 51.5,1.3 52,3.2 L52,3.3 L52.9,6.5 L64.4,6.5 C69,6.5 72.8,10.3 72.8,14.9 L72.8,49.1 C72.9,53.8 69.1,57.6 64.4,57.6 Z M8.4,9.4 C5.3,9.4 2.8,11.9 2.8,15 L2.8,49.2 C2.8,52.3 5.3,54.8 8.4,54.8 L64.5,54.8 C67.6,54.8 70.1,52.3 70.1,49.2 L70.1,15 C70.1,11.9 67.6,9.4 64.5,9.4 L50.8,9.4 L49.3,3.9 C49.2,3.3 48.6,2.8 47.9,2.8 L24.9,2.8 C24.2,2.8 23.7,3.3 23.5,3.9 L21.9,9.4 L8.4,9.4 Z M36.4,49.1 C26.6,49.1 18.6,41.1 18.6,31.3 C18.6,21.5 26.6,13.5 36.4,13.5 C46.2,13.5 54.2,21.5 54.2,31.3 C54.2,41.1 46.2,49.1 36.4,49.1 Z M36.4,16.3 C28.1,16.3 21.4,23 21.4,31.3 C21.4,39.6 28.1,46.3 36.4,46.3 C44.7,46.3 51.4,39.6 51.4,31.3 C51.4,23 44.7,16.3 36.4,16.3 Z M62.6,14.6 C61.2,14.6 60,15.8 60,17.2 C60,18.6 61.2,19.8 62.6,19.8 C64,19.8 65.2,18.6 65.2,17.2 C65.2,15.7 64.1,14.6 62.6,14.6 Z" id="Shape" fill="#000000"></path>
            <circle id="Oval" fill="#FFFFFF" cx="64.4" cy="54.8" r="13"></circle>
            <path d="M64.4,69 C56.5,69 50.2,62.6 50.2,54.8 C50.2,47 56.5,40.5 64.4,40.5 C72.3,40.5 78.7,46.9 78.7,54.8 C78.7,62.7 72.3,69 64.4,69 Z M64.4,43 C57.9,43 52.6,48.3 52.6,54.8 C52.6,61.3 57.9,66.5 64.4,66.5 C70.9,66.5 76.2,61.2 76.2,54.7 C76.2,48.2 70.9,43 64.4,43 Z" id="Shape" fill="#000000"></path>
            <g id="Group" transform="translate(56.700000, 47.500000)" fill="#000000">
                <path d="M7.7,14.2 C7,14.2 6.5,13.6 6.5,13 L6.5,1.7 C6.5,1 7.1,0.5 7.7,0.5 C8.3,0.5 9,1 9,1.7 L9,12.9 C9,13.6 8.4,14.2 7.7,14.2 Z" id="Path"></path>
                <path d="M13.3,8.5 L2.1,8.5 C1.4,8.5 0.9,7.9 0.9,7.3 C0.9,6.7 1.5,6.1 2.1,6.1 L13.3,6.1 C14,6.1 14.5,6.7 14.5,7.3 C14.5,7.9 14,8.5 13.3,8.5 Z" id="Path"></path>
            </g>
            <path d="M36.4,16.3 C28.1,16.3 21.4,23 21.4,31.3 C21.4,39.6 28.1,46.3 36.4,46.3 C44.7,46.3 51.4,39.6 51.4,31.3 C51.4,23 44.7,16.3 36.4,16.3 Z" id="Path" fill="#9D9D9D"></path>
        </g>
    </g>
</svg>