<?xml version="1.0" encoding="UTF-8"?>
<svg width="85px" height="85px" viewBox="0 0 85 85" version="1.1" xmlns="http://www.w3.org/2000/svg" xmlns:xlink="http://www.w3.org/1999/xlink">
    <!-- Generator: Sketch 53.2 (72643) - https://sketchapp.com -->
    <title>icon/big/takePicAgainOff</title>
    <desc>Created with Sketch.</desc>
    <g id="icon/big/takePicAgainOff" stroke="none" stroke-width="1" fill="none" fill-rule="evenodd">
        <g id="Group-2" transform="translate(3.000000, 8.000000)" fill="#FFFFFF" fill-rule="nonzero">
            <path d="M50.6800507,57.6 L8.4,57.6 C3.8,57.6 4.40536496e-13,53.8 4.40536496e-13,49.2 L4.40536496e-13,15 C4.40536496e-13,10.4 3.8,6.6 8.4,6.6 L19.8,6.6 L20.8,3.2 C21.2,1.4 22.9,7.10542736e-15 24.9,7.10542736e-15 L47.9,7.10542736e-15 C49.8,7.10542736e-15 51.5,1.3 52,3.2 L52,3.3 L52.9,6.5 L64.4,6.5 C69,6.5 72.8,10.3 72.8,14.9 L72.8,43.5989747 C71.9671485,42.9733956 71.0622576,42.4385407 70.1,42.0090826 L70.1,15 C70.1,11.9 67.6,9.4 64.5,9.4 L50.8,9.4 L49.3,3.9 C49.2,3.3 48.6,2.8 47.9,2.8 L24.9,2.8 C24.2,2.8 23.7,3.3 23.5,3.9 L21.9,9.4 L8.4,9.4 C5.3,9.4 2.8,11.9 2.8,15 L2.8,49.2 C2.8,52.3 5.3,54.8 8.4,54.8 L50.4,54.8 C50.4,55.7589043 50.4964047,56.6952922 50.6800507,57.6 Z M36.4,49.1 C26.6,49.1 18.6,41.1 18.6,31.3 C18.6,21.5 26.6,13.5 36.4,13.5 C46.2,13.5 54.2,21.5 54.2,31.3 C54.2,41.1 46.2,49.1 36.4,49.1 Z M36.4,16.3 C28.1,16.3 21.4,23 21.4,31.3 C21.4,39.6 28.1,46.3 36.4,46.3 C44.7,46.3 51.4,39.6 51.4,31.3 C51.4,23 44.7,16.3 36.4,16.3 Z M62.6,14.6 C64.1,14.6 65.2,15.7 65.2,17.2 C65.2,18.6 64,19.8 62.6,19.8 C61.2,19.8 60,18.6 60,17.2 C60,15.8 61.2,14.6 62.6,14.6 Z" id="Combined-Shape"></path>
            <path d="M64.4,69 C56.5,69 50.2,62.6 50.2,54.8 C50.2,47 56.5,40.5 64.4,40.5 C72.3,40.5 78.7,46.9 78.7,54.8 C78.7,62.7 72.3,69 64.4,69 Z M64.4,43 C57.9,43 52.6,48.3 52.6,54.8 C52.6,61.3 57.9,66.5 64.4,66.5 C70.9,66.5 76.2,61.2 76.2,54.7 C76.2,48.2 70.9,43 64.4,43 Z" id="Shape"></path>
        </g>
        <g id="ic_cached" transform="translate(57.300000, 52.700000)">
            <polygon id="Bounds" points="0 0 20 0 20 20 0 20"></polygon>
            <path d="M15.8333333,6.66666667 L12.5,10 L15,10 C15,12.7583333 12.7583333,15 10,15 C9.15833333,15 8.35833333,14.7916667 7.66666667,14.4166667 L6.45,15.6333333 C7.475,16.2833333 8.69166667,16.6666667 10,16.6666667 C13.6833333,16.6666667 16.6666667,13.6833333 16.6666667,10 L19.1666667,10 L15.8333333,6.66666667 L15.8333333,6.66666667 Z M5,10 C5,7.24166667 7.24166667,5 10,5 C10.8416667,5 11.6416667,5.20833333 12.3333333,5.58333333 L13.55,4.36666667 C12.525,3.71666667 11.3083333,3.33333333 10,3.33333333 C6.31666667,3.33333333 3.33333333,6.31666667 3.33333333,10 L0.833333333,10 L4.16666667,13.3333333 L7.5,10 L5,10 L5,10 Z" id="Icon" fill="#FFFFFF"></path>
        </g>
    </g>
</svg>