<?xml version="1.0" encoding="UTF-8"?>
<svg width="85px" height="85px" viewBox="0 0 85 85" version="1.1" xmlns="http://www.w3.org/2000/svg" xmlns:xlink="http://www.w3.org/1999/xlink">
    <!-- Generator: Sketch 53.2 (72643) - https://sketchapp.com -->
    <title>icon/big/time</title>
    <desc>Created with Sketch.</desc>
    <g id="icon/big/time" stroke="none" stroke-width="1" fill="none" fill-rule="evenodd">
        <g id="Group-2" transform="translate(17.000000, 3.000000)" fill-rule="nonzero">
            <rect id="Rectangle" fill="#FCF7D3" x="5.60954541" y="6.25925926" width="40.4444444" height="18.0074074"></rect>
            <rect id="Rectangle" fill="#3DAABE" x="1.46880467" y="1.82962963" width="48.437037" height="4.42962963"></rect>
            <path d="M43.165101,26 C42.9725084,26.1925926 42.8762121,26.3851852 42.7799158,26.4814815 C41.8169528,27.1555556 40.8539899,27.9259259 39.7947306,28.5037037 C36.039175,30.5259259 32.1873232,32.5481481 28.3354713,34.5703704 C27.565101,34.9555556 26.7947306,35.5333333 26.0243602,36.0148148 C26.0243602,36.0148148 26.0243602,36.0148148 25.9280639,36.0148148 C21.6910269,33.3185185 17.0688047,31.2962963 12.639175,28.7925926 C11.5799158,28.1185185 10.4243602,27.3481481 9.36510097,26.6740741 C9.07621208,26.4814815 8.88361949,26.2888889 8.5947306,26.0962963 C8.5947306,26.0962963 8.5947306,26 8.5947306,26 L34.1132491,26 C34.2095454,26 34.3058417,26 34.402138,26 L43.165101,26 L43.165101,26 Z" id="Path" fill="#FFB531"></path>
            <path d="M45.765101,65.1925926 L45.765101,71.6444444 L44.6095454,71.6444444 C44.2243602,71.6444444 43.839175,71.7407407 43.6465825,71.9333333 C43.3576936,72.1259259 43.2613973,72.4148148 43.2613973,72.8 L40.7576936,72.8962963 C40.7576936,72.8 40.7576936,72.8 40.7576936,72.8 C40.7576936,72.1259259 40.2762121,71.6444444 39.5058417,71.6444444 L6.18732319,71.6444444 L6.18732319,65.2888889 C6.18732319,65.1925926 6.28361949,65 6.47621208,64.8074074 C6.47621208,64.8074074 6.57250838,64.7111111 6.57250838,64.7111111 C6.66880467,64.7111111 6.66880467,64.6148148 6.76510097,64.6148148 C10.3280639,62.8814815 13.7947306,61.2444444 17.3576936,59.6074074 C20.0539899,58.3555556 22.7502862,57.1037037 25.4465825,55.8518519 C25.7354713,55.7555556 26.3132491,55.6592593 26.602138,55.8518519 C32.8613973,58.7407407 39.0243602,61.6296296 45.2836195,64.6148148 C45.4762121,64.7111111 45.765101,65 45.765101,65.1925926 Z" id="Path" fill="#FFB531"></path>
            <path d="M49.5206565,75.1196581 C49.5206565,76.042735 48.9428787,76.5555556 47.8836195,76.5555556 L4.16510097,76.5555556 C3.00954541,76.5555556 2.43176764,76.042735 2.43176764,75.1196581 C2.43176764,74.4017094 3.00954541,73.7863248 3.77991578,73.7863248 L39.3132491,73.7863248 C39.4095454,73.7863248 39.5058417,73.7863248 39.602138,73.7863248 C40.1799158,73.6837607 40.565101,73.1709402 40.565101,72.5555556 L43.2613973,72.5555556 C43.2613973,73.2735043 43.7428787,73.7863248 44.6095454,73.7863248 L47.7873232,73.7863248 C48.8465825,73.7863248 49.4243602,74.2991453 49.5206565,75.1196581 Z" id="Path" fill="#3DAABE"></path>
            <path d="M45.765101,59.9925926 L45.765101,62.3037037 C44.802138,61.8222222 43.839175,61.3407407 42.8762121,60.9555556 C42.1058417,60.5703704 41.4317676,60.2814815 40.7576936,59.8962963 C38.639175,58.837037 36.5206565,57.8740741 34.402138,56.9111111 C32.1873232,55.8518519 29.9725084,54.7925926 27.7576936,53.7333333 C27.4688047,53.637037 27.1799158,53.2518519 27.1799158,52.962963 L27.1799158,43.8148148 C27.8539899,44.2 28.4317676,44.4888889 29.0095454,44.7777778 C32.765101,46.8 36.6169528,48.7259259 40.3725084,50.7481481 C43.6465825,52.5777778 45.3799158,55.1777778 45.765101,58.6444444 C45.765101,58.837037 45.765101,59.1259259 45.8613973,59.3185185 C45.765101,59.5111111 45.765101,59.8 45.765101,59.9925926 Z" id="Path" fill="#FCF7D3"></path>
            <path d="M24.7725084,44.5851852 L24.7725084,52.962963 C24.7725084,53.0592593 24.7725084,53.0592593 24.7725084,53.1555556 C24.7725084,53.1555556 24.7725084,53.2518519 24.7725084,53.2518519 C24.7725084,53.5407407 24.5799158,53.7333333 24.2910269,53.8296296 C18.4169528,56.6222222 12.4465825,59.4148148 6.57250838,62.1111111 C6.47621208,62.2074074 6.37991578,62.2074074 6.18732319,62.2074074 C6.09102689,62.2074074 5.9947306,62.1111111 5.8984343,62.1111111 C5.8984343,61.9185185 5.8984343,61.7259259 5.9947306,61.437037 C6.18732319,59.8962963 6.28361949,58.3555556 6.57250838,56.8148148 C6.66880467,56.5259259 6.76510097,56.237037 6.86139726,55.9481481 C7.53547134,53.9259259 8.88361949,52.3851852 10.8095454,51.3259259 C15.3354713,48.8222222 20.0539899,46.4148148 24.6762121,43.9111111 C24.6762121,44.2 24.7725084,44.3925926 24.7725084,44.5851852 Z" id="Path" fill="#FCF7D3"></path>
            <path d="M8.78732319,25.8074074 C8.78732319,25.8074074 8.78732319,25.9037037 8.78732319,26 L8.69102689,26 C8.69102689,25.9037037 8.69102689,25.9037037 8.78732319,25.8074074 L8.78732319,25.8074074 Z" id="Path" fill="#000000"></path>
            <path d="M48.7502862,71.5481481 C48.5576936,71.5481481 48.2688047,71.5481481 47.9799158,71.4518519 L47.9799158,60.0888889 C47.9799158,59.3185185 47.8836195,58.4518519 47.7873232,57.6814815 C47.1132491,53.5407407 44.802138,50.5555556 41.1428787,48.6296296 C37.0984343,46.5111111 32.9576936,44.2962963 28.9132491,42.1777778 C27.7576936,41.5037037 26.9873232,40.7333333 26.9873232,39.3851852 C26.9873232,38.037037 27.7576936,37.1703704 28.9132491,36.5925926 C32.9576936,34.5703704 36.9058417,32.3555556 40.8539899,30.3333333 C45.6688047,27.8296296 48.0762121,23.8814815 48.0762121,18.4888889 L48.0762121,7.31851852 C48.2688047,7.22222222 48.4613973,7.22222222 48.5576936,7.22222222 C50.2910269,6.93333333 51.5428787,5.58518519 51.7354713,3.85185185 C51.8317676,2.31111111 50.8688047,0.77037037 49.2317676,0.192592593 C49.1354713,0.0962962963 48.9428787,0.0962962963 48.8465825,0 L2.91324912,0 C2.72065652,0.0962962963 2.62436023,0.0962962963 2.43176764,0.192592593 C0.794730598,0.77037037 -0.168232365,2.31111111 0.0243602279,3.94814815 C0.216952821,5.48888889 1.46880467,6.83703704 3.10584171,7.12592593 C3.2984343,7.22222222 3.58732319,7.22222222 3.77991578,7.22222222 L3.77991578,18.9703704 C3.77991578,22.1481481 4.83917504,24.8444444 6.86139726,27.2518519 C7.92065652,28.5037037 9.26880467,29.3703704 10.7132491,30.1407407 C14.7576936,32.2592593 18.8984343,34.4740741 22.9428787,36.5925926 C24.1947306,37.1703704 24.8688047,38.1333333 24.7725084,39.5777778 C24.6762121,40.8296296 24.002138,41.5037037 22.9428787,42.0814815 C18.8984343,44.2 14.7576936,46.4148148 10.7132491,48.5333333 C6.18732319,50.9407407 3.77991578,54.7925926 3.77991578,59.8962963 L3.77991578,71.5481481 C0.891026895,71.7407407 -0.360824957,74.2444444 0.313249117,76.362963 C0.698434302,77.7111111 1.75769356,78.4814815 3.00954541,78.8666667 C18.3206565,78.8666667 33.5354713,78.8666667 48.7502862,78.7703704 C48.9428787,78.6740741 49.1354713,78.5777778 49.3280639,78.4814815 C50.7725084,77.9037037 51.7354713,76.4592593 51.639175,74.9185185 C51.5428787,73.2814815 50.3873232,71.9333333 48.7502862,71.5481481 Z M27.0836195,43.9111111 C27.7576936,44.2962963 28.3354713,44.5851852 28.9132491,44.8740741 C32.6688047,46.8 36.5206565,48.8222222 40.2762121,50.8444444 C43.4539899,52.5777778 45.2836195,55.1777778 45.6688047,58.6444444 C45.6688047,58.837037 45.6688047,59.1259259 45.765101,59.3185185 C45.765101,59.5111111 45.765101,59.8 45.765101,59.9925926 L45.765101,62.3037037 C44.802138,61.8222222 43.839175,61.3407407 42.8762121,60.9555556 C42.1058417,60.5703704 41.4317676,60.2814815 40.7576936,59.8962963 C38.639175,58.9333333 36.5206565,57.8740741 34.402138,57.0074074 C32.1873232,55.9481481 29.9725084,54.8888889 27.7576936,53.8296296 C27.4688047,53.637037 27.1799158,53.3481481 27.1799158,53.0592593 L27.1799158,43.9111111 L27.0836195,43.9111111 Z M7.24658245,23.4 C6.86139726,23.3037037 6.57250838,22.7259259 6.47621208,22.2444444 C6.18732319,21.0888889 6.09102689,20.4148148 6.09102689,19.4518519 L6.09102689,7.22222222 L7.34287875,7.22222222 C7.82436023,7.22222222 8.20954541,7.02962963 8.40213801,6.64444444 C8.40213801,6.64444444 8.40213801,6.64444444 8.40213801,6.64444444 C8.40213801,6.54814815 8.40213801,6.54814815 8.40213801,6.45185185 C8.40213801,5.77777778 7.92065652,5.2962963 7.24658245,5.2962963 L3.87621208,5.2962963 C2.91324912,5.2962963 2.33547134,4.81481481 2.33547134,4.04444444 C2.33547134,3.27407407 2.91324912,2.6962963 3.87621208,2.6962963 L47.7873232,2.6962963 C48.8465825,2.6962963 49.4243602,3.27407407 49.4243602,4.04444444 C49.4243602,4.81481481 48.8465825,5.2962963 47.7873232,5.2962963 L12.9280639,5.2962963 C11.8688047,5.2962963 11.2910269,5.58518519 11.1947306,6.06666667 C11.0984343,6.16296296 11.0984343,6.25925926 11.0984343,6.45185185 C11.0984343,7.22222222 11.6762121,7.60740741 12.8317676,7.60740741 L45.5725084,7.60740741 C45.6688047,7.7037037 45.6688047,7.8 45.6688047,7.8962963 C45.6688047,11.9407407 45.6688047,16.1777778 45.5725084,20.2222222 L45.5725084,20.4148148 C45.3799158,22.6296296 44.8984343,23.3037037 44.802138,23.4 L7.24658245,23.4 Z M12.639175,28.7925926 C11.5799158,28.1185185 10.4243602,27.3481481 9.36510097,26.6740741 C9.07621208,26.4814815 8.88361949,26.2888889 8.5947306,26.0962963 C8.5947306,26.0962963 8.5947306,26 8.5947306,26 C8.5947306,26 8.69102689,25.9037037 8.69102689,25.8074074 L8.78732319,25.8074074 C8.78732319,25.8074074 8.78732319,25.9037037 8.78732319,26 L34.402138,26 C34.402138,26 34.402138,26 34.4984343,26 L34.5947306,26 C34.5947306,26 34.5947306,26 34.4984343,26 L43.2613973,26 L43.165101,26 C42.9725084,26.1925926 42.8762121,26.3851852 42.7799158,26.4814815 C41.8169528,27.1555556 40.8539899,27.9259259 39.7947306,28.5037037 C36.039175,30.5259259 32.1873232,32.5481481 28.3354713,34.5703704 C27.565101,34.9555556 26.7947306,35.5333333 26.0243602,36.0148148 C26.0243602,36.0148148 26.0243602,36.0148148 26.0243602,36.0148148 C21.6910269,33.3185185 17.0688047,31.2962963 12.639175,28.7925926 Z M5.9947306,61.437037 C6.09102689,59.8962963 6.18732319,58.3555556 6.57250838,56.8148148 C6.66880467,56.5259259 6.76510097,56.237037 6.86139726,55.9481481 C7.53547134,53.9259259 8.97991578,52.3851852 10.8095454,51.3259259 C15.3354713,48.8222222 19.9576936,46.4148148 24.6762121,43.9111111 C24.7725084,44.2 24.7725084,44.3925926 24.7725084,44.5851852 L24.7725084,52.962963 C24.7725084,53.0592593 24.7725084,53.0592593 24.7725084,53.1555556 C24.7725084,53.1555556 24.7725084,53.2518519 24.7725084,53.2518519 C24.7725084,53.5407407 24.6762121,53.7333333 24.2910269,53.8296296 C18.4169528,56.5259259 12.4465825,59.3185185 6.57250838,62.1111111 C6.37991578,62.1111111 6.28361949,62.2074074 6.18732319,62.2074074 C6.09102689,62.2074074 5.9947306,62.1111111 5.8984343,62.1111111 C5.8984343,61.9185185 5.9947306,61.7259259 5.9947306,61.437037 Z M47.8836195,76.5555556 L4.16510097,76.5555556 C3.00954541,76.5555556 2.43176764,76.0740741 2.43176764,75.2074074 C2.43176764,74.5333333 3.00954541,73.9555556 3.77991578,73.9555556 L39.3132491,73.9555556 C39.4095454,73.9555556 39.5058417,73.9555556 39.602138,73.9555556 C40.2762121,73.8592593 40.6613973,73.3777778 40.6613973,72.8 C40.6613973,72.1259259 40.1799158,71.6444444 39.4095454,71.6444444 L6.09102689,71.6444444 C6.09102689,69.7185185 5.9947306,67.8888889 6.18732319,66.0592593 C6.18732319,65.7703704 6.28361949,65.4814815 6.28361949,65.1925926 C6.28361949,65.0962963 6.37991578,65 6.47621208,64.8074074 C6.47621208,64.8074074 6.57250838,64.7111111 6.57250838,64.7111111 C6.66880467,64.6148148 6.76510097,64.5185185 6.86139726,64.5185185 C10.4243602,62.7851852 13.8910269,61.1481481 17.4539899,59.5111111 C20.1502862,58.2592593 22.8465825,57.0074074 25.5428787,55.7555556 C25.8317676,55.6592593 26.4095454,55.562963 26.6984343,55.7555556 C32.9576936,58.6444444 39.1206565,61.5333333 45.3799158,64.5185185 C45.5725084,64.6148148 45.8613973,64.9037037 45.8613973,65.0962963 L45.8613973,71.5481481 L45.765101,71.5481481 L44.7058417,71.5481481 C44.2243602,71.5481481 43.839175,71.7407407 43.6465825,71.9333333 C43.4539899,72.1259259 43.3576936,72.4148148 43.3576936,72.7037037 C43.3576936,73.3777778 43.839175,73.8592593 44.7058417,73.8592593 L47.8836195,73.8592593 C48.9428787,73.8592593 49.5206565,74.437037 49.5206565,75.2074074 C49.5206565,76.0740741 48.9428787,76.5555556 47.8836195,76.5555556 Z" id="Shape" fill="#000000"></path>
        </g>
    </g>
</svg>