<?xml version="1.0" encoding="UTF-8"?>
<svg width="85px" height="85px" viewBox="0 0 85 85" version="1.1" xmlns="http://www.w3.org/2000/svg" xmlns:xlink="http://www.w3.org/1999/xlink">
    <!-- Generator: Sketch 53.2 (72643) - https://sketchapp.com -->
    <title>icon/big/upload</title>
    <desc>Created with Sketch.</desc>
    <g id="icon/big/upload" stroke="none" stroke-width="1" fill="none" fill-rule="evenodd">
        <g id="Group-2" transform="translate(1.000000, 9.000000)" fill-rule="nonzero">
            <path d="M62.9988057,55.9674419 C62.9988057,54.9906977 63.4871778,54.4046512 64.3662476,54.4046512 C66.6127592,54.3069767 69.1522941,54.0139535 71.4964802,52.6465116 C76.2825267,50.1069767 79.1150848,46.1023256 79.7011313,41.0232558 C80.7755499,32.8186047 75.5988057,25.4930233 67.3941546,23.8325581 C66.6127592,23.5395349 65.7336895,23.5395349 64.7569453,23.5395349 C64.0732243,23.5395349 63.3895034,23.5395349 62.5104336,23.6372093 C62.3150848,23.6372093 62.2174104,23.6372093 62.119736,23.6372093 C60.7522941,23.6372093 60.1662476,23.1488372 60.1662476,21.5860465 C59.9708988,15.2372093 57.236015,10.255814 52.2546197,6.64186047 C49.2267127,4.39534884 45.5150848,3.22325581 41.7057825,3.22325581 C35.2592709,3.22325581 29.2034569,6.54418605 25.9802011,11.8186047 C24.1243871,14.8465116 23.2453174,17.972093 23.0499685,21.6837209 C23.0499685,22.9534884 22.3662476,23.6372093 21.291829,23.6372093 C21.1941546,23.6372093 20.9988057,23.6372093 20.8034569,23.6372093 C20.0220616,23.5395349 19.3383406,23.5395349 18.5569453,23.5395349 C11.719736,23.5395349 5.66392202,28.1302326 3.80810806,34.6744186 C2.73368946,38.7767442 3.22206155,43.0744186 5.46857318,46.8837209 C7.71508481,50.6930233 11.2313639,53.0372093 15.5290383,54.0139535 C16.3104336,54.1116279 16.8964802,54.2093023 17.6778755,54.2093023 C18.0685732,54.2093023 18.4592709,54.3069767 18.8499685,54.3069767 C19.8267127,54.4046512 20.3150848,55.0883721 20.3150848,56.0651163" id="Path" fill="#80E7FF"></path>
            <path d="M51.1802011,60.0697674 L32.2313639,60.0697674 C30.4732243,60.0697674 29.0081081,58.7023256 29.0081081,56.8465116 L29.0081081,53.6232558 L26.7615964,53.6232558 C25.491829,53.6232558 24.319736,52.8418605 23.7336895,51.6697674 C23.1476429,50.4976744 23.5383406,49.1302326 24.4174104,48.1534884 L39.3615964,33.3069767 C40.6313639,32.0372093 42.6825267,32.0372093 43.8546197,33.3069767 L58.7988057,48.2511628 C59.7755499,49.227907 59.9708988,50.4976744 59.4825267,51.7674419 C58.9941546,52.9395349 57.919736,53.7209302 56.4546197,53.7209302 L54.2081081,53.7209302 L54.2081081,56.944186 C54.4034569,58.6046512 53.036015,60.0697674 51.1802011,60.0697674 Z M41.7057825,35.3581395 C41.7057825,35.3581395 41.6081081,35.3581395 41.7057825,35.3581395 L26.663922,50.4 C26.663922,50.4 26.5662476,50.4976744 26.663922,50.5953488 C26.663922,50.6930233 26.7615964,50.6930233 26.8592709,50.6930233 L32.1336895,50.6930233 L32.1336895,56.8465116 C32.1336895,56.944186 32.2313639,57.0418605 32.3290383,57.0418605 L51.3755499,57.0418605 C51.4732243,57.0418605 51.5708988,56.944186 51.5708988,56.8465116 L51.5708988,50.6930233 L56.8453174,50.6930233 C56.8453174,50.6930233 56.9429918,50.6930233 57.0406662,50.5953488 C57.0406662,50.4976744 57.0406662,50.4 57.0406662,50.4 L41.9988057,35.455814 C41.8034569,35.3581395 41.7057825,35.3581395 41.7057825,35.3581395 Z" id="Shape" fill="#000000"></path>
            <path d="M18.4592709,57.4325581 C9.66857318,57.4325581 1.85461969,50.8883721 0.291828995,42.2930233 C-1.46631054,32.0372093 4.88252667,22.7581395 14.9429918,20.5116279 C16.1150848,20.3162791 17.2871778,20.2186047 18.4592709,20.2186047 L18.6546197,20.2186047 C19.3383406,20.2186047 19.9243871,20.0232558 20.0220616,19.0465116 C21.4871778,9.9627907 26.663922,3.90697674 35.4546197,0.976744186 C37.4081081,0.293023256 39.5569453,0 41.6081081,0 C48.5429918,0 55.3802011,3.51627907 59.3848523,9.08372093 C61.5336895,12.2093023 62.8034569,15.4325581 63.1941546,18.9488372 C63.291829,19.827907 63.6825267,20.2186047 64.5615964,20.2186047 C72.7662476,20.3162791 79.7011313,25.3953488 82.3383406,33.1116279 C83.2174104,35.7488372 83.5104336,38.7767442 83.0220616,41.8046512 C82.6313639,44.8325581 81.263922,47.6651163 79.5057825,50.1069767 C76.4778755,54.2093023 71.8871778,56.8465116 67.0034569,57.3348837 C66.1243871,57.4325581 65.4406662,57.4325581 64.6592709,57.4325581 C64.6592709,57.4325581 61.0453174,57.4325581 60.9476429,57.4325581 C60.0685732,57.4325581 59.4825267,56.7488372 59.3848523,55.9674419 C59.3848523,54.9906977 59.8732243,54.4046512 60.7522941,54.4046512 C62.9988057,54.3069767 69.1522941,54.0139535 71.4964802,52.6465116 C76.2825267,50.1069767 79.1150848,46.1023256 79.7011313,41.0232558 C80.7755499,32.8186047 75.5988057,25.4930233 67.3941546,23.8325581 C66.5150848,23.5395349 65.636015,23.5395349 64.6592709,23.5395349 C63.9755499,23.5395349 63.291829,23.5395349 62.4127592,23.6372093 C62.2174104,23.6372093 62.119736,23.6372093 62.0220616,23.6372093 C60.6546197,23.6372093 60.0685732,23.1488372 60.0685732,21.5860465 C59.8732243,15.2372093 57.1383406,10.255814 52.1569453,6.64186047 C49.1290383,4.39534884 45.4174104,3.22325581 41.6081081,3.22325581 C35.1615964,3.22325581 29.1057825,6.54418605 25.8825267,11.8186047 C24.0267127,14.8465116 23.1476429,17.972093 22.9522941,21.6837209 C22.9522941,22.9534884 22.2685732,23.6372093 21.1941546,23.6372093 C21.0964802,23.6372093 20.9011313,23.6372093 20.7057825,23.6372093 C19.9243871,23.5395349 19.2406662,23.5395349 18.4592709,23.5395349 C11.6220616,23.5395349 5.5662476,28.1302326 3.71043365,34.6744186 C2.63601504,38.7767442 3.12438713,43.0744186 5.37089876,46.8837209 C7.61741039,50.6930233 11.1336895,53.0372093 15.4313639,54.0139535 C16.2127592,54.1116279 16.7988057,54.2093023 17.5802011,54.2093023 C17.9708988,54.2093023 22.3662476,54.3069767 22.8546197,54.3069767 C23.8313639,54.4046512 24.319736,55.0883721 24.319736,56.0651163 C24.2220616,56.944186 23.5383406,57.4325581 22.5615964,57.4325581 C22.5615964,57.4325581 18.4592709,57.4325581 18.4592709,57.4325581 Z" id="Path" fill="#000000"></path>
            <path d="M28.7150848,22.4651163 C27.7383406,22.4651163 27.1522941,21.5860465 27.1522941,20.6093023 C27.3476429,13.9674419 32.036015,8.49767442 38.5802011,7.42325581 C39.0685732,7.3255814 39.6546197,7.3255814 40.436015,7.22790698 L40.436015,7.22790698 C41.5104336,7.22790698 42.291829,7.91162791 42.291829,8.79069767 C42.291829,9.18139535 42.1941546,9.66976744 41.9011313,9.86511628 C41.6081081,10.1581395 41.119736,10.3534884 40.6313639,10.3534884 C37.6034569,10.4511628 35.063922,11.5255814 33.1104336,13.772093 C31.3522941,15.627907 30.5708988,17.972093 30.4732243,20.5116279 C30.2778755,21.7813953 29.5941546,22.4651163 28.7150848,22.4651163 L28.7150848,22.4651163 Z" id="Path" fill="#000000"></path>
            <path d="M41.7057825,35.3581395 C41.7057825,35.3581395 41.6081081,35.3581395 41.7057825,35.3581395 L26.663922,50.4 C26.663922,50.4 26.5662476,50.4976744 26.663922,50.5953488 C26.663922,50.6930233 26.7615964,50.6930233 26.8592709,50.6930233 L32.1336895,50.6930233 L32.1336895,56.8465116 C32.1336895,56.944186 32.2313639,57.0418605 32.3290383,57.0418605 L51.3755499,57.0418605 C51.4732243,57.0418605 51.5708988,56.944186 51.5708988,56.8465116 L51.5708988,50.6930233 L56.8453174,50.6930233 C56.8453174,50.6930233 56.9429918,50.6930233 57.0406662,50.5953488 C57.0406662,50.4976744 57.0406662,50.4 57.0406662,50.4 L41.9988057,35.455814 C41.8034569,35.3581395 41.7057825,35.3581395 41.7057825,35.3581395 Z" id="Path" fill="#FCF7D3"></path>
        </g>
    </g>
</svg>