<?xml version="1.0" encoding="UTF-8"?>
<svg width="85px" height="85px" viewBox="0 0 85 85" version="1.1" xmlns="http://www.w3.org/2000/svg" xmlns:xlink="http://www.w3.org/1999/xlink">
    <!-- Generator: Sketch 53.2 (72643) - https://sketchapp.com -->
    <title>icon/big/webcamOff</title>
    <desc>Created with Sketch.</desc>
    <defs>
        <polygon id="path-1" points="0 0.668168136 66.9077332 0.668168136 66.9077332 67.5742857 0 67.5742857"></polygon>
        <polygon id="path-3" points="0.275548539 0.574477143 51.0509854 0.574477143 51.0509854 18.1857143 0.275548539 18.1857143"></polygon>
    </defs>
    <g id="icon/big/webcamOff" stroke="none" stroke-width="1" fill="none" fill-rule="evenodd">
        <path d="M27.9005814,64.9816271 C38.2377243,69.95877 48.4791529,69.95877 58.7205814,64.9816271 C59.58201,66.1301986 60.5391529,67.27877 61.4005814,68.4282986 C63.0277243,70.5330557 64.7505814,72.63877 66.3777243,74.7444843 C66.95201,75.4144843 67.3348671,76.1801986 67.1434386,77.1373414 C66.95201,78.5730557 65.8991529,79.4354414 64.27201,79.4354414 L50.2977243,79.4354414 L22.1577243,79.4354414 C20.1477243,79.4354414 18.8077243,77.9997271 19.2862957,76.1801986 C19.38201,75.7973414 19.5734386,75.4144843 19.7648671,75.1282986 C22.6362957,71.6816271 25.2205814,68.4282986 27.9005814,64.9816271" id="Fill-1" fill="#FFFFFF"></path>
        <g id="Group-5" transform="translate(10.000000, 2.288961)">
            <mask id="mask-2" fill="white">
                <use xlink:href="#path-1"></use>
            </mask>
            <g id="Clip-4"></g>
            <path d="M33.3101986,64.7985714 C16.2730557,64.6071429 2.58591286,50.7285714 2.77734143,33.9785714 C2.96877,16.9414286 16.8473414,3.25428571 33.78877,3.54142857 C50.6344843,3.73285714 64.3216271,17.7071429 64.1301986,34.4571429 C63.8430557,51.3028571 50.0601986,64.7028571 33.3101986,64.7985714 M33.78877,0.67 C15.3159129,0.478571429 0.193055714,15.3142857 0.00162714286,33.8828571 C-0.189801429,52.26 14.7416271,67.2871429 33.3101986,67.5742857 C51.5916271,67.5742857 66.61877,52.8342857 66.9059129,34.3614286 C67.0973414,16.08 52.1659129,0.861428571 33.78877,0.67" id="Fill-3" fill="#000000" mask="url(#mask-2)"></path>
        </g>
        <path d="M43.4060086,19.03877 C33.83458,19.03877 26.0817229,26.8873414 26.0817229,36.3630557 C26.0817229,45.9354414 33.9302943,53.6873414 43.5017229,53.6873414 C53.0731514,53.5925843 60.8260086,45.9354414 60.8260086,36.3630557 C60.7302943,26.8873414 52.8817229,19.03877 43.4060086,19.03877 M43.3102943,67.0873414 C26.2731514,66.8959129 12.5860086,53.0173414 12.7774371,36.2673414 C12.9688657,19.2301986 26.8474371,5.54305571 43.7888657,5.73448429 C60.63458,5.92591286 74.3217229,19.9001986 74.1302943,36.6501986 C73.8431514,53.5925843 60.0602943,66.9925843 43.3102943,67.0873414" id="Fill-6" fill="#DADADA"></path>
        <path d="M43.4060086,51.0077243 C51.4460086,51.0077243 58.0502943,44.4034386 58.0502943,36.3634386 C58.0502943,28.3234386 51.3502943,21.7191529 43.3102943,21.7191529 C35.2702943,21.7191529 28.6660086,28.3234386 28.6660086,36.3634386 C28.7617229,44.4991529 35.3660086,51.0077243 43.4060086,51.0077243 M43.4060086,19.0391529 C52.8817229,19.0391529 60.7302943,26.8877243 60.7302943,36.3634386 C60.7302943,45.8391529 52.9774371,53.59201 43.4060086,53.6877243 C33.9302943,53.7824814 26.0817229,45.9348671 25.9860086,36.3634386 C25.9860086,26.8877243 33.83458,19.0391529 43.4060086,19.0391529" id="Fill-8" fill="#000000"></path>
        <path d="M43.3101986,45.64715 C48.47877,45.64715 52.6901986,41.4366786 52.6901986,36.3628643 C52.6901986,31.2900071 48.5744843,27.0795357 43.4059129,27.0795357 C38.2373414,27.0795357 33.9301986,31.2900071 34.0259129,36.4585786 C34.0259129,41.5314357 38.2373414,45.64715 43.3101986,45.64715 M43.4059129,51.0081071 C35.3659129,51.0081071 28.7616271,44.4995357 28.6659129,36.3628643 C28.6659129,28.3228643 35.1744843,21.7185786 43.3101986,21.6228643 C51.3501986,21.52715 57.9544843,28.22715 58.0501986,36.26715 C58.0501986,44.4028643 51.4459129,51.0081071 43.4059129,51.0081071" id="Fill-10" fill="#A1A1A1"></path>
        <path d="M43.4060086,29.7589614 C39.7688657,29.7589614 36.8017229,32.63039 36.7060086,36.3632471 C36.6102943,40.00039 39.6731514,43.0632471 43.3102943,43.0632471 C46.9474371,43.0632471 49.91458,40.0961043 50.0102943,36.4589614 C50.1060086,32.8218186 47.0431514,29.7589614 43.4060086,29.7589614 M43.3102943,45.6475329 C38.2374371,45.6475329 34.0260086,41.4361043 34.0260086,36.3632471 C34.0260086,31.1946757 38.2374371,26.9832471 43.4060086,26.9832471 C48.57458,26.9832471 52.6902943,31.1946757 52.6902943,36.2675329 C52.6902943,41.5318186 48.4788657,45.7432471 43.3102943,45.6475329" id="Fill-12" fill="#000000"></path>
        <path d="M43.4060086,29.7589614 C47.0431514,29.7589614 50.1060086,32.8218186 50.0102943,36.4589614 C49.91458,40.1918186 46.9474371,43.1589614 43.3102943,43.0632471 C39.6731514,43.0632471 36.6102943,40.00039 36.7060086,36.3632471 C36.8017229,32.63039 39.7688657,29.6632471 43.4060086,29.7589614" id="Fill-14" fill="#5F5F5F"></path>
        <g id="Group-18" transform="translate(17.657143, 62.588961)">
            <mask id="mask-4" fill="white">
                <use xlink:href="#path-3"></use>
            </mask>
            <g id="Clip-17"></g>
            <path d="M3.44762857,13.3044771 C3.35191429,13.4959057 3.2562,13.6863771 3.16048571,13.8787629 C3.06477143,14.1649486 3.06477143,14.5487629 3.35191429,14.93162 C3.63905714,15.2187629 4.02191429,15.4101914 4.5962,15.4101914 L46.7104857,15.4101914 C48.0504857,15.4101914 48.1462,14.64352 48.1462,14.3573343 C48.1462,13.9744771 48.0504857,13.59162 47.6676286,13.0173343 C46.9019143,12.0601914 46.0404857,11.0073343 45.1790571,9.95447714 C44.3176286,8.90066286 43.4562,7.84876286 42.6904857,6.79590571 C42.2119143,6.22162 41.8290571,5.64733429 41.3504857,5.07209143 C41.1590571,4.78590571 40.8719143,4.49876286 40.6804857,4.21162 C30.5347714,8.80590571 20.6762,8.90066286 10.5304857,4.30733429 C8.23334286,7.17876286 5.84048571,10.24162 3.44762857,13.3044771 M46.8062,18.1859057 L4.69191429,18.1859057 C3.2562,18.1859057 2.01191429,17.61162 1.15048571,16.6544771 C0.384771429,15.6973343 0.0976285714,14.5487629 0.384771429,13.2078057 C0.5762,12.4430486 0.863342857,11.8687629 1.05477143,11.6773343 L1.15048571,11.58162 C3.73477143,8.23162 6.51048571,4.78590571 9.09477143,1.53162 L9.76477143,0.670191429 L10.8176286,1.14876286 C20.7719143,5.93447714 30.5347714,5.93447714 40.5847714,1.05304857 L41.6376286,0.574477143 L42.3076286,1.53162 C42.6904857,2.10590571 43.1690571,2.67923429 43.6476286,3.25447714 C44.1262,3.82876286 44.6047714,4.40304857 44.9876286,4.97733429 C45.7533429,6.02923429 46.6147714,7.08304857 47.4762,8.13590571 C48.3376286,9.18876286 49.1990571,10.24162 49.9647714,11.29352 C50.5390571,12.0601914 51.2090571,13.2078057 51.0176286,14.7401914 C50.8262,16.7501914 49.1033429,18.1859057 46.8062,18.1859057" id="Fill-16" fill="#000000" mask="url(#mask-4)"></path>
        </g>
    </g>
</svg>