<?xml version="1.0" encoding="UTF-8"?>
<svg width="85px" height="85px" viewBox="0 0 85 85" version="1.1" xmlns="http://www.w3.org/2000/svg" xmlns:xlink="http://www.w3.org/1999/xlink">
    <!-- Generator: Sketch 53.2 (72643) - https://sketchapp.com -->
    <title>icon/big/webcam</title>
    <desc>Created with Sketch.</desc>
    <defs>
        <polygon id="path-1" points="0 0.668168136 66.9077332 0.668168136 66.9077332 67.5742857 0 67.5742857"></polygon>
        <polygon id="path-3" points="0.275548539 0.574477143 51.0509854 0.574477143 51.0509854 18.1857143 0.275548539 18.1857143"></polygon>
    </defs>
    <g id="icon/big/webcam" stroke="none" stroke-width="1" fill="none" fill-rule="evenodd">
        <g id="Group-19" transform="translate(10.000000, 2.000000)">
            <path d="M17.9005814,62.9816271 C28.2377243,67.95877 38.4791529,67.95877 48.7205814,62.9816271 C49.58201,64.1301986 50.5391529,65.27877 51.4005814,66.4282986 C53.0277243,68.5330557 54.7505814,70.63877 56.3777243,72.7444843 C56.95201,73.4144843 57.3348671,74.1801986 57.1434386,75.1373414 C56.95201,76.5730557 55.8991529,77.4354414 54.27201,77.4354414 L40.2977243,77.4354414 L12.1577243,77.4354414 C10.1477243,77.4354414 8.80772429,75.9997271 9.28629571,74.1801986 C9.38201,73.7973414 9.57343857,73.4144843 9.76486714,73.1282986 C12.6362957,69.6816271 15.2205814,66.4282986 17.9005814,62.9816271" id="Fill-1" fill="#FCF7D3"></path>
            <g id="Group-5" transform="translate(0.000000, 0.288961)">
                <mask id="mask-2" fill="white">
                    <use xlink:href="#path-1"></use>
                </mask>
                <g id="Clip-4"></g>
                <path d="M33.3101986,64.7985714 C16.2730557,64.6071429 2.58591286,50.7285714 2.77734143,33.9785714 C2.96877,16.9414286 16.8473414,3.25428571 33.78877,3.54142857 C50.6344843,3.73285714 64.3216271,17.7071429 64.1301986,34.4571429 C63.8430557,51.3028571 50.0601986,64.7028571 33.3101986,64.7985714 M33.78877,0.67 C15.3159129,0.478571429 0.193055714,15.3142857 0.00162714286,33.8828571 C-0.189801429,52.26 14.7416271,67.2871429 33.3101986,67.5742857 C51.5916271,67.5742857 66.61877,52.8342857 66.9059129,34.3614286 C67.0973414,16.08 52.1659129,0.861428571 33.78877,0.67" id="Fill-3" fill="#000000" mask="url(#mask-2)"></path>
            </g>
            <path d="M33.4060086,17.03877 C23.83458,17.03877 16.0817229,24.8873414 16.0817229,34.3630557 C16.0817229,43.9354414 23.9302943,51.6873414 33.5017229,51.6873414 C43.0731514,51.5925843 50.8260086,43.9354414 50.8260086,34.3630557 C50.7302943,24.8873414 42.8817229,17.03877 33.4060086,17.03877 M33.3102943,65.0873414 C16.2731514,64.8959129 2.58600857,51.0173414 2.77743714,34.2673414 C2.96886571,17.2301986 16.8474371,3.54305571 33.7888657,3.73448429 C50.63458,3.92591286 64.3217229,17.9001986 64.1302943,34.6501986 C63.8431514,51.5925843 50.0602943,64.9925843 33.3102943,65.0873414" id="Fill-6" fill="#80E7FF"></path>
            <path d="M33.4060086,49.0077243 C41.4460086,49.0077243 48.0502943,42.4034386 48.0502943,34.3634386 C48.0502943,26.3234386 41.3502943,19.7191529 33.3102943,19.7191529 C25.2702943,19.7191529 18.6660086,26.3234386 18.6660086,34.3634386 C18.7617229,42.4991529 25.3660086,49.0077243 33.4060086,49.0077243 M33.4060086,17.0391529 C42.8817229,17.0391529 50.7302943,24.8877243 50.7302943,34.3634386 C50.7302943,43.8391529 42.9774371,51.59201 33.4060086,51.6877243 C23.9302943,51.7824814 16.0817229,43.9348671 15.9860086,34.3634386 C15.9860086,24.8877243 23.83458,17.0391529 33.4060086,17.0391529" id="Fill-8" fill="#000000"></path>
            <path d="M33.3101986,43.64715 C38.47877,43.64715 42.6901986,39.4366786 42.6901986,34.3628643 C42.6901986,29.2900071 38.5744843,25.0795357 33.4059129,25.0795357 C28.2373414,25.0795357 23.9301986,29.2900071 24.0259129,34.4585786 C24.0259129,39.5314357 28.2373414,43.64715 33.3101986,43.64715 M33.4059129,49.0081071 C25.3659129,49.0081071 18.7616271,42.4995357 18.6659129,34.3628643 C18.6659129,26.3228643 25.1744843,19.7185786 33.3101986,19.6228643 C41.3501986,19.52715 47.9544843,26.22715 48.0501986,34.26715 C48.0501986,42.4028643 41.4459129,49.0081071 33.4059129,49.0081071" id="Fill-10" fill="#57AAB2"></path>
            <path d="M33.4060086,27.7589614 C29.7688657,27.7589614 26.8017229,30.63039 26.7060086,34.3632471 C26.6102943,38.00039 29.6731514,41.0632471 33.3102943,41.0632471 C36.9474371,41.0632471 39.91458,38.0961043 40.0102943,34.4589614 C40.1060086,30.8218186 37.0431514,27.7589614 33.4060086,27.7589614 M33.3102943,43.6475329 C28.2374371,43.6475329 24.0260086,39.4361043 24.0260086,34.3632471 C24.0260086,29.1946757 28.2374371,24.9832471 33.4060086,24.9832471 C38.57458,24.9832471 42.6902943,29.1946757 42.6902943,34.2675329 C42.6902943,39.5318186 38.4788657,43.7432471 33.3102943,43.6475329" id="Fill-12" fill="#000000"></path>
            <path d="M33.4060086,27.7589614 C37.0431514,27.7589614 40.1060086,30.8218186 40.0102943,34.4589614 C39.91458,38.1918186 36.9474371,41.1589614 33.3102943,41.0632471 C29.6731514,41.0632471 26.6102943,38.00039 26.7060086,34.3632471 C26.8017229,30.63039 29.7688657,27.6632471 33.4060086,27.7589614" id="Fill-14" fill="#006F83"></path>
            <g id="Group-18" transform="translate(7.657143, 60.588961)">
                <mask id="mask-4" fill="white">
                    <use xlink:href="#path-3"></use>
                </mask>
                <g id="Clip-17"></g>
                <path d="M3.44762857,13.3044771 C3.35191429,13.4959057 3.2562,13.6863771 3.16048571,13.8787629 C3.06477143,14.1649486 3.06477143,14.5487629 3.35191429,14.93162 C3.63905714,15.2187629 4.02191429,15.4101914 4.5962,15.4101914 L46.7104857,15.4101914 C48.0504857,15.4101914 48.1462,14.64352 48.1462,14.3573343 C48.1462,13.9744771 48.0504857,13.59162 47.6676286,13.0173343 C46.9019143,12.0601914 46.0404857,11.0073343 45.1790571,9.95447714 C44.3176286,8.90066286 43.4562,7.84876286 42.6904857,6.79590571 C42.2119143,6.22162 41.8290571,5.64733429 41.3504857,5.07209143 C41.1590571,4.78590571 40.8719143,4.49876286 40.6804857,4.21162 C30.5347714,8.80590571 20.6762,8.90066286 10.5304857,4.30733429 C8.23334286,7.17876286 5.84048571,10.24162 3.44762857,13.3044771 M46.8062,18.1859057 L4.69191429,18.1859057 C3.2562,18.1859057 2.01191429,17.61162 1.15048571,16.6544771 C0.384771429,15.6973343 0.0976285714,14.5487629 0.384771429,13.2078057 C0.5762,12.4430486 0.863342857,11.8687629 1.05477143,11.6773343 L1.15048571,11.58162 C3.73477143,8.23162 6.51048571,4.78590571 9.09477143,1.53162 L9.76477143,0.670191429 L10.8176286,1.14876286 C20.7719143,5.93447714 30.5347714,5.93447714 40.5847714,1.05304857 L41.6376286,0.574477143 L42.3076286,1.53162 C42.6904857,2.10590571 43.1690571,2.67923429 43.6476286,3.25447714 C44.1262,3.82876286 44.6047714,4.40304857 44.9876286,4.97733429 C45.7533429,6.02923429 46.6147714,7.08304857 47.4762,8.13590571 C48.3376286,9.18876286 49.1990571,10.24162 49.9647714,11.29352 C50.5390571,12.0601914 51.2090571,13.2078057 51.0176286,14.7401914 C50.8262,16.7501914 49.1033429,18.1859057 46.8062,18.1859057" id="Fill-16" fill="#000000" mask="url(#mask-4)"></path>
            </g>
        </g>
    </g>
</svg>