<?xml version="1.0" encoding="UTF-8"?>
<svg width="85px" height="85px" viewBox="0 0 85 85" version="1.1" xmlns="http://www.w3.org/2000/svg" xmlns:xlink="http://www.w3.org/1999/xlink">
    <!-- Generator: Sketch 53.2 (72643) - https://sketchapp.com -->
    <title>icon/big/witness</title>
    <desc>Created with Sketch.</desc>
    <defs>
        <rect id="path-1" x="0" y="0" width="85" height="85"></rect>
        <polygon id="path-3" points="0 0.190392379 84.9999 0.190392379 84.9999 55.9502 0 55.9502"></polygon>
    </defs>
    <g id="icon/big/witness" stroke="none" stroke-width="1" fill="none" fill-rule="evenodd">
        <mask id="mask-2" fill="white">
            <use xlink:href="#path-1"></use>
        </mask>
        <g id="Background"></g>
        <g id="Group-32" mask="url(#mask-2)">
            <g transform="translate(0.000000, 1.000000)">
                <path d="M65.7001,68.3594 C65.2001,69.3594 56.0001,82.5594 43.6001,82.5594 C31.2001,82.5594 24.6001,77.4604 20.2001,68.3594 C24.5001,59.6604 33.3001,54.1604 42.9001,54.1604 C52.6001,54.1604 61.4001,59.6604 65.7001,68.3594" id="Fill-1" fill="#FCF7D3"></path>
                <path d="M21.5985,68.3682 C26.1625,77.4312 32.7775,81.3092 43.5995,81.3092 C54.4255,81.3092 62.5545,70.7002 64.2555,68.2812 C60.0365,60.3232 51.9185,55.4102 42.8995,55.4102 C33.9085,55.4102 25.8015,60.3582 21.5985,68.3682 M43.5995,83.8092 C31.6225,83.8092 24.0585,79.2122 19.0745,68.9032 C18.9075,68.5562 18.9085,68.1512 19.0795,67.8062 C23.6205,58.6182 32.7485,52.9102 42.8995,52.9102 C53.1125,52.9102 62.2785,58.6182 66.8205,67.8062 C66.9945,68.1562 66.9935,68.5682 66.8185,68.9182 C65.8905,70.7742 56.2405,83.8092 43.5995,83.8092" id="Fill-3" fill="#000000"></path>
                <path d="M43.1,59.0596 C48.2,59.0596 52.3,63.1606 52.3,68.2596 C52.3,73.3596 48.2,77.4596 43.1,77.4596 C38,77.4596 33.9,73.3596 33.9,68.2596 C33.9,63.2596 38,59.0596 43.1,59.0596" id="Fill-5" fill="#61BACA"></path>
                <path d="M43.1,60.3096 C38.716,60.3096 35.15,63.8756 35.15,68.2596 C35.15,72.6436 38.716,76.2096 43.1,76.2096 C47.483,76.2096 51.05,72.6436 51.05,68.2596 C51.05,63.8756 47.483,60.3096 43.1,60.3096 M43.1,78.7096 C37.338,78.7096 32.65,74.0226 32.65,68.2596 C32.65,62.4976 37.338,57.8096 43.1,57.8096 C48.862,57.8096 53.55,62.4976 53.55,68.2596 C53.55,74.0226 48.862,78.7096 43.1,78.7096" id="Fill-7" fill="#000000"></path>
                <path d="M42.4999,7.96 C25.5999,7.96 10.4999,5.76 1.1999,2.26 L1.1999,55.76 C10.4999,52.26 25.4999,50.06 42.4999,50.06 C59.3999,50.06 74.4999,52.26 83.7999,55.76 L83.7999,2.26 C74.4999,5.66 59.3999,7.96 42.4999,7.96" id="Fill-9" fill="#80E7FF"></path>
                <path d="M49.9999,25.0596 L26.8999,50.7596 C31.7999,50.3596 37.0999,50.0596 42.4999,50.0596 C59.3999,50.0596 74.4999,52.2596 83.7999,55.7596 L55.5999,25.0596 C54.0999,23.3596 51.4999,23.3596 49.9999,25.0596" id="Fill-11" fill="#61BACA"></path>
                <path d="M75.6,53.3594 C78.7,54.0594 81.4,54.8594 83.8,55.7594 L55.6,25.0594 C54.1,23.3594 51.5,23.3594 50,25.0594 L49.8,25.2594 L75.6,53.3594 Z" id="Fill-13" fill="#3DAABE"></path>
                <path d="M47.4999,50.1602 L29.1999,29.7602 C27.7999,28.2602 25.4999,28.2602 24.0999,29.7602 L1.1999,55.7602 C10.4999,52.2602 25.4999,50.0592 42.4999,50.0592 C44.1999,50.0592 45.8999,50.0592 47.4999,50.1602" id="Fill-15" fill="#61BACA"></path>
                <path d="M29.2001,29.7598 C27.8001,28.2598 25.5001,28.2598 24.1001,29.7598 L23.6001,30.2598 L41.4001,50.0598 L42.4001,50.0598 C44.1001,50.0598 45.8001,50.0598 47.4001,50.1598 L29.2001,29.7598 Z" id="Fill-17" fill="#3DAABE"></path>
                <path d="M42.6,19.46 C42.6,21.96 40.6,23.96 38.1,23.96 C35.6,23.96 33.6,21.96 33.6,19.46 C33.6,16.96 35.6,14.96 38.1,14.96 C40.6,14.96 42.6,16.96 42.6,19.46" id="Fill-19" fill="#EFD516"></path>
                <path d="M34.7997,19.46 C34.7997,17.66 36.2997,16.26 37.9997,16.26 C39.7997,16.26 41.1997,17.76 41.1997,19.46 C41.1997,21.16 39.6997,22.66 37.9997,22.66 C36.2997,22.66 34.7997,21.26 34.7997,19.46 M43.7997,19.46 C43.7997,16.26 41.1997,13.76 38.0997,13.76 C34.8997,13.76 32.3997,16.36 32.3997,19.46 C32.3997,22.56 34.9997,25.16 38.0997,25.16 C41.1997,25.16 43.7997,22.56 43.7997,19.46" id="Fill-21" fill="#000000"></path>
                <g id="Group-25" stroke-width="1" fill="none" transform="translate(0.000000, 0.809600)">
                    <mask id="mask-4" fill="white">
                        <use xlink:href="#path-3"></use>
                    </mask>
                    <g id="Clip-24"></g>
                    <path d="M84.9999,1.4502 C84.9999,1.0502 84.7999,0.6502 84.4999,0.4502 C84.1999,0.2502 83.6999,0.1502 83.3999,0.3502 C73.8999,3.8502 58.6999,5.9502 42.5999,5.9502 C35.2999,5.9502 28.1999,5.5502 21.5999,4.7502 C20.8999,4.6502 20.2999,5.1502 20.1999,5.8502 C20.0999,6.5502 20.5999,7.1502 21.2999,7.2502 C27.8999,7.9502 35.0999,8.3502 42.4999,8.3502 C58.1999,8.3502 72.5999,6.4502 82.4999,3.1502 L82.4999,51.7502 L72.9999,41.4502 C72.4999,40.9502 71.6999,40.9502 71.1999,41.3502 C70.6999,41.8502 70.6999,42.6502 71.0999,43.1502 L79.4999,52.3502 C69.7999,49.5502 56.5999,48.0502 42.2999,48.0502 C27.9999,48.0502 14.6999,49.6502 4.9999,52.4502 L11.3999,45.1502 C11.8999,44.6502 11.7999,43.8502 11.2999,43.3502 C10.7999,42.8502 9.9999,42.9502 9.4999,43.4502 L2.2999,51.6502 L2.2999,3.1502 C6.1999,4.4502 10.6999,5.5502 15.9999,6.3502 C16.6999,6.4502 17.2999,5.9502 17.3999,5.3502 C17.4999,4.7502 16.9999,4.0502 16.3999,3.9502 C10.4999,2.9502 5.4999,1.7502 1.4999,0.2502 C1.2999,0.1502 0.8999,0.1502 0.4999,0.4502 C0.1999,0.6502 -0.0001,1.0502 -0.0001,1.4502 L-0.0001,54.9502 L-0.0001,55.0502 L-0.0001,55.1502 L-0.0001,55.2502 L-0.0001,55.3502 C-0.0001,55.3502 -0.0001,55.4502 0.0999,55.4502 C0.0999,55.4502 0.0999,55.5502 0.1999,55.5502 L0.2999,55.6502 L0.3999,55.7502 L0.4999,55.8502 C0.5999,55.8502 0.5999,55.8502 0.6999,55.9502 L0.8999,55.9502 L1.0999,55.9502 L1.1999,55.9502 L1.2999,55.9502 L1.3999,55.9502 L1.4999,55.9502 C10.9999,52.4502 26.1999,50.3502 42.2999,50.3502 C58.3999,50.3502 73.5999,52.4502 83.0999,55.9502 L83.1999,55.9502 L83.2999,55.9502 L83.3999,55.9502 L83.4999,55.9502 L83.5999,55.9502 C83.6999,55.9502 83.7999,55.8502 83.8999,55.8502 C83.8999,55.8502 83.9999,55.8502 83.9999,55.7502 C83.9999,55.7502 84.0999,55.7502 84.0999,55.6502 L84.1999,55.5502 L84.2999,55.4502 C84.2999,55.4502 84.2999,55.3502 84.3989,55.3502 L84.3989,55.2502 L84.3989,55.1502 L84.3989,55.0502 L84.3989,54.9502 L84.3989,1.4502 L84.9999,1.4502 Z" id="Fill-23" fill="#000000" mask="url(#mask-4)"></path>
                </g>
                <path d="M26.7001,27.46 C25.4001,27.46 24.1001,28.06 23.2001,28.96 L13.0001,40.56 C12.5001,41.06 12.6001,41.86 13.1001,42.36 C13.6001,42.86 14.4001,42.76 14.9001,42.26 L25.1001,30.76 C25.5001,30.26 26.1001,30.06 26.7001,30.06 C27.3001,30.06 27.9001,30.36 28.3001,30.76 L36.6001,39.96 L41.9001,45.859 C42.1001,46.16 42.5001,46.26 42.8001,46.26 C43.1001,46.26 43.4001,46.16 43.6001,45.96 C44.1001,45.46 44.2001,44.76 43.7001,44.16 L39.2001,39.16 L51.0001,26.06 C51.5001,25.56 52.2001,25.26 52.9001,25.26 C53.6001,25.26 54.3001,25.56 54.8001,26.06 L67.9001,40.36 C68.1001,40.66 68.5001,40.76 68.8001,40.76 C69.1001,40.76 69.4001,40.66 69.6001,40.46 C70.1001,39.96 70.1001,39.16 69.7001,38.66 L56.6001,24.26 C55.6001,23.16 54.3001,22.56 52.9001,22.56 C51.5001,22.56 50.1001,23.16 49.2001,24.26 L37.5001,37.16 L30.0991,28.96 C29.2001,27.96 28.0001,27.46 26.7001,27.46" id="Fill-26" fill="#000000"></path>
                <path d="M46.8998,67.2598 C47.2998,69.0598 46.3998,70.8598 44.7998,71.6598 C43.1998,72.4598 41.1998,72.0598 39.9998,70.7598 C38.7998,69.4598 38.6998,67.4598 39.5998,65.9598 C40.5998,64.4598 42.4998,63.7598 44.1998,64.3598 L44.0998,64.4598 C43.2998,65.2598 43.2998,66.4598 44.0998,67.2598 C44.8998,68.0598 46.0998,68.0598 46.8998,67.2598" id="Fill-28" fill="#C0F5FF"></path>
                <path d="M42.2719,65.4873 C41.6269,65.6573 41.0329,66.0633 40.6399,66.6533 C40.0309,67.6723 40.1349,69.0623 40.9179,69.9123 C41.7569,70.8213 43.1549,71.0863 44.2409,70.5423 C44.8609,70.2313 45.3189,69.7123 45.5579,69.1033 C44.7289,69.1183 43.8709,68.7993 43.2159,68.1433 C42.5929,67.5203 42.2499,66.7103 42.2499,65.8603 C42.2499,65.7343 42.2569,65.6103 42.2719,65.4873 M43.0199,73.3273 C41.5619,73.3273 40.1179,72.7293 39.0819,71.6073 C37.5369,69.9353 37.3099,67.3483 38.5279,65.3173 C39.9009,63.2533 42.3929,62.3973 44.6159,63.1803 C45.0209,63.3233 45.3229,63.6633 45.4189,64.0813 C45.5139,64.4993 45.3889,64.9373 45.0859,65.2413 L44.9859,65.3413 C44.8309,65.4973 44.7499,65.6753 44.7499,65.8603 C44.7499,66.0443 44.8309,66.2223 44.9839,66.3763 C45.2969,66.6883 45.7029,66.6883 46.0159,66.3763 C46.3389,66.0523 46.8119,65.9343 47.2499,66.0593 C47.6879,66.1873 48.0209,66.5433 48.1199,66.9883 C48.6389,69.3243 47.5039,71.7053 45.3589,72.7783 C44.6189,73.1483 43.8169,73.3273 43.0199,73.3273" id="Fill-30" fill="#000000"></path>
            </g>
        </g>
    </g>
</svg>