<?xml version="1.0" encoding="UTF-8"?>
<svg width="85px" height="85px" viewBox="0 0 85 85" version="1.1" xmlns="http://www.w3.org/2000/svg" xmlns:xlink="http://www.w3.org/1999/xlink">
    <!-- Generator: Sketch 53.2 (72643) - https://sketchapp.com -->
    <title>icon/flat/pdf</title>
    <desc>Created with Sketch.</desc>
    <g id="icon/flat/pdf" stroke="none" stroke-width="1" fill="none" fill-rule="evenodd">
        <g id="Group-3" transform="translate(5.000000, 10.000000)" fill="#ffffff" fill-rule="nonzero">
            <path d="M73.1,17.7 L56.5,0.4 C56.3,0.2 55.9,0 55.6,0 L30.8,0 C28,0 25.8,2.3 25.8,5 L25.8,22.6 L3.8,22.6 C1.7,22.6 0,24.3 0,26.4 L0,45.2 C0,47.3 1.7,49 3.8,49 L25.8,49 L25.8,60.3 C25.8,63.1 28.1,65.3 30.8,65.3 L68.4,65.3 C71.2,65.3 73.4,63.1 73.4,60.3 L73.4,18.6 C73.4,18.3 73.3,18 73.1,17.7 Z M55.8,3.5 L69.4,17.7 L55.8,17.7 L55.8,3.5 Z M3.7,46.5 C3,46.5 2.4,45.9 2.4,45.2 L2.4,26.4 C2.4,25.7 3,25.1 3.7,25.1 L49.6,25.1 C50.3,25.1 50.9,25.7 50.9,26.4 L50.9,45.2 C50.9,45.9 50.3,46.5 49.6,46.5 L3.7,46.5 Z M70.9,60.3 C70.9,61.7 69.8,62.8 68.4,62.8 L30.8,62.8 C29.4,62.8 28.3,61.7 28.3,60.3 L28.3,49 L49.6,49 C51.7,49 53.4,47.3 53.4,45.2 L53.4,26.4 C53.4,24.3 51.7,22.6 49.6,22.6 L28.2,22.6 L28.2,5.1 C28.2,3.7 29.3,2.6 30.7,2.6 L53.3,2.6 L53.3,18.9 C53.3,19.6 53.9,20.2 54.6,20.2 L70.9,20.2 L70.9,60.3 L70.9,60.3 Z" id="Shape"></path>
            <path d="M26.9,31.9 C26.5,31.4 26,31 25.3,30.8 C24.9,30.7 24,30.6 22.7,30.6 L19.2,30.6 L19.2,41.4 L21.4,41.4 L21.4,37.3 L22.8,37.3 C23.8,37.3 24.5,37.2 25.1,37.1 C25.5,37 25.9,36.8 26.2,36.6 C26.6,36.3 26.9,36 27.1,35.5 C27.3,35 27.5,34.5 27.5,33.8 C27.5,33.2 27.3,32.5 26.9,31.9 Z M25.1,34.9 C24.9,35.1 24.7,35.3 24.4,35.4 C24.1,35.5 23.5,35.6 22.7,35.6 L21.5,35.6 L21.5,32.5 L22.6,32.5 C23.4,32.5 23.9,32.5 24.2,32.6 C24.6,32.7 24.8,32.8 25.1,33.1 C25.3,33.4 25.4,33.7 25.4,34.1 C25.3,34.4 25.2,34.6 25.1,34.9 Z" id="Shape"></path>
            <path d="M38,33.6 C37.8,32.9 37.4,32.3 37,31.9 C36.5,31.4 36,31.1 35.4,30.9 C34.9,30.8 34.2,30.7 33.3,30.7 L29.3,30.7 L29.3,41.5 L33.4,41.5 C34.2,41.5 34.8,41.4 35.3,41.3 C35.9,41.1 36.5,40.8 36.8,40.4 C37.3,39.9 37.7,39.3 38,38.5 C38.2,37.9 38.3,37.1 38.3,36.2 C38.4,35.2 38.2,34.3 38,33.6 Z M35.9,38.1 C35.8,38.6 35.6,38.9 35.3,39.1 C35.1,39.3 34.8,39.5 34.4,39.5 C34.1,39.6 33.7,39.6 33.1,39.6 L31.5,39.6 L31.5,39.6 L31.5,32.5 L32.5,32.5 C33.4,32.5 34,32.5 34.3,32.6 C34.7,32.7 35,32.9 35.3,33.1 C35.6,33.4 35.8,33.7 35.9,34.1 C36,34.5 36.1,35.2 36.1,36 C36.1,36.9 36,37.6 35.9,38.1 Z" id="Shape"></path>
            <polygon id="Path" points="47.6 32.5 47.6 30.7 40.2 30.7 40.2 41.5 42.4 41.5 42.4 36.9 46.9 36.9 46.9 35.1 42.4 35.1 42.4 32.5"></polygon>
            <path d="M13.7247863,36 L16.6,36 L10.7504274,41.8 L5,36 L7.77606838,36 L7.77606838,30.7 L13.7247863,30.7 L13.7247863,36 Z" id="Combined-Shape"></path>
        </g>
    </g>
</svg>