<?xml version="1.0" encoding="UTF-8"?>
<svg width="85px" height="85px" viewBox="0 0 85 85" version="1.1" xmlns="http://www.w3.org/2000/svg" xmlns:xlink="http://www.w3.org/1999/xlink">
    <!-- Generator: Sketch 53.2 (72643) - https://sketchapp.com -->
    <title>icon/flat/video</title>
    <desc>Created with Sketch.</desc>
    <defs>
        <polygon id="path-1" points="0 46.5098 58.51 46.5098 58.51 -0.0002 0 -0.0002"></polygon>
    </defs>
    <g id="icon/flat/video" stroke="none" stroke-width="1" fill="none" fill-rule="evenodd">
        <g id="Group-2" transform="translate(2.000000, 9.000000)">
            <g id="Group-5" transform="translate(21.000000, 0.000000)">
                <path d="M33.9165,23.2549 L26.5095,27.9689 L26.5095,18.5399 L33.9165,23.2549 Z M36.9285,22.1949 L25.9275,15.1939 C25.5405,14.9509 25.0505,14.9359 24.6495,15.1539 C24.2485,15.3749 23.9995,15.7969 23.9995,16.2549 L23.9995,30.2549 C23.9995,30.7119 24.2495,31.1339 24.6495,31.3559 L24.6515,31.3559 C24.8365,31.4569 25.0445,31.5099 25.2545,31.5099 C25.4915,31.5099 25.7245,31.4429 25.9285,31.3139 L36.9295,24.3139 C37.2925,24.0799 37.5095,23.6849 37.5095,23.2549 C37.5095,22.8239 37.2925,22.4289 36.9285,22.1949 L36.9285,22.1949 Z" id="Fill-1" fill="#ffffff"></path>
                <mask id="mask-2" fill="white">
                    <use xlink:href="#path-1"></use>
                </mask>
                <g id="Clip-4"></g>
                <path d="M2.51,10.9998 L10,10.9998 L10,2.5098 L2.51,2.5098 L2.51,10.9998 Z M2.51,21.9998 L10,21.9998 L10,13.5098 L2.51,13.5098 L2.51,21.9998 Z M2.51,32.9998 L10,32.9998 L10,24.5098 L2.51,24.5098 L2.51,32.9998 Z M2.51,43.9998 L10,43.9998 L10,35.5098 L2.51,35.5098 L2.51,43.9998 Z M12.51,43.9998 L46,43.9998 L46,2.5098 L12.51,2.5098 L12.51,43.9998 Z M48.51,10.9998 L56,10.9998 L56,2.5098 L48.51,2.5098 L48.51,10.9998 Z M48.51,21.9998 L56,21.9998 L56,13.5098 L48.51,13.5098 L48.51,21.9998 Z M48.51,32.9998 L56,32.9998 L56,24.5098 L48.51,24.5098 L48.51,32.9998 Z M48.51,43.9998 L56,43.9998 L56,35.5098 L48.51,35.5098 L48.51,43.9998 Z M57.255,-0.0002 L1.255,-0.0002 C0.563,-0.0002 0,0.5628 0,1.2548 L0,45.2548 C0,45.9478 0.563,46.5098 1.255,46.5098 L57.255,46.5098 C57.947,46.5098 58.51,45.9478 58.51,45.2548 L58.51,1.2548 C58.51,0.5628 57.947,-0.0002 57.255,-0.0002 L57.255,-0.0002 Z" id="Fill-3" fill="#ffffff" mask="url(#mask-2)"></path>
            </g>
            <g id="Group" transform="translate(0.000000, 40.000000)" fill-rule="nonzero">
                <g>
                    <path d="M50,25.9 L4.2,25.9 C2.8,25.9 1.7,24.8 1.7,23.4 L1.7,4.6 C1.7,3.2 2.8,2.1 4.2,2.1 L50,2.1 C51.4,2.1 52.5,3.2 52.5,4.6 L52.5,23.4 C52.6,24.7 51.4,25.9 50,25.9 Z" id="Path" fill="#FFFFFF"></path>
                    <path d="M50,27.1 L4.2,27.1 C2.1,27.1 0.5,25.4 0.5,23.4 L0.5,4.6 C0.5,2.5 2.2,0.9 4.2,0.9 L50,0.9 C52.1,0.9 53.7,2.6 53.7,4.6 L53.7,23.4 C53.8,25.4 52.1,27.1 50,27.1 Z M4.2,3.2 C3.5,3.2 2.9,3.8 2.9,4.5 L2.9,23.3 C2.9,24 3.5,24.6 4.2,24.6 L50,24.6 C50.7,24.6 51.3,24 51.3,23.3 L51.3,4.6 C51.3,3.9 50.7,3.3 50,3.3 L4.2,3.3 L4.2,3.2 Z" id="Shape" fill="#ffffff"></path>
                </g>
                <g transform="translate(5.000000, 8.000000)" fill="#006F83">
                    <rect id="Rectangle" x="3.6" y="0.4" width="6" height="6.1"></rect>
                    <polygon id="Path" points="12.5 5.7 0.8 5.7 6.6 11.5"></polygon>
                </g>
                <g transform="translate(19.000000, 8.000000)" fill="#006F83">
                    <polygon id="Path" points="0.3 11.5 0.3 0.7 3.6 0.7 5.6 8.1 7.5 0.7 10.8 0.7 10.8 11.5 8.8 11.5 8.8 3 6.7 11.5 4.6 11.5 2.3 3 2.3 11.5"></polygon>
                    <path d="M12.9,11.5 L12.9,0.7 L16.4,0.7 C17.7,0.7 18.6,0.8 19,0.9 C19.6,1.1 20.1,1.4 20.6,2 C21,2.5 21.2,3.2 21.2,4.1 C21.2,4.8 21.1,5.3 20.8,5.8 C20.6,6.3 20.3,6.6 19.9,6.9 C19.5,7.2 19.2,7.3 18.8,7.4 C18.3,7.5 17.5,7.6 16.5,7.6 L15.1,7.6 L15.1,11.7 L12.9,11.7 L12.9,11.5 Z M15.1,2.5 L15.1,5.6 L16.3,5.6 C17.2,5.6 17.7,5.5 18,5.4 C18.3,5.3 18.5,5.1 18.7,4.9 C18.9,4.7 18.9,4.4 18.9,4.1 C18.9,3.7 18.8,3.4 18.6,3.1 C18.4,2.8 18.1,2.7 17.7,2.6 C17.4,2.6 16.9,2.5 16.1,2.5 L15.1,2.5 Z" id="Shape"></path>
                    <path d="M26.6,11.5 L26.6,9.3 L22.2,9.3 L22.2,7.5 L26.9,0.6 L28.6,0.6 L28.6,7.5 L29.9,7.5 L29.9,9.3 L28.6,9.3 L28.6,11.5 L26.6,11.5 Z M26.6,7.5 L26.6,3.8 L24.1,7.5 L26.6,7.5 Z" id="Shape"></path>
                </g>
            </g>
        </g>
    </g>
</svg>