<?xml version="1.0" encoding="UTF-8"?>
<svg width="85px" height="85px" viewBox="0 0 85 85" version="1.1" xmlns="http://www.w3.org/2000/svg" xmlns:xlink="http://www.w3.org/1999/xlink">
    <!-- Generator: Sketch 53.2 (72643) - https://sketchapp.com -->
    <title>icon/flat/zip</title>
    <desc>Created with Sketch.</desc>
    <g id="icon/flat/zip" stroke="none" stroke-width="1" fill="none" fill-rule="evenodd">
        <g id="Group-4" transform="translate(2.000000, 6.000000)" fill="#ffffff" fill-rule="nonzero">
            <g id="Group">
                <path d="M73.8,25.1 L57.2,7.8 C57,7.6 56.6,7.4 56.3,7.4 L31.5,7.4 C28.7,7.4 26.5,9.7 26.5,12.4 L26.5,30 L4.5,30 C2.4,30 0.7,31.7 0.7,33.8 L0.7,52.6 C0.7,54.7 2.4,56.4 4.5,56.4 L26.5,56.4 L26.5,67.7 C26.5,70.5 28.8,72.7 31.5,72.7 L69.1,72.7 C71.9,72.7 74.1,70.4 74.1,67.7 L74.1,25.9 C74.2,25.6 74.1,25.3 73.8,25.1 Z M56.6,10.8 L70.3,25 L56.6,25 L56.6,10.8 L56.6,10.8 Z M4.4,53.8 C3.7,53.8 3.1,53.2 3.1,52.5 L3.1,33.8 C3.1,33.1 3.7,32.5 4.4,32.5 L50.3,32.5 C51,32.5 51.6,33.1 51.6,33.8 L51.6,52.6 C51.6,53.3 51,53.9 50.3,53.9 L4.4,53.9 L4.4,53.8 Z M71.7,67.7 C71.7,69.1 70.6,70.2 69.2,70.2 L31.6,70.2 C30.2,70.2 29.1,69.1 29.1,67.7 L29.1,56.4 L50.4,56.4 C52.5,56.4 54.2,54.7 54.2,52.6 L54.2,33.8 C54.2,31.7 52.5,30 50.4,30 L29,30 L29,12.4 C29,11 30.1,9.9 31.5,9.9 L54.1,9.9 L54.1,26.2 C54.1,26.9 54.7,27.5 55.4,27.5 L71.7,27.5 L71.7,67.7 L71.7,67.7 Z" id="Shape"></path>
                <path d="M16.7247863,43.3 L19.6,43.3 L13.7504274,49.1 L8,43.3 L10.7760684,43.3 L10.7760684,38 L16.7247863,38 L16.7247863,43.3 Z" id="Combined-Shape"></path>
                <path d="M75.3,0.3 L37.7,0.3 C34.9,0.3 32.7,2.6 32.7,5.3 L32.7,7.4 L35.2,7.4 L35.2,5.3 C35.2,3.9 36.3,2.8 37.7,2.8 L75.3,2.8 C76.7,2.8 77.8,3.9 77.8,5.3 L77.8,16.6 L77.8,43 L77.8,60.6 C77.8,62 76.7,63.1 75.3,63.1 L74.2,63.1 L74.2,65.6 L75.3,65.6 C78.1,65.6 80.3,63.3 80.3,60.6 L80.3,43 L80.3,16.6 L80.3,5.3 C80.3,2.6 78.1,0.3 75.3,0.3 Z" id="Path"></path>
                <rect id="Rectangle" x="32.9" y="38" width="2.2" height="10.8"></rect>
                <polygon id="Path" points="25.5 47 31.4 39.7 31.4 38 23.5 38 23.5 39.9 28.5 39.9 22.9 46.9 22.9 48.8 31.6 48.8 31.6 47"></polygon>
                <path d="M44.8,39.3 C44.4,38.8 43.9,38.4 43.2,38.2 C42.8,38.1 41.9,38 40.6,38 L37.1,38 L37.1,48.8 L39.3,48.8 L39.3,44.7 L39.3,44.7 L40.7,44.7 C41.7,44.7 42.4,44.6 43,44.5 C43.4,44.4 43.8,44.2 44.1,44 C44.5,43.7 44.8,43.4 45,42.9 C45.2,42.4 45.4,41.9 45.4,41.2 C45.5,40.5 45.2,39.8 44.8,39.3 Z M43,42.2 C42.8,42.4 42.6,42.6 42.3,42.7 C42,42.8 41.4,42.9 40.6,42.9 L39.4,42.9 L39.4,39.8 L40.5,39.8 C41.3,39.8 41.8,39.8 42.1,39.9 C42.5,40 42.7,40.1 43,40.4 C43.2,40.7 43.3,41 43.3,41.4 C43.2,41.7 43.1,42 43,42.2 Z" id="Shape"></path>
            </g>
        </g>
    </g>
</svg>